<?xml version="1.0" encoding="utf-8"?>
<!-- Generator: Adobe Illustrator 16.0.0, SVG Export Plug-In . SVG Version: 6.00 Build 0)  -->
<!DOCTYPE svg PUBLIC "-//W3C//DTD SVG 1.1//EN" "http://www.w3.org/Graphics/SVG/1.1/DTD/svg11.dtd">
<svg version="1.1" id="Layer_1" xmlns="http://www.w3.org/2000/svg" xmlns:xlink="http://www.w3.org/1999/xlink" x="0px" y="0px"
	 width="266px" height="392px" viewBox="0 0 266 392" enable-background="new 0 0 266 392" xml:space="preserve">
<g>
	<path fill="#F5EABD" d="M132.25,0h3.73c-0.18,15.67,0.18,31.35,0.28,47.02c-0.12,3.73-1.63,7.27-1.48,11.03
		c0.27,17.66,0.2,35.33,0.56,52.99c0.28,4.4-1.71,8.54-1.56,12.92c0.26,16.67,0.22,33.34,0.52,50c0.13,4.08-1.6,7.94-1.53,12.02
		c0.31,17.01,0.26,34.02,0.54,51.03c0.02,3.39-1.49,6.58-1.5,9.97c-0.05,8.56,0.34,17.13,0.06,25.69c-2.57,0.08-5.25,0.06-7.52,1.45
		c-14.48-45.16-25.27-91.79-28.52-139.2C94.55,112,95.06,88.94,97.7,66.13c1.79-14.11,4.44-28.28,9.94-41.47
		c3.54-8.41,8.62-16.55,16.4-21.64C126.69,1.8,129.42,0.74,132.25,0z"/>
	<path fill="#F5EABD" d="M46.04,35.1c11.05-9.98,24.74-16.74,39.19-20.18c-11.3,8.52-19.43,20.67-24.49,33.77
		c-7.45,19.17-9.69,39.91-10.07,60.33c-0.46,22.09,4.17,43.93,10.48,64.99c10.52,34.39,25.9,67.07,43.03,98.61
		c-4.85-0.67-9.7-1.34-14.53-2.14c-20.84-26.81-39.74-55.37-53.78-86.36c-9.01-20.19-16.03-41.61-17.51-63.79
		c-0.64-13.6,0.19-27.34,3.27-40.62C25.36,62.95,33.5,46.98,46.04,35.1z"/>
</g>
<g>
	<path fill="#F4F0D9" d="M135.98,0h1.12c2.77,0.82,5.45,1.94,8.13,3.03c13.33,9.16,18.56,25.54,22.35,40.49
		c5.44,23.75,6.44,48.24,6.51,72.52c-0.92,53.88-13,106.95-29.21,158.13c-4.25,0.27-8.51,0.38-12.77,0.33
		c-2.59-0.03-5.18-0.13-7.76-0.38c2.27-1.39,4.95-1.37,7.52-1.45c0.28-8.56-0.11-17.13-0.06-25.69c0.01-3.39,1.52-6.58,1.5-9.97
		c-0.28-17.01-0.23-34.02-0.54-51.03c-0.07-4.08,1.66-7.94,1.53-12.02c-0.3-16.66-0.26-33.33-0.52-50
		c-0.15-4.38,1.84-8.52,1.56-12.92c-0.36-17.66-0.29-35.33-0.56-52.99c-0.15-3.76,1.36-7.3,1.48-11.03
		C136.16,31.35,135.8,15.67,135.98,0z"/>
	<path fill="#F4F0D9" d="M184.22,15.07c16.52,3.77,31.96,12.31,43.6,24.69c5.45,6.59,10.31,13.72,13.71,21.6
		c8.84,20.5,10.88,43.49,8.72,65.55c-3.89,31.8-17.52,61.45-33.36,88.96c-10.97,18.62-23.17,36.54-36.56,53.51
		c-4.57,2.43-10.32,1.89-15.34,3.09c15.87-28.96,30.02-58.97,40.43-90.34c6.86-21.09,12.26-42.89,13.02-65.14
		c0.31-18.41-1.07-36.98-5.66-54.85C208.15,44.14,199.21,26.57,184.22,15.07z"/>
</g>
<g>
	<path fill="#F54607" d="M85.23,14.92c11.23-8.03,25.01-12.22,38.81-11.9c-7.78,5.09-12.86,13.23-16.4,21.64
		c-5.5,13.19-8.15,27.36-9.94,41.47c-2.64,22.81-3.15,45.87-1.87,68.79c3.25,47.41,14.04,94.04,28.52,139.2
		c2.58,0.25,5.17,0.35,7.76,0.38c-0.48,14.07-0.77,28.16-0.5,42.25c-1.38,0.02-2.76,0.03-4.14,0.06l-1.34,0.02
		c-0.79,0-2.38-0.01-3.17-0.01l-0.86-0.01c-0.64,0-1.93-0.01-2.58-0.01c-0.35-0.01-1.07-0.02-1.43-0.02
		c-2.48-0.2-5.48,0.51-7.43-1.44c-2.03-2.04-3.4-4.61-5.05-6.94c-9.06-13.16-18.12-26.37-28.35-38.66
		c-14.5-16.42-28.12-33.65-40.11-51.99c-14.59-22.42-27.06-46.65-33.26-72.81c-2.03-8.29-2.85-16.8-3.89-25.25v-8.37
		C1.29,98.23,3.13,84.9,9.01,72.97C16.5,56.53,30.15,43.43,46.04,35.1C33.5,46.98,25.36,62.95,21.63,79.71
		c-3.08,13.28-3.91,27.02-3.27,40.62c1.48,22.18,8.5,43.6,17.51,63.79c14.04,30.99,32.94,59.55,53.78,86.36
		c4.83,0.8,9.68,1.47,14.53,2.14c-17.13-31.54-32.51-64.22-43.03-98.61c-6.31-21.06-10.94-42.9-10.48-64.99
		c0.38-20.42,2.62-41.16,10.07-60.33C65.8,35.59,73.93,23.44,85.23,14.92z"/>
</g>
<g>
	<path fill="#F48020" d="M145.23,3.03c13.88-0.32,27.7,3.98,38.99,12.04c14.99,11.5,23.93,29.07,28.56,47.07
		c4.59,17.87,5.97,36.44,5.66,54.85c-0.76,22.25-6.16,44.05-13.02,65.14c-10.41,31.37-24.56,61.38-40.43,90.34
		c5.02-1.2,10.77-0.66,15.34-3.09c13.39-16.97,25.59-34.89,36.56-53.51c15.84-27.51,29.47-57.16,33.36-88.96
		c2.16-22.06,0.12-45.05-8.72-65.55c-3.4-7.88-8.26-15.01-13.71-21.6c10.95,6.92,20.19,16.56,26.55,27.86
		c7.5,12.95,10.24,27.89,11.63,42.61v11.06c-1.28,7.73-1.85,15.59-3.79,23.2c-6.81,28.95-21.24,55.48-37.88,79.9
		c-10.59,15.44-22.28,30.09-34.64,44.14c-12.1,14.18-22.44,29.73-32.97,45.08c-1.75,3.11-5.52,3.1-8.64,3.02c-0.33,0-0.98,0-1.31,0
		c-0.68,0-2.05,0-2.74-0.01l-1.28,0.02c-0.7,0.01-2.1,0.03-2.8,0.04h-1.23c-2.37,0-4.74,0.02-7.11,0.07
		c-0.27-14.09,0.02-28.18,0.5-42.25c4.26,0.05,8.52-0.06,12.77-0.33c16.21-51.18,28.29-104.25,29.21-158.13
		c-0.07-24.28-1.07-48.77-6.51-72.52C163.79,28.57,158.56,12.19,145.23,3.03z"/>
	<path fill="#F48020" d="M122.03,330.31c0.37,0.04,1.12,0.13,1.49,0.17c6.83,0.2,13.68-0.3,20.49,0.45c0.06,1.36,0.13,2.73,0.2,4.11
		c-7.46,0.1-14.91,0.08-22.36,0.01c0.1-1.52,0.17-3.04,0.21-4.55L122.03,330.31z"/>
	<path fill="#F48020" d="M107.93,356.73c-0.18-1.26-1.33-4.02,1.02-3.68c2.16-0.17,0.82,2.49,0.84,3.63
		c2.95,2.64,6.59,5.24,7.52,9.32c0.1,3.94-2.89,7.73-6.76,8.52c-2.01,0.48-3.99-0.42-5.92-0.79c-1.66-1.68-3.61-3.36-3.98-5.83
		c-0.84-3.04,1.35-5.6,3.19-7.72C105.16,358.98,106.55,357.86,107.93,356.73z"/>
	<path fill="#F48020" d="M131.21,353.13c1.94-0.99,3.18,2.22,1.29,3.1c2.97,2.91,6.99,5.47,7.85,9.83c0.3,4.88-4.52,9.34-9.39,8.55
		c-4.46-0.4-8.23-5.1-7.22-9.54c1.11-3.36,3.97-5.6,6.56-7.79C132.13,356.36,129.22,353.81,131.21,353.13z"/>
	<path fill="#F48020" d="M153.44,353.91c0.4-0.31,1.2-0.93,1.6-1.25c0.43,0.37,1.28,1.11,1.71,1.48c-0.28,0.53-0.83,1.59-1.11,2.13
		c2.47,2.21,4.89,4.49,6.98,7.08c0.8,2.11,0.74,4.35,0.07,6.5c-1.58,2.32-3.74,4.65-6.75,4.79c-4.91,0.73-9.61-3.79-9.31-8.69
		c0.64-3.86,4.03-6.22,6.71-8.69C154.73,356.52,153.53,354.98,153.44,353.91z"/>
</g>
<g>
	<path fill="#0F0000" d="M118.09,316.78c0.36,0,1.08,0.01,1.43,0.02c0.74,2.74,1.37,5.5,2.17,8.24c0.41-2.73,0.47-5.48,0.41-8.23
		l0.86,0.01c-0.06,3.04-0.16,6.08-0.19,9.13c1.72-2.8,2.48-6,3.36-9.12l1.34-0.02c-1.3,4.56-2.59,9.12-3.95,13.67
		c-0.37-0.04-1.12-0.13-1.49-0.17C120.56,325.84,119.4,321.29,118.09,316.78z"/>
	<path fill="#0F0000" d="M138.72,316.68h1.23c0.91,3.15,1.77,6.31,3.1,9.32c-0.19-3.12-0.31-6.24-0.3-9.36l1.28-0.02
		c0.02,2.82,0.05,5.65,0.2,8.47c1.04-2.76,1.75-5.63,2.54-8.46c0.33,0,0.98,0,1.31,0c-1.21,4.08-2.14,8.26-3.5,12.3
		c-0.54,0.78-2,1.48-2.51,0.27C140.89,325.06,139.94,320.82,138.72,316.68z"/>
</g>
<g>
	<g>
		<path fill="#F2F2F2" d="M113.62,348.58c1.25-5.89,1.58-12.01,3.36-17.76c1.67-0.4,3.39-0.29,5.08-0.32
			c-0.04,1.51-0.11,3.03-0.21,4.55c-0.58,0.11-1.74,0.35-2.32,0.47c-1.6,4.21-1.99,8.78-3.3,13.09c11.19,0.95,22.46,0.95,33.65,0.02
			c-1.31-4.34-1.6-9-3.34-13.19c-0.59-0.1-1.75-0.3-2.33-0.4c-0.07-1.38-0.14-2.75-0.2-4.11c1.8,0.06,5.17-1.57,5.59,1.11
			c1.24,5.45,1.9,11.01,2.89,16.51c3.19,0.24,7.85-2.54,9.87,1.06c0.53,4.56-0.08,9.16,0.26,13.74c-2.09-2.59-4.51-4.87-6.98-7.08
			c0.28-0.54,0.83-1.6,1.11-2.13c-0.43-0.37-1.28-1.11-1.71-1.48c-0.4,0.32-1.2,0.94-1.6,1.25c0.09,1.07,1.29,2.61-0.1,3.35
			c-2.68,2.47-6.07,4.83-6.71,8.69c-0.3,4.9,4.4,9.42,9.31,8.69c3.01-0.14,5.17-2.47,6.75-4.79c-0.71,5.21,1.12,11.05-1.99,15.73
			c-2.16,3.69-6.32,5.37-10.26,6.42h-34.33c-3.41-0.91-6.98-2.17-9.28-5c-3.17-3.55-3.25-8.67-2.92-13.15
			c0.18-0.03,0.54-0.09,0.72-0.12c1.93,0.37,3.91,1.27,5.92,0.79c3.87-0.79,6.86-4.58,6.76-8.52c-0.93-4.08-4.57-6.68-7.52-9.32
			c-0.02-1.14,1.32-3.8-0.84-3.63c-2.35-0.34-1.2,2.42-1.02,3.68c-1.38,1.13-2.77,2.25-4.09,3.45c0.04-3.39-0.2-6.8,0.12-10.19
			C105.53,345.99,110.53,348.57,113.62,348.58z M131.21,353.13c-1.99,0.68,0.92,3.23-0.91,4.15c-2.59,2.19-5.45,4.43-6.56,7.79
			c-1.01,4.44,2.76,9.14,7.22,9.54c4.87,0.79,9.69-3.67,9.39-8.55c-0.86-4.36-4.88-6.92-7.85-9.83
			C134.39,355.35,133.15,352.14,131.21,353.13z"/>
	</g>
</g>
</svg>
