<?xml version="1.0" encoding="utf-8"?>
<!-- Generator: Adobe Illustrator 16.0.0, SVG Export Plug-In . SVG Version: 6.00 Build 0)  -->
<!DOCTYPE svg PUBLIC "-//W3C//DTD SVG 1.1//EN" "http://www.w3.org/Graphics/SVG/1.1/DTD/svg11.dtd">
<svg version="1.1" id="Layer_1" xmlns="http://www.w3.org/2000/svg" xmlns:xlink="http://www.w3.org/1999/xlink" x="0px" y="0px"
	 width="204.706px" height="485.293px" viewBox="0 0 204.706 485.293" enable-background="new 0 0 204.706 485.293"
	 xml:space="preserve">
<g>
	<path fill="#707271" d="M141.777,328.146c2.021-0.68,2.33,1.699,3.01,3.02c-1.479,0.51-3.029,0.57-4.5,0.03
		C140.697,330.137,141.197,329.116,141.777,328.146z"/>
	<path fill="#383837" d="M44.867,0.566c19.91-3.04,39.97,6.48,53.451,20.779c7.26,7.791,14.85,15.511,24.16,20.851
		c8.57,5.28,19.1,6.521,27.119,12.8c9.42,6.68,15.23,17.939,15.43,29.46c0.34,5.771-1.41,12.13,1.76,17.39
		c3.99,6.301,12.602,7.121,16.861,13.16c4.561,6.391,4.609,14.86,2.84,22.221c-0.871,4.34-2.689,8.859-1.359,13.289
		c1.629,4.051,5.299,6.701,8.189,9.801c7.039,7.02,12.08,16.73,11.311,26.89c-0.201,6.74-4.441,12.28-6.49,18.479
		c-2.961,8.931-2.131,18.541-4.41,27.611c-1.281,6.109-4.471,11.81-4.48,18.159c-0.029,6.32-0.859,12.78,0.82,18.979
		c1.85,6.99,3.1,14.681,0.27,21.601c-1.15,3.38-3.66,6.63-2.959,10.38c0.779,4.811,2.209,9.721,1.059,14.61
		c-2.059,9.729-8.57,17.739-15.4,24.659c-3.639,3.791-8.25,6.441-12.029,10.061c-2.799,2.67-2.199,6.891-2.43,10.391
		c0.41,15.67-6.6,30.74-16.73,42.399c-3.02,3.479-5.85,7.31-6.99,11.851c-1.76,6.609-2.85,13.58-6.709,19.39
		c-7.189,11.271-19.461,18.13-31.891,22.159c-7.99,2.671-16.811,2.551-24.311,6.681c-7.529,3.819-13.199,10.431-20.779,14.17
		c-10.141,5.03-21.82,7.94-33.11,5.79c-7.54-1.42-14.55-6.73-16.739-14.25c-1.951-6.891-1.08-14.12-1.19-21.17
		c0.01-128,0.021-256,0.01-384c0.13-6.51-0.78-13.18,0.851-19.57c2.119-6.89,11.34-7.32,14.1-13.77
		c2.74-6.26,2.33-13.78,6.779-19.29C27.548,5.676,36.298,2.106,44.867,0.566z M24.238,18.866c-3.66,5.511-4.33,12.511-3.15,18.89
		c1.35,6.101,5.74,11.92,11.88,13.73c7.979,1.85,16.14-1.551,22.14-6.73c4.92-3.77,10.09-9.449,16.929-8.119
		c8.621,1.91,12.811,10.729,20.211,14.76c7.561,4.689,17.061,4.82,25.301,1.949c-7.781-1.91-14.131-7.119-18.67-13.58
		c-6.381-7.819-8.891-18.529-17.211-24.76c-9.459-7.01-21.709-8.949-33.23-8.5C39.117,6.676,29.428,10.866,24.238,18.866z
		 M61.428,44.026c-3.76,1.7-6.07,5.29-8.38,8.53c3.36-1.17,6.729-2.881,10.38-2.711c5.06,0.931,7.541,6.48,12.371,7.881
		c5.869,0.26,8.059-9.08,3.209-12.021C73.867,42.536,67.037,41.446,61.428,44.026z M7.408,50.047
		c-3.801,4.81-2.771,11.42-1.78,17.029c2.87,14.051,8.601,28.641,20.489,37.46c-2.739-6.97-6.049-13.94-6.389-21.55
		c-0.451-5.061,0.42-10.68,4.319-14.301c5.01-4.819,12.44-4.75,18.81-6.27c-3.609-1.34-7.42-2.5-11.32-2.06
		c-4.649,0.35-8.529,3.17-12.43,5.42c1.851-3.89,4.351-7.53,5.48-11.729c0.84-2.891-0.93-6.16-3.78-7.08
		C16.287,45.516,10.468,46.006,7.408,50.047z M80.478,64.006c1.48,3.23,4.57,5.311,6.42,8.301c0.189,3.14-3.07,4.979-5.689,5.74
		c-5.961,1.77-12.021-0.701-17.351-3.25c-7.97-3.871-17.56-7.19-26.16-3.32c-6.399,2.59-9.81,9.09-11.56,15.4
		c4.979-3.021,10.14-6.75,16.271-6.431c7.479,0.021,14.01,4.71,18.42,10.44c4.6,5.43,7.07,12.199,10.779,18.189
		c5.23,8.439,14.84,14.15,24.861,13.95c6.889,0.17,15.229-0.04,19.729-6.149c5.281-7.631,1.891-18.921-5.76-23.65
		c-5.859-4.17-13.309-2.01-19.93-2.25c-4.33,0.15-8.4-1.471-12.26-3.221c5.9-0.479,12.35,0,17.561-3.33
		c6.299-4.01,8.689-12.43,6.83-19.439c-2-6.78-9.15-11.43-16.102-11.08C81.798,54.266,79.228,59.797,80.478,64.006z M113.718,57.406
		c-6.74,4.439-8.211,15.24-2.57,21.109c4.32,4.101,10.68,4.051,16.02,5.98c6.27,1.939,11.699,6.93,13.381,13.381
		c1.568,6.609,0.16,13.529-2.48,19.67c-4.189,10.039-7.4,20.649-7.77,31.6c-0.051,5.689,0.109,11.92,3.469,16.77
		c2.76,4.2,8.58,4.93,13.031,3.391c2.469-0.92,3.729-3.65,3.559-6.18c-0.18-5.041-3.26-9.301-4.77-13.98
		c-3.4-9.09-3-19.15,0.029-28.28c1.201,7.38,2.852,15.29,8.541,20.63c4.32,4.84,11.939,7.439,17.859,4.04
		c7.141-5.29,10.15-15.68,6.98-23.97c-1.449-3.41-4.82-7.43-8.971-6.051c-2.639,2.25-3.77,5.721-6.219,8.131
		c-2.68,0.97-5.68-0.51-6.75-3.09c-2.73-6.051-2.18-12.94-1.791-19.4c1.02-9.58,1.801-19.71-1.99-28.83
		c-3.75-9.32-12.74-16.29-22.75-17.41C124.898,54.326,118.607,54.086,113.718,57.406z M53.008,57.566
		c-3.391,1.96-2.061,6.97,1.721,7.279c2.92,0.801,4.93-2.64,4.289-5.18C58.008,57.366,55.188,56.856,53.008,57.566z M68.037,61.627
		c-4.308,2.049-4.378,9.149-0.068,11.239c3.959,2.31,9.969-0.771,9.309-5.64C77.718,62.477,72.007,59.356,68.037,61.627z
		 M105.087,80.627c-2.93,1.6-3.02,6.5,0.07,8c3.039,2.039,7.789-0.601,7.141-4.371C112.468,80.686,107.847,78.826,105.087,80.627z
		 M28.479,95.266c-0.41,3.44,1.199,6.891,3.699,9.201c7.92,7.039,19.551,8.279,26.87,16.14c3.63,3.6,5.45,8.5,8.54,12.5
		c0.779,3.88,2.041,7.649,3.561,11.3c1.389-9.48,0.889-19.32-2.43-28.359c-2.211-8.08-7.121-15.24-13.121-20.99
		c-4.79-4.551-11.15-8.2-17.97-7.61C33.357,87.686,29.078,90.877,28.479,95.266z M116.597,88.106c2.051,5.01,4.52,9.909,5.57,15.271
		c1.49,7.6,0.891,15.559-1.539,22.909c-4.471,13.64-14,24.99-24.701,34.29c-4.359,4.141-10.699,7.93-11.199,14.51
		c-0.25,5.6,7.689,6.381,10.889,3.15c3.561-3.9,4.111-9.54,7.23-13.73c1.91-2.8,5.031-4.3,7.951-5.81
		c-2.561,6.78-6.512,12.931-8.98,19.75c-3.27,8.431-4.859,17.67-3.461,26.67c1.01,6.44,4.92,12.229,10.221,15.94
		c4.09,2.93,10.359,2.84,13.99-0.82c3.23-3.18,5.391-8.01,4.289-12.551c-1.74-4.229-5.479-7.159-7.85-10.989
		c-5.789-8.34-7.08-19.819-2.02-28.819c1.52,7.569,3.119,15.51,8.129,21.649c3.641,4.979,9.641,9.03,10.041,15.7
		c0.629,5.15-2.199,9.67-4.59,13.959c-2.961,5.25-4.439,12-1.67,17.631c2.369,4.75,8.709,6.17,13.33,4.08
		c4.279-1.881,7.109-5.961,8.83-10.17c4.039-10,4.1-21.75-0.68-31.51c-2.592-5.351-6.75-9.681-10.75-13.98
		c6.389-0.74,12.949-1.4,18.85-4.141c7.379-3.33,13.32-10.01,15.15-17.959c0.818-3.521,0.539-7.51-1.66-10.49
		c-3.541-4.721-12.23-4.52-14.811,1.09c-2.061,5.029-1.199,10.76-3.25,15.8c-3.74,9.229-16.83,12.99-24.881,7.13
		c-3.1-2.23-5.1-5.76-5.709-9.5c-1.17-6.72,0.539-13.449,2.219-19.92c3.311-12.66,4.551-25.98,2.781-38.98
		C127.238,100.297,123.017,92.967,116.597,88.106z M10.398,96.026c1.639,9.36,4.959,18.72,11.31,25.94
		c4.35,5.08,11.43,7.119,15.021,12.949c4.209,6.35,2.93,15.061,8.209,20.84c4.2,4.57,11.93,7.09,17.35,3.19
		c4.99-3.931,5.58-11.149,4.32-16.94c-2.41-9.459-9.24-17.72-18.059-21.899c-7.34-3.61-15.64-4.96-22.62-9.37
		C19.568,107.236,14.848,101.616,10.398,96.026z M5.428,115.307c7.71,10.06,14.551,22.3,12.51,35.449
		c-1.22,12.061-12.59,20.18-13.14,32.42c-1.63,12.69,6.11,26.11,18.36,30.24c11.24,4.52,25.17-1.67,29.789-12.73
		c2.291-6.579,0.91-14.77-4.399-19.539c-2.97-2.76-5.47-5.961-7.45-9.49c6.42,1.99,13.6,3.71,19.85,0.24
		c-6.84-2.391-14.34-4.221-19.459-9.721c-6.03-5.59-7.221-14.069-10.94-21.039C24.848,130.356,15.838,121.557,5.428,115.307z
		 M79.908,123.686c-5.34,1.201-5.811,9.971-0.68,11.771c3.689,1.53,8.4-1.17,8.109-5.38
		C88.017,125.986,83.677,122.826,79.908,123.686z M112.068,128.846c1.949,0.011,3.92,0.021,5.891,0.021
		c-0.23-1.91,0.119-5.239-2.57-5.39C112.248,122.936,112.208,126.727,112.068,128.846z M97.937,125.547
		c-6.869,2.029-7.32,13.27-0.59,15.739c5.111,2.28,11.971-1.33,11.881-7.21C109.968,128.176,103.408,123.246,97.937,125.547z
		 M81.027,139.727c-5.67,2.479-8.148,10.27-4.52,15.41c2.689,4.819,9.18,6.06,13.971,3.879c5.09-2.52,7.34-9.409,4.609-14.42
		C92.677,139.547,86.037,137.227,81.027,139.727z M148.408,145.036c0.449,2.37-1.051,6.771,2.279,7.29
		c2.861,1.33,6.16-2.109,4.881-4.93C154.687,144.297,150.777,145.446,148.408,145.036z M179.978,157.576
		c-3.811,1.17-5.041,6.59-2.42,9.49c2.869,3.529,9.34,1.939,10.32-2.52C189.148,160.127,184.197,155.946,179.978,157.576z
		 M65.938,160.396c-4.189,1.619-4.66,7.949-1.06,10.449c3.62,2.92,9.899,0.08,9.719-4.699
		C75.037,161.706,69.837,158.426,65.938,160.396z M174.177,172.896c-3.641,1.07-6.27,5-5.199,8.779
		c1.459,5.801,6.84,9.271,9.92,14.131c4.18,6,4.439,13.55,5.26,20.56c4.369-6.681,8-14.11,8.709-22.17
		c0.541-5.94-0.25-12.47-4.209-17.181C185.248,172.856,179.238,171.446,174.177,172.896z M70.517,178.266
		c-4.369,1.19-9,4.281-9.469,9.17c-0.28,4.641,1.44,9.101,1.76,13.701c0.96,8.81-2.44,18.25-9.579,23.709
		c-4.141,3.15-8.881,5.66-12.141,9.83c-8.04,9.91-10.75,23.061-10.391,35.58c1.961-5.74,3.82-11.619,7.25-16.68
		c3.66-5.449,9.09-9.93,15.521-11.609c3.79-0.94,8.24-0.851,11.38,1.779c3.49,2.92,5.589,8.12,3.839,12.52
		c-1.059,2.361-4.029,2.32-6.199,2.73c-4.621,0.59-10.101,0.86-13.15,4.96c-4.13,5.46-1.28,13.729,4.32,16.99
		c11.24,6.46,27.689,0.8,31.9-11.67c2.939-9,2.449-19.86-3.75-27.44c-3.141-4.479-8.33-6.64-13.26-8.5
		c6.35-2.72,13.029-5.189,18.27-9.88c5.49-4.829,9.379-11.85,9.199-19.3c-0.219-7.68-2.52-15.83-8.379-21.141
		C83.138,178.896,76.548,176.377,70.517,178.266z M161.287,181.956c-3.209,2.181-0.67,7.64,3.061,6.91
		c3.791-0.29,2.721-4.96,3.01-7.55C165.328,181.446,163.248,181.356,161.287,181.956z M147.597,187.227
		c3.061,3.92,6.73,7.66,8.07,12.59c1.109,3.72,1.141,7.779,2.98,11.27c2.439,4.19,7.91,5.44,12.4,4.5
		c1.92-0.38,3.529-1.93,3.959-3.85c1.07-4.73-0.039-10.04-3.51-13.561C165.277,191.637,156.378,188.436,147.597,187.227z
		 M50.367,211.576c0.5,1.16,1.021,2.301,1.561,3.439c1.46-0.08,2.91-0.199,4.37-0.26c-0.28-1.859-0.399-3.74-0.39-5.609
		C54.048,209.936,52.197,210.727,50.367,211.576z M40.898,217.606c-3.101,0.61-4.98,4.079-3.91,7.03c1.31,4.819,9.91,4.5,10.26-0.74
		C48.248,220.186,44.537,216.666,40.898,217.606z M157.437,224.047c-6.15,8.939-2.379,20.609-6.9,30.129
		c-5.068,11.871-15.85,19.701-26.209,26.69c6.93-1.021,13.83-2.351,20.49-4.54c3.49-1.029,6.969-2.5,10.68-2.439
		c3.17,0.18,5.619,2.689,6.971,5.399c2.52,4.86,2.068,10.64,4.379,15.57c1.381,2.87,5.121,3.68,7.92,2.56
		c4.25-1.6,6.701-5.92,7.881-10.08c1.289-4.619,1.15-10.25-2.51-13.8c-5.33-5.44-13.371-6.271-20.561-6.93
		c9.83-5.75,18.67-14.49,21.539-25.81c1.4-6.101,1.211-13.83-4.139-18.031C171.378,218.627,161.777,217.557,157.437,224.047z
		 M4.348,230.186c-0.15,7.181,5.78,12.75,5.881,19.9c0.539,7.771-2.65,15.03-4.511,22.41c9.53-5.05,17.24-12.93,23.46-21.64
		c3.96-5.64,7.03-12.62,5.54-19.64c-2.01-7.771-11.06-10.701-18.25-10.67C10.947,220.467,4.678,224.236,4.348,230.186z
		 M96.847,240.786c2.471,7.29,9.92,11.78,11.631,19.5c3.4,9.86-0.73,19.931-4.93,28.8c9.729-8.02,19.08-17.529,23.049-29.8
		c2.91-8.46,1.65-18.319-3.67-25.55c-3.5-4.73-9.25-8.221-15.289-7.43C100.728,226.676,94.628,233.866,96.847,240.786z
		 M85.017,228.536c-3.52,1.229-4.16,5.8-2.75,8.82c2.49,4.47,10.9,3.01,11-2.44C94.267,230.416,89.107,226.416,85.017,228.536z
		 M136.958,243.646c-5.721,1.1-7.211,9.38-2.611,12.699c3.85,3.271,10.5,0.66,11.221-4.33
		C146.757,247.146,141.798,242.297,136.958,243.646z M53.048,245.656c-3.94,1.62-4.46,7.6-1.29,10.221
		c3.529,2.85,10.13,0.199,9.55-4.721C61.828,246.797,56.729,244.166,53.048,245.656z M92.628,248.016
		c1.449,4.69,3.52,9.271,4,14.211c0.43,4.42-1.33,9.4-5.471,11.52c-3.09,1.98-7.121,2.7-9.471,5.67
		c-2.799,5.36,1.66,13.02,7.811,12.95c7.66,0.09,14.42-6.64,15.061-14.149c0.559-6.771-0.43-13.771-3.18-20.011
		C99.568,253.986,96.128,250.826,92.628,248.016z M179.777,250.566c1.561,1.439,3.23,2.779,4.98,4c0.24-1.9,0.461-3.801,0.689-5.7
		C183.548,249.426,181.658,249.986,179.777,250.566z M176.048,256.637c-4.08,1.16-4.961,7.149-1.641,9.64
		c3.25,2.79,9.289,0.351,8.971-4.16C183.808,258.266,179.578,255.256,176.048,256.637z M38.947,261.456
		c-3.239,0.89-2.939,6.2,0.221,7.07c3.13,1.38,6.369-2.8,4.58-5.56C42.768,261.326,40.658,260.956,38.947,261.456z M131.007,261.566
		c-3.18,1.05-3.529,6.23-0.49,7.699c2.801,1.83,7.031-0.56,6.621-3.969C136.998,262.346,133.658,260.557,131.007,261.566z
		 M20.908,265.486c-2.84,0.85-4.051,4.97-1.871,7.1c2.16,2.41,6.871,1.721,7.65-1.64C27.898,267.536,24.229,264.127,20.908,265.486z
		 M3.888,289.756c1.78,6.03,8.41,9.271,9.649,15.51c0.601,5.48-4.639,8.771-8.049,12.121c11.22-2.131,22.049-9.631,25.299-20.98
		c3.181-11.1-8.01-22.67-19.079-21.12C5.268,276.276,1.648,283.877,3.888,289.756z M150.947,277.536
		c-3.25,0.771-4.209,5.05-2.529,7.63c2.131,3.03,7.99,2.59,8.721-1.42C158.478,280.026,154.658,276.217,150.947,277.536z
		 M42.968,283.717c-7.44,1.629-10.649,11.34-6.431,17.42c3.811,6.41,14.281,6.67,18.641,0.729c3.689-4.79,2.85-12.649-2.109-16.28
		C50.268,283.336,46.378,282.906,42.968,283.717z M109.697,299.266c-2,4.9-1.059,10.311,0.57,15.17
		c1.25-5.1,1.93-10.809,5.791-14.729c2.469-2.59,6.389-4.63,9.959-3.09c6.141,2.61,8.26,10.399,14.721,12.5
		c5.311,1.229,9.91-3.71,11.32-8.39c1.85-6.771-3.391-13.33-9.51-15.59C130.218,280.536,114.677,286.956,109.697,299.266z
		 M72.037,287.696c-4.67,1.601-4.68,9.45-0.059,11.149c3.82,1.951,8.889-1.359,8.43-5.689
		C80.798,288.807,75.728,286.286,72.037,287.696z M48.078,316.696c-8.85,6.04-20.021,4.431-29.971,2.96
		c3.98,4.52,9.82,6.23,15.61,6.93c-1.59,2.84-3.05,6.15-6.229,7.51c-5.78,2.631-12.5,3.36-17.49,7.59
		c-4.73,3.601-7.36,10.33-5.12,16.011c3.159,5.76,11.88,6.71,16.71,2.521c4.02-3.121,4.641-8.471,6.08-13
		c2.13-7.57,8.43-12.931,14.66-17.23c5.449-3.859,12.33-6.04,16.32-11.689c5.75-8.17,6.639-18.65,5.909-28.341
		C61.277,299.936,57.518,310.877,48.078,316.696z M158.658,291.616c-2.121,0.59-3.93,3.479-1.77,5.13
		c1.85,2.92,6.35-0.22,5.26-3.189C161.177,292.776,160.017,291.026,158.658,291.616z M95.197,303.846
		c-5.26,8.641-4.229,20.131,1.25,28.42c3.281,5.051,7.551,10.311,6.762,16.761c-0.32,8.13-7.281,13.44-10.422,20.399
		c-1.309,3.211-1.92,7.311,0.141,10.34c3.609,4.48,11.33,5.73,15.5,1.32c4.871-5,6.73-12.15,7.49-18.9
		c1.15-9.399-1.699-18.6-5.391-27.119c6.58,0.84,13.49,2.48,19.961,0.15c7.619-2.5,12.5-11.881,9.33-19.42
		c-1.381-3.23-5.461-4.141-8.531-3.031c-2.529,4.221-0.389,10.311-4.068,14.08c-4.15,3.781-10.41,3.25-15.5,2.19
		c-6.461-1.19-10.58-7.64-10.881-13.89c-0.82-7.45,2.131-14.48,4.32-21.43C101.328,296.516,97.558,299.646,95.197,303.846z
		 M88.708,296.596c-1.221,0.131-2.381,0.851-2.951,1.961c-1.99,2.689,1.961,7.07,4.711,4.58
		C93.867,301.946,91.847,296.396,88.708,296.596z M121.037,299.637c-4.738,2.17-4.199,9.97,0.721,11.58
		c4.311,1.859,9.41-2.271,8.471-6.871C130.017,299.996,124.687,297.516,121.037,299.637z M156.978,306.547
		c-2.201,4.979-1.191,10.75-3.281,15.789c-3.539,8.85-12.25,14.211-16.148,22.86c-3.49,7.21-3.881,15.95-0.311,23.22
		c1.641-6.43,4.15-12.82,8.959-17.56c6.111-6.841,14.961-10.2,21.641-16.36c5.551-4.97,10.32-11.66,10.59-19.359
		c0.26-3.931-0.359-8.59-3.93-10.94C169.238,300.676,160.628,300.776,156.978,306.547z M73.968,303.666
		c-4.5,1.26-7.141,6.45-5.84,10.881c1.359,5.31,8.309,8.09,12.939,5.109c4.5-2.59,5.549-9.34,2.209-13.26
		C81.107,303.646,77.248,302.786,73.968,303.666z M30.058,308.536c-2.81,1.78-2.31,7.04,1,8.13c2.83,1.11,6.47-1.22,6.14-4.369
		C37.188,308.826,32.938,306.616,30.058,308.536z M145.958,312.576c-2.441,0.65-3.852,3.551-2.83,5.87
		c1.309,3.989,8.318,3.601,8.92-0.7C152.857,314.396,149.117,311.377,145.958,312.576z M116.578,314.426
		c0.42,2.271-0.221,6.24,3.07,6.431c3.539,0.409,3.4-3.99,3.799-6.36C121.158,314.416,118.867,314.387,116.578,314.426z
		 M60.947,319.576c-4.52,0.971-5.34,7.33-1.709,9.87c3.369,3.17,9.47,0.26,9.15-4.351C68.908,321.106,64.518,318.307,60.947,319.576
		z M110.337,325.456c1.689,0.2,3.4,0.39,5.121,0.57c-0.08-1.78-0.16-3.56-0.211-5.341
		C112.617,321.127,110.697,322.766,110.337,325.456z M71.267,322.106c-0.879,3.771-1.34,7.87-3.76,11.04
		c-4.75,6.13-14.269,5.8-18.41,12.6c-4.029,6.221-1.26,15.26,5.42,18.36c10.69,4.85,26.259-2.55,26.781-14.979
		C82.248,339.066,76.998,329.916,71.267,322.106z M9.808,323.637c-2.909,0.42-5.51,3.24-4.979,6.279c0.57,4.2,6.539,6.551,9.4,3.02
		C17.908,329.656,14.548,322.946,9.808,323.637z M81.728,326.106c2.639,6.81,5.76,13.67,6.1,21.079
		c0.24,6.021-2.779,12.141-8,15.261c-7.279,4.39-16.089,6.42-24.52,5.08c-5.96-0.92-11.1-4.79-14.579-9.58
		c-2.771-3.771-3.381-8.521-4.24-12.979c-1.84,2.549-4.08,5.09-4.42,8.34c-0.36,3.05-0.221,6.14-0.16,9.209
		c-7.94,1.461-16.36,2.99-22.771,8.281c-3.17,2.439-5.39,6.27-5.11,10.359c-0.069,5.54,3.931,10.57,9.07,12.37
		c5.57,2.19,12.561-0.021,15.53-5.3c3.101-4.811-0.261-10.43,0.28-15.62c1.49-2.37,4.629-2.601,7.08-1.86
		c4.359,1.28,8.109,4.01,12.43,5.391c4.189,1.479,8.68,1.449,13.07,1.399c-5.15,5.92-10.19,12.13-13.201,19.45
		c-3.939,9.49-4.559,20.87,0.261,30.141c5.489,9.93,20.53,11.059,28.399,3.459c2.561-2.47,2.92-6.439,1.682-9.64
		c-4.621-9.71-9.762-19.761-9.451-30.83c0.07-4.681,1.891-9.06,3.92-13.2c1.051,8.971,0.541,18.85,6.131,26.52
		c2.58,3.98,7.65,5.951,12.27,4.861c5.74-0.91,10.98-6.07,10.48-12.141c-0.281-3.279-1.4-7.05-4.381-8.84
		c-3.561-1.28-7.609-0.62-11.049-2.28c-2.98-2.51-4.141-6.94-2.941-10.63c1.961-7.641,9.701-12.859,9.531-21.21
		C93.917,342.856,88.138,333.666,81.728,326.106z M141.777,328.146c-0.58,0.97-1.08,1.99-1.49,3.05c1.471,0.54,3.021,0.479,4.5-0.03
		C144.107,329.846,143.798,327.467,141.777,328.146z M49.888,331.566c-0.63,2.77,2.46,3.699,4.181,5.061
		c0.789-1.91,1.66-3.781,2.609-5.611C54.428,330.176,51.498,328.946,49.888,331.566z M41.197,335.846
		c-0.799,1.461-1.399,3.311-0.529,4.9c1.05,2.83,5.561,3.21,7.17,0.74c0.48-2.02,0.43-4.1,0.55-6.15
		C45.998,335.346,43.438,334.756,41.197,335.846z M130.548,341.877c2.299,0.02,4.6,0.01,6.91-0.061
		c-0.391-2.45-0.301-6.67-3.871-6.4C130.357,335.586,130.978,339.637,130.548,341.877z M124.857,341.576
		c-6.08,0.58-9.5,8.84-5.08,13.29c3.381,4.319,10.711,3.54,13.141-1.36C136.257,348.127,131.048,340.526,124.857,341.576z
		 M151.248,353.096c-1.689,4.951-3.061,10.221-6.42,14.36c-4.631,5.78-11.801,9.021-19.029,9.931
		c-5.211,0.85-10.961,0.449-15.531,3.49c-4.24,2.76-5.67,8.699-3.74,13.25c0.75,1.51,2.041,3.289,3.98,2.939
		c3.529-0.15,4.51-4.32,6.41-6.641c2.6-5.06,8.99-4.25,13.699-5.33c5.381-0.649,9.762-4,14.012-7.069
		c-1.342,3.45-2.48,7.34-5.641,9.61c-5.561,4.119-13.15,3.39-18.881,7.17c-5.75,3.81-6.67,11.789-12.539,15.479
		c-5.42,3.55-12.291,1.71-18.121,3.899c-4.939,2.131-7.629,7.73-7.639,12.91c-0.07,3.631,2.859,6.48,6.059,7.681
		c8.852,3.3,19.65,1.96,26.771-4.479c6.719-5.791,8.879-14.871,14.539-21.49c4.67-6.051,12.371-8.891,16.621-15.34
		C154.037,381.836,154.158,366.536,151.248,353.096z M123.947,362.576c-4.789,1.12-5.67,8.25-1.639,10.83
		c3.41,2.66,8.9,0.391,9.639-3.811C132.998,365.186,128.197,360.977,123.947,362.576z M30.787,375.446
		c-0.149,2.34,2.301,3.81,4.431,3.5c2.069-1.39,1.44-4.101,1.55-6.2C34.738,373.436,32.098,373.496,30.787,375.446z M41.818,377.727
		c-6.65,0.66-8.44,10.76-2.701,13.88c4.621,3.25,11.861-0.71,11.25-6.45C50.848,380.576,46.088,377.057,41.818,377.727z
		 M26.808,394.477c-3.979,3.949-3.76,10.4-1.94,15.33c2.771,7.16,9.621,11.43,16.23,14.609c-1.811-3.98-4.08-7.99-4.18-12.47
		c-0.12-4.69,2.49-8.95,2.48-13.601C38.318,393.106,30.607,390.346,26.808,394.477z M9.578,397.506
		c-0.35,11.49-3.021,23.75,1.949,34.65c3.521,8.221,11.41,14.37,20.291,15.58c3.039,0.439,6.56-0.141,8.52-2.74
		c2.859-3.74,3.4-8.85,2.529-13.359c-0.459-2.44-2.549-4.07-4.709-4.98c-5.01-2.221-10.67-3.5-14.68-7.49
		c-4.221-4.029-5.25-10.05-8.141-14.93C13.888,401.627,11.697,399.557,9.578,397.506z M101.558,403.706
		c0.129,1.95,0.17,3.91,0.049,5.87c2.18-0.02,6.131-0.08,5.611-3.29C107.037,403.316,103.628,403.856,101.558,403.706z
		 M77.738,409.356c0.08,1.12,0.15,2.239,0.209,3.37c1.111,0.05,2.211,0.119,3.33,0.209c-0.029-1.18-0.039-2.359-0.039-3.529
		C80.058,409.387,78.898,409.366,77.738,409.356z M108.697,437.456c-6.488,2.24-13.41,2.3-20.189,2.54
		c-12.279,0.801-24.939,2.311-35.97,8.17c-5.649,2.95-11.579,5.76-18.029,6.27c-6.59,0.551-12.939-2.489-19.54-1.659
		c-3.39,0.409-6.899,2.149-8.45,5.351c-1.859,4-1.5,8.809,0.34,12.75c2.33,4.68,7.2,7.579,12.2,8.619
		c9.45,2.1,20.31,0.641,27.61-6.15c6.949-6.42,14.8-11.989,23.679-15.379c9.9-4.041,20.881-4.17,30.781-8.211
		c10.42-3.83,20.529-10.74,24.6-21.5C120.287,431.727,114.968,435.616,108.697,437.456z M48.848,435.536
		c-1.109,0.851-1.779,2.12-2.27,3.399c1.609,1.24,3.539,1.921,5.43,2.641c0.52-1.609,1.05-3.22,1.58-4.82
		C52.008,436.326,50.468,435.756,48.848,435.536z M7.078,441.627c-3.791,2.139-2.561,8.579,1.74,9.219
		c3.359,0.971,6.649-2.279,6.09-5.629C14.908,441.446,9.928,439.736,7.078,441.627z"/>
	<path fill="#F99215" d="M24.238,18.866c5.189-8,14.879-12.19,24.199-12.36c11.521-0.449,23.771,1.49,33.23,8.5
		c8.32,6.23,10.83,16.94,17.211,24.76c4.539,6.461,10.889,11.67,18.67,13.58c-8.24,2.871-17.74,2.74-25.301-1.949
		c-7.4-4.03-11.59-12.85-20.211-14.76c-6.839-1.33-12.009,4.35-16.929,8.119c-6,5.18-14.16,8.58-22.14,6.73
		c-6.14-1.811-10.53-7.63-11.88-13.73C19.908,31.377,20.578,24.377,24.238,18.866z"/>
	<path fill="#F99215" d="M28.479,95.266c0.6-4.389,4.879-7.58,9.149-7.819c6.819-0.59,13.18,3.06,17.97,7.61
		c6,5.75,10.91,12.91,13.121,20.99c1.639,6.549,2.029,13.34,1.52,20.06c-0.9-0.99-1.791-1.99-2.65-3c-3.089-4-4.91-8.9-8.54-12.5
		c-7.319-7.86-18.95-9.101-26.87-16.14C29.678,102.156,28.068,98.706,28.479,95.266z"/>
	<path fill="#F99215" d="M116.597,88.106c6.42,4.86,10.641,12.19,11.721,20.159c1.77,13,0.529,26.32-2.781,38.98
		c-1.68,6.471-3.389,13.2-2.219,19.92c0.609,3.74,2.609,7.27,5.709,9.5c8.051,5.86,21.141,2.1,24.881-7.13
		c2.051-5.04,1.189-10.771,3.25-15.8c2.58-5.609,11.27-5.811,14.811-1.09c2.199,2.98,2.479,6.97,1.66,10.49
		c-1.83,7.949-7.771,14.629-15.15,17.959c-5.9,2.74-12.461,3.4-18.85,4.141c4,4.3,8.158,8.63,10.75,13.98
		c4.779,9.76,4.719,21.51,0.68,31.51c-1.721,4.209-4.551,8.289-8.83,10.17c-4.621,2.09-10.961,0.67-13.33-4.08
		c-2.77-5.631-1.291-12.381,1.67-17.631c2.391-4.289,5.219-8.809,4.59-13.959c-0.4-6.67-6.4-10.721-10.041-15.7
		c-5.01-6.14-6.609-14.08-8.129-21.649c-5.061,9-3.77,20.479,2.02,28.819c2.371,3.83,6.109,6.76,7.85,10.989
		c1.102,4.541-1.059,9.371-4.289,12.551c-3.631,3.66-9.9,3.75-13.99,0.82c-5.301-3.711-9.211-9.5-10.221-15.94
		c-1.398-9,0.191-18.239,3.461-26.67c2.469-6.819,6.42-12.97,8.98-19.75c-2.92,1.51-6.041,3.01-7.951,5.81
		c-3.119,4.19-3.67,9.83-7.23,13.73c-3.199,3.23-11.139,2.449-10.889-3.15c0.5-6.58,6.84-10.369,11.199-14.51
		c10.701-9.3,20.23-20.65,24.701-34.29c2.43-7.351,3.029-15.31,1.539-22.909C121.117,98.016,118.648,93.116,116.597,88.106z"/>
	<path fill="#F99215" d="M5.428,115.307c10.41,6.25,19.42,15.05,25.12,25.83c3.72,6.97,4.91,15.449,10.94,21.039
		c5.119,5.5,12.619,7.33,19.459,9.721c-6.25,3.47-13.43,1.75-19.85-0.24c1.98,3.529,4.48,6.73,7.45,9.49
		c5.31,4.77,6.69,12.96,4.399,19.539c-4.619,11.061-18.549,17.25-29.789,12.73c-12.25-4.13-19.99-17.55-18.36-30.24
		c0.55-12.24,11.92-20.359,13.14-32.42C19.979,137.606,13.138,125.366,5.428,115.307z"/>
	<path fill="#F99215" d="M81.027,139.727c5.01-2.5,11.65-0.18,14.061,4.869c2.73,5.011,0.48,11.9-4.609,14.42
		c-4.791,2.181-11.281,0.94-13.971-3.879C72.878,149.996,75.357,142.206,81.027,139.727z"/>
	<path fill="#F99215" d="M161.287,181.956c1.961-0.6,4.041-0.51,6.07-0.64c-0.289,2.59,0.781,7.26-3.01,7.55
		C160.617,189.596,158.078,184.137,161.287,181.956z"/>
	<path fill="#F99215" d="M136.958,243.646c4.84-1.35,9.799,3.5,8.609,8.369c-0.721,4.99-7.371,7.601-11.221,4.33
		C129.748,253.026,131.238,244.746,136.958,243.646z"/>
	<path fill="#F99215" d="M92.628,248.016c3.5,2.811,6.939,5.971,8.75,10.19c2.75,6.24,3.738,13.24,3.18,20.011
		c-0.641,7.51-7.4,14.239-15.061,14.149c-6.15,0.069-10.609-7.59-7.811-12.95c2.35-2.97,6.381-3.689,9.471-5.67
		c4.141-2.119,5.9-7.1,5.471-11.52C96.148,257.286,94.078,252.706,92.628,248.016z"/>
	<path fill="#F99215" d="M131.007,261.566c2.65-1.01,5.99,0.779,6.131,3.73c0.41,3.409-3.82,5.799-6.621,3.969
		C127.478,267.797,127.828,262.616,131.007,261.566z"/>
	<path fill="#F99215" d="M42.968,283.717c3.41-0.811,7.3-0.381,10.101,1.869c4.959,3.631,5.799,11.49,2.109,16.28
		c-4.359,5.94-14.83,5.681-18.641-0.729C32.318,295.057,35.527,285.346,42.968,283.717z"/>
	<path fill="#F99215" d="M109.697,299.266c4.98-12.31,20.521-18.729,32.852-14.129c6.119,2.26,11.359,8.819,9.51,15.59
		c-1.41,4.68-6.01,9.619-11.32,8.39c-6.461-2.101-8.58-9.89-14.721-12.5c-3.57-1.54-7.49,0.5-9.959,3.09
		c-3.861,3.921-4.541,9.63-5.791,14.729C108.638,309.576,107.697,304.166,109.697,299.266z"/>
	<path fill="#F99215" d="M48.078,316.696c9.439-5.819,13.199-16.761,16.479-26.74c0.729,9.69-0.159,20.171-5.909,28.341
		c-3.99,5.649-10.871,7.83-16.32,11.689c-6.23,4.3-12.53,9.66-14.66,17.23c-1.439,4.529-2.061,9.879-6.08,13
		c-4.83,4.189-13.551,3.239-16.71-2.521c-2.24-5.681,0.39-12.41,5.12-16.011c4.99-4.229,11.71-4.959,17.49-7.59
		c3.18-1.359,4.64-4.67,6.229-7.51c-5.79-0.699-11.63-2.41-15.61-6.93C28.058,321.127,39.229,322.736,48.078,316.696z"/>
	<path fill="#F99215" d="M88.708,296.596c3.139-0.199,5.158,5.351,1.76,6.541c-2.75,2.49-6.701-1.891-4.711-4.58
		C86.328,297.446,87.488,296.727,88.708,296.596z"/>
	<path fill="#F99215" d="M121.037,299.637c3.65-2.121,8.98,0.359,9.191,4.709c0.939,4.601-4.16,8.73-8.471,6.871
		C116.837,309.606,116.298,301.807,121.037,299.637z"/>
	<path fill="#F99215" d="M30.058,308.536c2.88-1.92,7.13,0.29,7.14,3.761c0.33,3.149-3.31,5.479-6.14,4.369
		C27.748,315.576,27.248,310.316,30.058,308.536z"/>
	<path fill="#F99215" d="M9.808,323.637c4.74-0.69,8.101,6.02,4.421,9.299c-2.861,3.531-8.83,1.181-9.4-3.02
		C4.298,326.877,6.898,324.057,9.808,323.637z"/>
	<path fill="#F99215" d="M108.697,437.456c6.271-1.84,11.59-5.729,17.031-9.2c-4.07,10.76-14.18,17.67-24.6,21.5
		c-9.9,4.041-20.881,4.17-30.781,8.211c-8.879,3.39-16.73,8.959-23.679,15.379c-7.301,6.791-18.16,8.25-27.61,6.15
		c-5-1.04-9.87-3.939-12.2-8.619c-1.84-3.941-2.199-8.75-0.34-12.75c1.551-3.201,5.061-4.941,8.45-5.351
		c6.601-0.83,12.95,2.21,19.54,1.659c6.45-0.51,12.38-3.319,18.029-6.27c11.031-5.859,23.691-7.369,35.97-8.17
		C95.287,439.756,102.208,439.696,108.697,437.456z"/>
	<path fill="#F99215" d="M7.078,441.627c2.85-1.891,7.83-0.181,7.83,3.59c0.56,3.35-2.73,6.6-6.09,5.629
		C4.518,450.206,3.287,443.766,7.078,441.627z"/>
	<path fill="#AFD549" d="M61.428,44.026c5.609-2.58,12.439-1.49,17.58,1.68c4.85,2.94,2.66,12.28-3.209,12.021
		c-4.83-1.4-7.311-6.95-12.371-7.881c-3.65-0.17-7.02,1.541-10.38,2.711C55.357,49.316,57.668,45.727,61.428,44.026z"/>
	<path fill="#AFD549" d="M10.398,96.026c4.449,5.59,9.17,11.21,15.529,14.71c6.98,4.41,15.28,5.76,22.62,9.37
		c8.819,4.18,15.649,12.44,18.059,21.899c1.26,5.791,0.67,13.01-4.32,16.94c-5.42,3.899-13.149,1.38-17.35-3.19
		c-5.279-5.779-4-14.49-8.209-20.84c-3.591-5.83-10.671-7.869-15.021-12.949C15.357,114.746,12.037,105.387,10.398,96.026z"/>
	<path fill="#AFD549" d="M65.938,160.396c3.9-1.971,9.099,1.31,8.66,5.75c0.18,4.779-6.1,7.619-9.719,4.699
		C61.277,168.346,61.748,162.016,65.938,160.396z"/>
	<path fill="#AFD549" d="M157.437,224.047c4.34-6.49,13.941-5.42,19.541-1.281c5.35,4.201,5.539,11.931,4.139,18.031
		c-2.869,11.319-11.709,20.06-21.539,25.81c7.189,0.659,15.23,1.489,20.561,6.93c3.66,3.55,3.799,9.181,2.51,13.8
		c-1.18,4.16-3.631,8.48-7.881,10.08c-2.799,1.12-6.539,0.311-7.92-2.56c-2.311-4.931-1.859-10.71-4.379-15.57
		c-1.352-2.71-3.801-5.22-6.971-5.399c-3.711-0.061-7.189,1.41-10.68,2.439c-6.66,2.189-13.561,3.52-20.49,4.54
		c10.359-6.989,21.141-14.819,26.209-26.69C155.058,244.656,151.287,232.986,157.437,224.047z"/>
	<path fill="#AFD549" d="M179.777,250.566c1.881-0.58,3.771-1.141,5.67-1.7c-0.229,1.899-0.449,3.8-0.689,5.7
		C183.007,253.346,181.337,252.006,179.777,250.566z"/>
	<path fill="#AFD549" d="M176.048,256.637c3.529-1.381,7.76,1.629,7.33,5.479c0.318,4.511-5.721,6.95-8.971,4.16
		C171.087,263.786,171.968,257.797,176.048,256.637z"/>
	<path fill="#AFD549" d="M20.908,265.486c3.32-1.359,6.99,2.05,5.779,5.46c-0.779,3.36-5.49,4.05-7.65,1.64
		C16.857,270.456,18.068,266.336,20.908,265.486z"/>
	<path fill="#AFD549" d="M3.888,289.756c-2.239-5.879,1.38-13.479,7.82-14.47c11.069-1.55,22.26,10.021,19.079,21.12
		c-3.25,11.35-14.079,18.85-25.299,20.98c3.41-3.351,8.649-6.641,8.049-12.121C12.298,299.026,5.668,295.786,3.888,289.756z"/>
	<path fill="#AFD549" d="M150.947,277.536c3.711-1.319,7.531,2.49,6.191,6.21c-0.73,4.01-6.59,4.45-8.721,1.42
		C146.738,282.586,147.697,278.307,150.947,277.536z"/>
	<path fill="#AFD549" d="M158.658,291.616c1.359-0.59,2.52,1.16,3.49,1.94c1.09,2.97-3.41,6.109-5.26,3.189
		C154.728,295.096,156.537,292.206,158.658,291.616z"/>
	<path fill="#AFD549" d="M124.857,341.576c6.191-1.05,11.4,6.551,8.061,11.93c-2.43,4.9-9.76,5.68-13.141,1.36
		C115.357,350.416,118.777,342.156,124.857,341.576z"/>
	<path fill="#AFD549" d="M151.248,353.096c2.91,13.44,2.789,28.74-5.449,40.371c-4.25,6.449-11.951,9.289-16.621,15.34
		c-5.66,6.619-7.82,15.699-14.539,21.49c-7.121,6.439-17.92,7.779-26.771,4.479c-3.199-1.2-6.129-4.05-6.059-7.681
		c0.01-5.18,2.699-10.779,7.639-12.91c5.83-2.189,12.701-0.35,18.121-3.899c5.869-3.69,6.789-11.67,12.539-15.479
		c5.73-3.78,13.32-3.051,18.881-7.17c3.16-2.271,4.299-6.16,5.641-9.61c-4.25,3.069-8.631,6.42-14.012,7.069
		c-4.709,1.08-11.1,0.271-13.699,5.33c-1.9,2.32-2.881,6.49-6.41,6.641c-1.939,0.35-3.23-1.43-3.98-2.939
		c-1.93-4.551-0.5-10.49,3.74-13.25c4.57-3.041,10.32-2.641,15.531-3.49c7.229-0.91,14.398-4.15,19.029-9.931
		C148.187,363.316,149.558,358.047,151.248,353.096z"/>
	<path fill="#AFD549" d="M123.947,362.576c4.25-1.6,9.051,2.609,8,7.02c-0.738,4.201-6.229,6.471-9.639,3.811
		C118.277,370.826,119.158,363.696,123.947,362.576z"/>
	<path fill="#AFD549" d="M26.808,394.477c3.8-4.131,11.511-1.37,12.591,3.869c0.01,4.65-2.601,8.91-2.48,13.601
		c0.1,4.479,2.369,8.489,4.18,12.47c-6.609-3.18-13.46-7.449-16.23-14.609C23.048,404.877,22.828,398.426,26.808,394.477z"/>
	<path fill="#AFD549" d="M101.558,403.706c2.07,0.15,5.479-0.39,5.66,2.58c0.52,3.21-3.432,3.271-5.611,3.29
		C101.728,407.616,101.687,405.656,101.558,403.706z"/>
	<path fill="#F2504A" d="M7.408,50.047c3.06-4.041,8.879-4.531,13.399-3.08c2.851,0.92,4.62,4.189,3.78,7.08
		c-1.13,4.199-3.63,7.84-5.48,11.729c3.9-2.25,7.78-5.07,12.43-5.42c3.9-0.44,7.711,0.72,11.32,2.06
		c-6.369,1.52-13.8,1.45-18.81,6.27c-3.899,3.621-4.771,9.24-4.319,14.301c0.34,7.609,3.649,14.58,6.389,21.55
		C14.229,95.717,8.498,81.127,5.628,67.076C4.638,61.467,3.607,54.856,7.408,50.047z"/>
	<path fill="#F2504A" d="M68.718,116.047c3.318,9.039,3.818,18.879,2.43,28.359c-1.52-3.65-2.781-7.42-3.561-11.3
		c0.859,1.01,1.75,2.01,2.65,3C70.748,129.387,70.357,122.596,68.718,116.047z"/>
	<path fill="#F2504A" d="M179.978,157.576c4.219-1.63,9.17,2.551,7.9,6.971c-0.98,4.459-7.451,6.049-10.32,2.52
		C174.937,164.166,176.167,158.746,179.978,157.576z"/>
	<path fill="#F2504A" d="M174.177,172.896c5.061-1.45,11.07-0.04,14.48,4.119c3.959,4.711,4.75,11.24,4.209,17.181
		c-0.709,8.06-4.34,15.489-8.709,22.17c-0.82-7.01-1.08-14.56-5.26-20.56c-3.08-4.86-8.461-8.33-9.92-14.131
		C167.908,177.896,170.537,173.967,174.177,172.896z"/>
	<path fill="#F2504A" d="M4.348,230.186c0.33-5.949,6.6-9.719,12.12-9.639c7.19-0.031,16.24,2.899,18.25,10.67
		c1.49,7.02-1.58,14-5.54,19.64c-6.22,8.71-13.93,16.59-23.46,21.64c1.86-7.38,5.05-14.64,4.511-22.41
		C10.128,242.936,4.197,237.366,4.348,230.186z"/>
	<path fill="#F2504A" d="M96.847,240.786c-2.219-6.92,3.881-14.11,10.791-14.479c6.039-0.791,11.789,2.699,15.289,7.43
		c5.32,7.23,6.58,17.09,3.67,25.55c-3.969,12.271-13.32,21.78-23.049,29.8c4.199-8.869,8.33-18.939,4.93-28.8
		C106.767,252.566,99.318,248.076,96.847,240.786z"/>
	<path fill="#F2504A" d="M95.197,303.846c2.361-4.199,6.131-7.33,9.961-10.129c-2.189,6.949-5.141,13.979-4.32,21.43
		c0.301,6.25,4.42,12.699,10.881,13.89c5.09,1.06,11.35,1.591,15.5-2.19c3.68-3.77,1.539-9.859,4.068-14.08
		c3.07-1.109,7.15-0.199,8.531,3.031c3.17,7.539-1.711,16.92-9.33,19.42c-6.471,2.33-13.381,0.689-19.961-0.15
		c3.691,8.52,6.541,17.72,5.391,27.119c-0.76,6.75-2.619,13.9-7.49,18.9c-4.17,4.41-11.891,3.16-15.5-1.32
		c-2.061-3.029-1.449-7.129-0.141-10.34c3.141-6.959,10.102-12.27,10.422-20.399c0.789-6.45-3.48-11.71-6.762-16.761
		C90.968,323.977,89.937,312.486,95.197,303.846z"/>
	<path fill="#F2504A" d="M156.978,306.547c3.65-5.771,12.26-5.871,17.52-2.351c3.57,2.351,4.189,7.01,3.93,10.94
		c-0.27,7.699-5.039,14.39-10.59,19.359c-6.68,6.16-15.529,9.52-21.641,16.36c-4.809,4.739-7.318,11.13-8.959,17.56
		c-3.57-7.27-3.18-16.01,0.311-23.22c3.898-8.649,12.609-14.011,16.148-22.86C155.787,317.297,154.777,311.526,156.978,306.547z"/>
	<path fill="#F2504A" d="M73.968,303.666c3.279-0.88,7.139-0.02,9.309,2.73c3.34,3.92,2.291,10.67-2.209,13.26
		c-4.631,2.98-11.58,0.2-12.939-5.109C66.828,310.116,69.468,304.926,73.968,303.666z"/>
	<path fill="#F2504A" d="M145.958,312.576c3.158-1.199,6.898,1.82,6.09,5.17c-0.602,4.301-7.611,4.689-8.92,0.7
		C142.107,316.127,143.517,313.227,145.958,312.576z"/>
	<path fill="#F2504A" d="M116.578,314.426c2.289-0.039,4.58-0.01,6.869,0.07c-0.398,2.37-0.26,6.77-3.799,6.36
		C116.357,320.666,116.998,316.696,116.578,314.426z"/>
	<path fill="#F2504A" d="M60.947,319.576c3.57-1.27,7.96,1.53,7.441,5.52c0.32,4.61-5.781,7.521-9.15,4.351
		C55.607,326.906,56.428,320.547,60.947,319.576z"/>
	<path fill="#F2504A" d="M110.337,325.456c0.359-2.69,2.279-4.329,4.91-4.771c0.051,1.781,0.131,3.561,0.211,5.341
		C113.738,325.846,112.027,325.656,110.337,325.456z"/>
	<path fill="#F2504A" d="M71.267,322.106c5.73,7.81,10.98,16.96,10.031,27.021c-0.521,12.43-16.09,19.829-26.781,14.979
		c-6.68-3.101-9.449-12.14-5.42-18.36c4.141-6.8,13.66-6.47,18.41-12.6C69.927,329.977,70.388,325.877,71.267,322.106z"/>
	<path fill="#F2504A" d="M49.888,331.566c1.61-2.62,4.54-1.391,6.79-0.551c-0.949,1.83-1.82,3.701-2.609,5.611
		C52.348,335.266,49.258,334.336,49.888,331.566z"/>
	<path fill="#F2504A" d="M41.197,335.846c2.24-1.09,4.801-0.5,7.19-0.51c-0.12,2.051-0.069,4.131-0.55,6.15
		c-1.609,2.47-6.12,2.09-7.17-0.74C39.798,339.156,40.398,337.307,41.197,335.846z"/>
	<path fill="#F2504A" d="M130.548,341.877c0.43-2.24-0.191-6.291,3.039-6.461c3.57-0.27,3.48,3.95,3.871,6.4
		C135.148,341.887,132.847,341.896,130.548,341.877z"/>
	<path fill="#F2504A" d="M30.787,375.446c1.311-1.95,3.951-2.011,5.98-2.7c-0.109,2.1,0.52,4.811-1.55,6.2
		C33.088,379.256,30.638,377.786,30.787,375.446z"/>
	<path fill="#F2504A" d="M41.818,377.727c4.27-0.67,9.029,2.85,8.549,7.43c0.611,5.74-6.629,9.7-11.25,6.45
		C33.378,388.486,35.168,378.387,41.818,377.727z"/>
	<path fill="#F2504A" d="M9.578,397.506c2.119,2.051,4.31,4.121,5.76,6.73c2.891,4.88,3.92,10.9,8.141,14.93
		c4.01,3.99,9.67,5.27,14.68,7.49c2.16,0.91,4.25,2.54,4.709,4.98c0.871,4.51,0.33,9.619-2.529,13.359
		c-1.96,2.6-5.48,3.18-8.52,2.74c-8.881-1.21-16.771-7.359-20.291-15.58C6.558,421.256,9.229,408.996,9.578,397.506z"/>
	<path fill="#08B0E9" d="M80.478,64.006c-1.25-4.209,1.32-9.74,6.059-10.1c6.951-0.35,14.102,4.3,16.102,11.08
		c1.859,7.01-0.531,15.43-6.83,19.439c-5.211,3.33-11.66,2.851-17.561,3.33c3.859,1.75,7.93,3.371,12.26,3.221
		c6.621,0.24,14.07-1.92,19.93,2.25c7.65,4.729,11.041,16.02,5.76,23.65c-4.5,6.109-12.84,6.319-19.729,6.149
		c-10.021,0.2-19.631-5.511-24.861-13.95c-3.709-5.99-6.179-12.76-10.779-18.189c-4.41-5.73-10.94-10.42-18.42-10.44
		c-6.131-0.319-11.291,3.41-16.271,6.431c1.75-6.311,5.16-12.811,11.56-15.4c8.601-3.87,18.19-0.551,26.16,3.32
		c5.33,2.549,11.39,5.02,17.351,3.25c2.619-0.761,5.879-2.601,5.689-5.74C85.048,69.316,81.958,67.236,80.478,64.006z"/>
	<path fill="#08B0E9" d="M113.718,57.406c4.889-3.32,11.18-3.08,16.809-2.49c10.01,1.12,19,8.09,22.75,17.41
		c3.791,9.12,3.01,19.25,1.99,28.83c-0.389,6.46-0.939,13.35,1.791,19.4c1.07,2.58,4.07,4.06,6.75,3.09
		c2.449-2.41,3.58-5.881,6.219-8.131c4.15-1.379,7.521,2.641,8.971,6.051c3.17,8.29,0.16,18.68-6.98,23.97
		c-5.92,3.399-13.539,0.8-17.859-4.04c-5.689-5.34-7.34-13.25-8.541-20.63c-3.029,9.13-3.43,19.19-0.029,28.28
		c1.51,4.68,4.59,8.939,4.77,13.98c0.17,2.529-1.09,5.26-3.559,6.18c-4.451,1.539-10.271,0.81-13.031-3.391
		c-3.359-4.85-3.52-11.08-3.469-16.77c0.369-10.95,3.58-21.561,7.77-31.6c2.641-6.141,4.049-13.061,2.48-19.67
		c-1.682-6.451-7.111-11.441-13.381-13.381c-5.34-1.93-11.699-1.88-16.02-5.98C105.507,72.646,106.978,61.846,113.718,57.406z"/>
	<path fill="#08B0E9" d="M53.008,57.566c2.18-0.71,5-0.2,6.01,2.1c0.641,2.54-1.369,5.98-4.289,5.18
		C50.947,64.536,49.617,59.526,53.008,57.566z"/>
	<path fill="#08B0E9" d="M68.037,61.627c3.971-2.271,9.682,0.85,9.24,5.6c0.66,4.869-5.35,7.949-9.309,5.64
		C63.658,70.776,63.729,63.676,68.037,61.627z"/>
	<path fill="#08B0E9" d="M105.087,80.627c2.76-1.801,7.381,0.059,7.211,3.629c0.648,3.771-4.102,6.41-7.141,4.371
		C102.068,87.127,102.158,82.227,105.087,80.627z"/>
	<path fill="#08B0E9" d="M79.908,123.686c3.77-0.859,8.109,2.301,7.43,6.391c0.291,4.21-4.42,6.91-8.109,5.38
		C74.097,133.656,74.568,124.887,79.908,123.686z"/>
	<path fill="#08B0E9" d="M112.068,128.846c0.141-2.119,0.18-5.91,3.32-5.369c2.689,0.15,2.34,3.479,2.57,5.39
		C115.988,128.866,114.017,128.856,112.068,128.846z"/>
	<path fill="#08B0E9" d="M97.937,125.547c5.471-2.301,12.031,2.629,11.291,8.529c0.09,5.88-6.77,9.49-11.881,7.21
		C90.617,138.816,91.068,127.576,97.937,125.547z"/>
	<path fill="#08B0E9" d="M148.408,145.036c2.369,0.41,6.279-0.739,7.16,2.36c1.279,2.82-2.02,6.26-4.881,4.93
		C147.357,151.807,148.857,147.406,148.408,145.036z"/>
	<path fill="#08B0E9" d="M70.517,178.266c6.031-1.889,12.621,0.631,17.121,4.75c5.859,5.311,8.16,13.461,8.379,21.141
		c0.18,7.45-3.709,14.471-9.199,19.3c-5.24,4.69-11.92,7.16-18.27,9.88c4.93,1.86,10.119,4.021,13.26,8.5
		c6.199,7.58,6.689,18.44,3.75,27.44c-4.211,12.47-20.66,18.13-31.9,11.67c-5.601-3.261-8.45-11.53-4.32-16.99
		c3.05-4.1,8.529-4.37,13.15-4.96c2.17-0.41,5.14-0.369,6.199-2.73c1.75-4.399-0.35-9.6-3.839-12.52
		c-3.14-2.63-7.59-2.72-11.38-1.779c-6.431,1.68-11.86,6.16-15.521,11.609c-3.43,5.061-5.289,10.939-7.25,16.68
		c-0.359-12.52,2.351-25.67,10.391-35.58c3.26-4.17,8-6.68,12.141-9.83c7.139-5.459,10.539-14.899,9.579-23.709
		c-0.319-4.601-2.04-9.061-1.76-13.701C61.518,182.547,66.148,179.456,70.517,178.266z"/>
	<path fill="#08B0E9" d="M147.597,187.227c8.781,1.209,17.68,4.41,23.9,10.949c3.471,3.521,4.58,8.83,3.51,13.561
		c-0.43,1.92-2.039,3.47-3.959,3.85c-4.49,0.94-9.961-0.31-12.4-4.5c-1.84-3.49-1.871-7.55-2.98-11.27
		C154.328,194.887,150.658,191.146,147.597,187.227z"/>
	<path fill="#08B0E9" d="M50.367,211.576c1.83-0.85,3.681-1.641,5.541-2.43c-0.01,1.869,0.109,3.75,0.39,5.609
		c-1.46,0.061-2.91,0.18-4.37,0.26C51.388,213.877,50.867,212.736,50.367,211.576z"/>
	<path fill="#08B0E9" d="M40.898,217.606c3.639-0.94,7.35,2.579,6.35,6.29c-0.35,5.24-8.95,5.56-10.26,0.74
		C35.918,221.686,37.798,218.217,40.898,217.606z"/>
	<path fill="#08B0E9" d="M85.017,228.536c4.09-2.12,9.25,1.88,8.25,6.38c-0.1,5.45-8.51,6.91-11,2.44
		C80.857,234.336,81.498,229.766,85.017,228.536z"/>
	<path fill="#08B0E9" d="M53.048,245.656c3.681-1.49,8.78,1.141,8.26,5.5c0.58,4.92-6.021,7.57-9.55,4.721
		C48.588,253.256,49.107,247.276,53.048,245.656z"/>
	<path fill="#08B0E9" d="M38.947,261.456c1.711-0.5,3.82-0.13,4.801,1.511c1.789,2.76-1.45,6.939-4.58,5.56
		C36.008,267.656,35.708,262.346,38.947,261.456z"/>
	<path fill="#08B0E9" d="M72.037,287.696c3.691-1.41,8.762,1.11,8.371,5.46c0.459,4.33-4.609,7.641-8.43,5.689
		C67.357,297.146,67.367,289.297,72.037,287.696z"/>
	<path fill="#08B0E9" d="M81.728,326.106c6.41,7.56,12.189,16.75,11.41,27.09c0.17,8.351-7.57,13.569-9.531,21.21
		c-1.199,3.689-0.039,8.12,2.941,10.63c3.439,1.66,7.488,1,11.049,2.28c2.98,1.79,4.1,5.561,4.381,8.84
		c0.5,6.07-4.74,11.23-10.48,12.141c-4.619,1.09-9.689-0.881-12.27-4.861c-5.59-7.67-5.08-17.549-6.131-26.52
		c-2.029,4.141-3.85,8.52-3.92,13.2c-0.311,11.069,4.83,21.12,9.451,30.83c1.238,3.2,0.879,7.17-1.682,9.64
		c-7.869,7.6-22.91,6.471-28.399-3.459c-4.819-9.271-4.2-20.65-0.261-30.141c3.011-7.32,8.051-13.53,13.201-19.45
		c-4.391,0.05-8.881,0.08-13.07-1.399c-4.32-1.381-8.07-4.11-12.43-5.391c-2.451-0.74-5.59-0.51-7.08,1.86
		c-0.541,5.19,2.82,10.81-0.28,15.62c-2.97,5.279-9.96,7.49-15.53,5.3c-5.14-1.8-9.14-6.83-9.07-12.37
		c-0.279-4.09,1.94-7.92,5.11-10.359c6.41-5.291,14.83-6.82,22.771-8.281c-0.061-3.069-0.2-6.159,0.16-9.209
		c0.34-3.25,2.58-5.791,4.42-8.34c0.859,4.459,1.47,9.209,4.24,12.979c3.479,4.79,8.619,8.66,14.579,9.58
		c8.431,1.34,17.241-0.69,24.52-5.08c5.221-3.12,8.24-9.24,8-15.261C87.488,339.776,84.367,332.916,81.728,326.106z"/>
	<path fill="#08B0E9" d="M77.738,409.356c1.16,0.01,2.32,0.03,3.5,0.05c0,1.17,0.01,2.35,0.039,3.529
		c-1.119-0.09-2.219-0.159-3.33-0.209C77.888,411.596,77.818,410.477,77.738,409.356z"/>
	<path fill="#08B0E9" d="M48.848,435.536c1.62,0.22,3.16,0.79,4.74,1.22c-0.53,1.601-1.061,3.211-1.58,4.82
		c-1.891-0.72-3.82-1.4-5.43-2.641C47.068,437.656,47.738,436.387,48.848,435.536z"/>
</g>
</svg>
