<?xml version="1.0" encoding="utf-8"?>
<!-- Generator: Adobe Illustrator 16.0.0, SVG Export Plug-In . SVG Version: 6.00 Build 0)  -->
<!DOCTYPE svg PUBLIC "-//W3C//DTD SVG 1.1//EN" "http://www.w3.org/Graphics/SVG/1.1/DTD/svg11.dtd">
<svg version="1.1" id="Layer_1" xmlns="http://www.w3.org/2000/svg" xmlns:xlink="http://www.w3.org/1999/xlink" x="0px" y="0px"
	 width="200.131px" height="487.927px" viewBox="0 0 200.131 487.927" enable-background="new 0 0 200.131 487.927"
	 xml:space="preserve">
<g>
	<path fill="#383837" d="M136.082,0.246c10.67-0.8,21.719,0.26,31.649,4.45c5.479,2.39,10.59,6.31,13.17,11.85
		c2.54,5.62,2.42,12.17,5.63,17.53c2.43,4.039,7.439,5.14,10.68,8.31c1.681,2.11,2.07,4.89,2.461,7.47
		c0.74,6.631,0.319,13.32,0.379,19.98c-0.01,125,0,250,0,375c-0.06,6.63,0.431,13.3-0.469,19.9c-1.051,7.66-5.57,14.82-12.221,18.84
		c-4.43,2.73-9.689,3.57-14.779,4.05c-11.041,0.931-22.531-0.181-32.631-5.011c-5.9-2.789-10.75-7.25-16.09-10.92
		c-8.73-5.979-18.29-11.069-28.74-13.229c-9.22-1.899-18.35-5.31-25.6-11.46c-5.21-4.5-9.221-10.67-10.311-17.54
		c-1.189-7.739,0.381-15.78-1.879-23.37c-1.16-4-4.19-6.99-6.9-9.98c-5.45-5.75-9.41-12.869-11.6-20.459
		c-1.971-6.76-0.42-13.98-2.371-20.721c-1.52-4.779-6.34-7.07-10.1-9.85c-8.63-5.88-13.21-16.18-14.58-26.26
		c-1.4-9.18,1.37-18.631-1.34-27.66c-3.12-10.34-6.32-21.04-5.33-31.971c0.48-5.289,3.62-9.739,5.25-14.68
		c1.41-4-0.18-8.16-1.33-12.01c-2.17-6.54-3.811-13.48-2.811-20.4c0.371-4.02,1.851-8.24,0.23-12.17
		c-2.039-5.05-4.72-9.91-5.609-15.35c-2.19-10.2-0.2-21.721,7.1-29.49c4.061-4.48,9.7-8.68,10-15.26
		c-0.01-7.311-4.27-14.42-1.99-21.76c1.131-4.67,5.25-7.62,9.301-9.68c2.479-1.57,5.979-2.761,6.649-5.99
		c1.19-6.35,0.87-13,3.2-19.12c6.04-18.45,21.48-32.521,39.061-39.95c5.059-2.38,11.09-3.73,14.699-8.32
		c3.311-5.539,2.59-12.859,7.17-17.779C105.991,5.876,121.651,2.006,136.082,0.246z M138.691,14.296c-4.99,0.07-10-0.41-14.98,0.021
		c-3.99,0.319-7.02,3.229-10.149,5.42c-3.55,2.779-7.511,5.05-10.83,8.119c-1.74,1.44-1.5,3.881-1.63,5.9
		c-0.04,10.63,0.38,21.26-0.15,31.891c-3.32,2.1-6.56,4.31-9.81,6.51c-0.101,4.06,0.409,8.27-0.79,12.209
		c-4.439,4.461-10.33,7.101-15.36,10.83c-4.94,3.681-10.79,6.23-15.1,10.681c-1.49,4.431-0.8,9.351-0.71,13.97
		c-0.17,3.41,3.039,5.29,5.38,7.131c11.2,8.069,22.14,16.51,33.28,24.659c3.34,2.729,8.66,4.99,8.26,10.12
		c0.21,8.35-0.189,16.721,0.05,25.07c-0.08,3.859,0.45,7.859-0.7,11.609c-3.8,4.93-10.41,6.86-13.949,12.01
		c-0.98,4.051-0.351,8.271-0.431,12.391c0.32,8.08-2.39,15.92-2,24.01c1.97-0.38,4.58,0.301,6-1.47
		c0.21-6.229-1.94-12.28-1.87-18.521c0.03-5.209-0.66-10.569,0.65-15.66c3.73-5.01,10.369-6.909,13.98-12.01
		c1.1-5.369,0.279-10.92,0.439-16.359c-0.16-7.66,0.27-15.34,0-23c0.24-3.461-3.03-5.34-5.38-7.17
		c-11.44-8.17-22.41-16.98-33.88-25.1c-2.471-1.861-5.291-3.48-7.041-6.101c-1.189-4.06-0.959-8.431-0.449-12.58
		c0.22-2.41,2.55-3.67,4.26-5.021c9.12-6.119,18.4-12.01,27.391-18.35c-0.03-4.15,0.129-8.3,0.299-12.449
		c3.32-2.08,6.551-4.311,9.791-6.531c0.09-4.069-0.41-8.289,0.779-12.239c2.99-3.49,7.16-5.671,10.891-8.271
		c4.65-3.27,10.199-4.92,14.85-8.15c2.01-1.279,1.35-4.029,1.76-6.02c-3.57,0.34-6.83,1.961-9.18,4.67
		c-5.41,5.87-12.04,10.37-18.811,14.521c-0.17-6.08-0.56-12.171-0.139-18.25c-0.131-3.64,3.5-5.39,5.959-7.33
		c4.24-2.729,7.94-6.399,12.6-8.431c5.131-1.26,10.49-0.51,15.711-0.67c7.93-0.239,15.65,1.891,23.55,2.08
		c-0.05-2.069-0.021-4.14,0.08-6.209C153.691,12.096,146.3,14.446,138.691,14.296z M162.97,23.126
		c-5.079,5.44-11.579,9.149-17.629,13.38c-8.101,5.58-16.28,11.051-24.471,16.49c-1.88,1.359-3.959,2.6-5.31,4.54
		c-0.96,4.021-0.42,8.21-0.49,12.3c0.25,8.66-0.271,17.33,0.091,25.99c-0.171,2.59,2.079,4.18,3.869,5.619
		c5.301,4.041,10.79,7.841,15.891,12.141c3.279,2.721,5.729,6.27,8.879,9.12c1.861,1.83,4.641,1.71,7.031,2.14
		c-0.631-2.21-0.511-5.06-2.701-6.41c-3.989-2.84-8.699-4.459-12.67-7.33c-4.449-3.18-8.66-6.68-13.109-9.869
		c-2.04-1.721-4.87-3.371-4.939-6.36c-0.5-6,0.01-12.03-0.111-18.04c0.101-5.641-0.459-11.32,0.221-16.939
		c0.12-2.201,2.27-3.301,3.79-4.521c11.86-7.729,23.39-15.979,35.22-23.771c5.58-3.5,11.73-5.979,17.41-9.33
		c-0.58-1.39-1.17-2.779-1.9-4.09C168.171,17.246,165.491,20.846,162.97,23.126z M139.291,21.396c-3.68,1.709-3.22,7.91,0.471,9.41
		c3.55,1.979,7.75-2.101,6.789-5.811C146.501,21.376,142.13,20.216,139.291,21.396z M165.791,39.445c0.09,1.41,0.18,2.82,0.28,4.23
		c8.53,5.301,18.601,8.77,25.29,16.57c1.27,4.449,0.48,9.18,0.391,13.73c-6-3.521-11.83-7.48-16.48-12.711
		c-2.5-2.359-5.17-6.06-9.1-5.09c-1.36,0.92-1.32,2.66-0.951,4.07c2.32,2.52,5.601,3.811,8.591,5.33
		c5.09,2.369,9.88,5.35,14.351,8.73c1.789,1.369,3.709,3.039,3.76,5.489c0.33,3.97,0.819,8.88-2.58,11.75
		c-4.15,3.92-8.76,7.34-12.98,11.19c-8.561-5.871-16.74-12.28-25.061-18.49c-5.59-3.971-8.799-11.721-16.33-12.41
		c0.301,2.279-0.67,5.46,1.891,6.73c4.859,3.279,10.5,5.27,15.17,8.859c9.93,7.41,19.76,14.98,29.84,22.189
		c1.85,1.431,3.881,2.791,5.19,4.771c1.479,5,0.67,10.31,0.81,15.45c-0.02,49.67-0.029,99.33,0,148.99
		c-0.14,5.14,0.68,10.46-0.82,15.449c-2.449,3.511-6.289,5.701-9.539,8.4c-5.91,4.41-11.18,9.75-17.76,13.2
		c-2.971,1.66-6.19,3-8.711,5.34c-1.67,1.14-0.92,3.341-0.68,4.99c1.4,0.21,3.04,0.54,4.26-0.44c4.041-2.91,6.85-7.16,10.59-10.41
		c6.971-6.08,14.601-11.379,21.631-17.399c1.89-1.44,2.8-3.69,2.68-6.05c-0.051-58.381-0.051-116.78,0.01-175.16
		c-0.1-1.78-0.109-3.86-1.67-5.051c-3.04-2.779-6.51-5.029-9.67-7.649c4.27-3.989,9.02-7.44,13.2-11.53
		c2.979-2.689,2.44-7.06,2.579-10.68c-0.219-6.689,0.25-13.391-0.209-20.07c0.02-4.65-4.801-6.6-7.9-9.08
		c-5.26-3.31-9.09-8.27-13.73-12.3C170.46,38.586,167.921,39.296,165.791,39.445z M153.46,41.716c-4.399,2.79-7.47,7.2-11.779,10.12
		c-5.76,3.971-11.75,7.6-17.551,11.5c-0.119,5.49-0.56,11-0.09,16.48c-0.029,2.31,1.9,3.789,3.53,5.09
		c10.511,7.81,20.931,15.75,31.36,23.66c5.08,3.64,8.31,9.51,13.92,12.399c2.43,1.011,3.73-1.8,3.54-3.819
		c-2.69-3.16-6.65-4.761-10.2-6.721c-5.8-2.96-10.71-7.279-15.891-11.15c-6.59-5.1-13.27-10.08-19.979-15.01
		c-1.739-1.51-4.13-2.97-4.28-5.52c-0.42-4.439-0.629-9.02,0.291-13.4c1.33-1.98,3.489-3.18,5.42-4.49
		c5.609-3.459,10.989-7.399,17.129-9.92c3.051-1.459,6.461-2.58,8.83-5.1C159.88,43.477,155.841,39.846,153.46,41.716z
		 M80.701,55.796c-4.77,3.16-8.26,7.89-13.06,11.021c-8.16,5.529-16.25,11.16-24.521,16.529c-0.39,19.16,0.08,38.33-0.229,57.49
		c0.04,2.8-0.2,5.68,0.579,8.4c1.371,2.189,3.611,3.629,5.611,5.199c4.229,3.07,8.34,6.28,12.399,9.58c2.46,1.87,5,4.1,8.239,4.301
		c5.07,0.379,10.16,0.069,15.24,0.189c0.11,5.09,0.61,10.21-0.049,15.28c-0.171,2.18-2.24,3.34-3.75,4.59
		c-5.91,4.12-12.031,7.931-17.971,12.01c-1.359,1.13-3.221,2.101-3.73,3.921c-0.709,4.469-0.229,9.029-0.289,13.529
		c-0.07,9.359,0.209,18.721,0.01,28.07c0.18,5.58-6.52,7.109-8.67,11.51c-0.811,3.74-0.4,7.609-0.5,11.42
		c0.09,3.43-0.291,6.96,0.58,10.32c1.76,2.779,4.72,4.47,7.24,6.5c5.609,4.02,10.77,8.63,16.369,12.67
		c3.58,2.699,8.32,2.439,12.561,2.189c4.08-0.13,7.08-3.199,10.1-5.55c5.2-4.45,11.58-7.08,17.49-10.399
		c0.01-1.721,0.01-3.44,0.02-5.15c-2.4,0.141-5.02,0.37-6.729,2.3c-5.49,5.2-10.36,11.24-16.94,15.149
		c-3.02,1.791-6.699,1.73-10.09,1.461c-4.189-0.35-7.34-3.42-10.51-5.86c-4.54-3.81-9.36-7.28-14.03-10.93
		c-1.46-1.32-3.38-2.61-3.54-4.75c-0.59-5.32-0.43-10.7-0.189-16.04c0.029-5.16,6.039-6.75,8.5-10.58
		c0.76-2.35,0.55-4.88,0.609-7.311c-0.199-10-0.01-20.01-0.199-30.01c0.029-2.6-0.101-5.25,0.569-7.77c1.03-1.68,2.7-2.79,4.25-3.94
		c5.729-3.96,11.601-7.729,17.351-11.659c1.569-1.25,3.72-2.5,3.76-4.761c0.529-6.13,0.01-12.3,0.029-18.45
		c-5.529-0.109-11.069,0.26-16.59-0.119c-4.17-0.261-7.199-3.49-10.33-5.871c-4.33-3.729-9.25-6.699-13.5-10.5
		c-2.119-1.619-1.76-4.51-1.91-6.859c0.17-17.721,0.141-35.439,0.011-53.16c0.2-1.84-0.21-4.12,1.329-5.49
		c2.58-2.51,5.771-4.229,8.74-6.22c8.03-5.05,15.381-11.31,24.311-14.771c3.59-1.299,6.57-3.819,8.01-7.42
		C85.141,55.615,82.671,54.436,80.701,55.796z M151.22,63.166c-4.6,1.92-2.85,10.33,2.41,9.49c4.131,0.369,6.11-4.76,4.19-7.91
		C156.38,62.716,153.421,62.156,151.22,63.166z M73.13,78.275c-5.76,5.5-13.27,8.601-19.42,13.57c-2.22,1.57-1.649,4.57-1.84,6.92
		c0.131,12.37,0.17,24.73,0,37.1c0.051,2.441-0.119,4.971,0.62,7.341c2.729,3.569,6.88,5.67,10.29,8.51
		c3.7,2.58,7.09,6.45,11.9,6.67c6.42,0.29,12.85-0.14,19.27,0.15c0.221,7.771,0.1,15.54,0.221,23.31
		c-0.061,2.53,0.109,5.16-0.69,7.6c-1.521,1.931-3.64,3.24-5.64,4.611c-5.041,3.27-10.01,6.629-15.03,9.939
		c-1.91,1.34-3.97,2.609-5.399,4.51c-0.65,2.02-0.57,4.18-0.631,6.28c0.15,16.03,0.16,32.069,0,48.11c0.16,2.42-0.29,5.33,1.7,7.16
		c3.479,3.51,7.95,6.649,13.13,6.479c5.15-0.08,11.03,0.979,15.471-2.3c5.449-3.83,10.109-8.69,15.729-12.301
		c2.61-1.729,5.86-1.6,8.86-1.67c8.689,0.09,17.47-0.39,26.02,1.49c2.83,0.25,6.74,1.6,8.641-1.33c0.319-1.55-0.221-3.92-2.08-4.07
		c-6.25-0.609-12.291,1.84-18.531,1.83c-11.01,0.15-22.02-0.16-33.029,0.08c-3.59-0.029-7.26,0.28-10.79-0.56
		c-3.46-1.21-6.28-3.7-9.12-5.931c-1.79-1.629-4.15-3.26-4.3-5.91c-0.521-5.659-0.351-11.379,0.08-17.039
		c0.38-5.17,2.319-10.28,1.521-15.49c-0.621-2.83-4.99-2.76-5.65,0.02c-0.5,3.91,0.73,7.771,1.189,11.621
		c1.19,7.219,0.09,14.549,0.58,21.81c0.04,3.329,3.391,5,5.57,6.96c3.689,2.55,7.04,6.5,11.859,6.6
		c5.541,0.2,11.09-0.13,16.631,0.301c-4.37,3.91-8.87,7.689-13.57,11.189c-3.96,3.189-9.33,2.609-14.07,2.54
		c-5.05,0.069-9.859-2.55-12.979-6.431c-1.29-2.09-1.06-4.709-1.21-7.069c0.08-13.681,0.17-27.36,0-41.04
		c0.14-3.38-0.44-7.08,1.109-10.189c2.711-3.051,6.43-4.931,9.711-7.291c5.029-3.649,10.549-6.64,15.369-10.59
		c2.1-1.619,1.541-4.55,1.73-6.859c-0.17-9.521-0.01-19.051-0.18-28.57c-5.5-0.15-11-0.08-16.49-0.01
		c-3.01-0.051-6.26,0.109-8.91-1.54c-3.48-2.091-6.53-4.8-9.84-7.14c-2.221-1.73-4.721-3.25-6.391-5.57
		c-0.91-2.631-0.64-5.49-0.709-8.221c0.25-13.24-0.051-26.479,0.17-39.72c5.479-3.51,10.789-7.29,16.41-10.579
		c4.309-2.57,9.25-3.9,13.449-6.671c2.24-1.21,1.439-4.079,1.74-6.149C80.332,70.996,76.621,74.796,73.13,78.275z M104.181,74.066
		c-0.11,4.02,0.939,7.939,1.449,11.899c1.15,7.91-0.01,15.92,0.5,23.86c-0.119,3.14,2.871,4.83,4.98,6.58
		c7.891,5.75,15.66,11.65,23.391,17.619c3.39,2.83,7.949,3.16,12.18,3.101c10.67-0.12,21.33-0.13,32-0.09
		c0.38,8.6,0.17,17.2,0.199,25.8c0.031,35-0.029,70,0.021,105c-0.04,4.641,0.38,9.311-0.28,13.93c-0.199,2.35-2.47,3.61-4.119,4.961
		c-19.351,13.25-38.391,26.959-57.74,40.219c-2.34,1.791-5.7,3.48-5.641,6.891c-0.3,3.279-0.32,6.6,0.09,9.88
		c0.121,2.521,2.461,3.931,4.24,5.31c7.35,4.99,14.59,10.121,21.98,15.051c2.289,1.699,5.34,3.46,5.279,6.73
		c0.681,10.649-0.35,21.359,0.24,32.02c-0.05,2.89,2.69,4.449,4.66,6.06c6,4.28,11.801,8.841,17.66,13.33
		c6.38,4.931,13.21,9.38,18.75,15.3c2.279,2.061,4.41,4.84,7.6,5.42c2.36-0.199,2.59-2.879,3.36-4.6
		c-6.34-3.58-13.3-6.109-19.04-10.68c-8.66-6.711-17.279-13.471-26.16-19.881c-2.24-1.799-5.21-3.649-5.16-6.89
		c-0.619-10.659,0.381-21.35-0.209-32.01c0.049-2.63-2.381-4.101-4.211-5.511c-7.289-5.02-14.58-10.059-21.91-15.029
		c-2.18-1.65-5.05-3.34-5-6.439c-0.289-4.211-0.979-9.73,3.36-12.16c19.89-13.721,39.521-27.82,59.46-41.471
		c1.84-1.439,4.28-2.88,4.439-5.479c0.67-4.95,0.281-9.97,0.24-14.95c-0.76-18.33,0.28-36.67,0.061-55
		c-0.641-25.91-0.141-51.84-0.34-77.76c-11.971-0.11-23.93,0.05-35.891,0.039c-3.57,0.131-6.949-1.229-9.68-3.469
		c-7.15-5.551-14.34-11.031-21.689-16.311c-2.09-1.71-4.951-3.391-4.871-6.46c-0.39-6.351-0.199-12.729-0.039-19.08
		c0.109-5.55,2.189-10.931,1.77-16.489C109.47,70.126,103.63,70.926,104.181,74.066z M163.291,72.376
		c-4.369,1.88-2.85,10.25,2.4,9.38c4.641,0.66,6.391-5.609,3.65-8.561C167.741,71.716,165.251,71.727,163.291,72.376z
		 M176.111,80.386c-3.43,0.72-5.4,5.32-3.17,8.16c2.09,3.021,7.221,2.681,8.85-0.63C183.861,84.307,180.13,79.416,176.111,80.386z
		 M82.071,111.396c5.38,4.569,12.53,6.459,17.91,11.109c16.649,12.74,33.67,24.99,50.31,37.75c6.391,5.35,15.24,2.67,22.82,3.21
		c0.141-7.11,2.66-14.06,2.02-21.17c-0.56-3.19-5.859-2.479-5.789,0.72c0.07,6.08,1.869,12.01,1.949,18.11
		c-4.84,0.14-9.74,0.67-14.55-0.12c-3.86-1.02-6.79-3.93-9.96-6.21c-13.35-9.979-26.73-19.931-40.09-29.91
		c-4.74-3.579-9.75-6.87-13.83-11.229c-2.48-2.471-4.68-5.35-7.77-7.1C82.412,105.096,79.541,109.586,82.071,111.396z
		 M68.251,110.316c-2.801,1.76-3.101,6.43-0.5,8.479c3.189,2.25,8.609,0.229,8.59-3.96
		C76.431,110.756,71.611,108.855,68.251,110.316z M29.451,114.525c-1.02,3.67-0.039,7.5,0.52,11.17
		c1.681,8.281,0.921,16.771,1.15,25.15c-0.209,2.86,0.49,6.41-1.93,8.53c-4.52,4.271-10.12,7.16-14.811,11.21
		c-1.01,0.9-2.09,1.95-2.129,3.41c-0.511,4.59-0.42,9.23-0.131,13.84c0.16,5.55,6.461,8.01,7.84,13.04
		c1.371,12.489-0.709,24.94-1.43,37.38c1.68-0.1,3.381-0.16,5.061-0.391c1.689-4.379,0.14-9.09-0.471-13.539
		c-1.39-7.45-0.359-15.051-0.709-22.57c0.139-4.189-3.701-6.66-5.98-9.65c-2.87-3.01-2.211-7.49-2.36-11.289
		c0.24-2.881-0.351-6.42,2.04-8.551c4.85-4.58,11.04-7.49,15.76-12.209c1.17-1.051,1.211-2.721,1.34-4.171
		c0.391-10.159-0.859-20.409,0.75-30.51c0.471-3.94,1.461-8.08,0.041-11.931C32.412,113.105,30.47,112.966,29.451,114.525z
		 M84.8,121.906c0.511,1.949,0.041,4.55,1.881,5.89c4.3,3.261,9.56,4.931,13.9,8.13c4.039,3.25,9.149,5.7,11.959,10.15
		c1.381,9.5-0.24,19.18,0.53,28.73c0.03,2.819,2.66,4.43,4.57,6.069c9.14,6.8,17.88,14.14,27.06,20.92
		c1.83,1.45,3.83,2.83,5.15,4.81c0.91,2.621,0.619,5.48,0.71,8.211c-0.13,5.319,0.229,10.649-0.2,15.959
		c-0.279,3.791-3.88,5.971-6.29,8.471c-3.67,3.02-7.03,7.66-12.31,7.39c-7.75,0.171-15.51-0.13-23.271-0.01
		c-0.329-7.99-0.75-16.09,0.8-23.99c0.371-3.26,1.521-6.7,0.44-9.92c-1.2-2.29-4.771-1.8-5.39,0.66c-0.65,3.97,0.57,7.92,1.09,11.83
		c1.21,7.69,0.49,15.51,0.67,23.26c8.89,0.181,17.79,0.261,26.68,0.181c5.6,0.369,8.881-4.851,12.77-7.951
		c2.551-2.639,6.561-4.789,6.811-8.85c0.4-5.66-0.029-11.34,0.15-17c-0.07-3.119,0.31-6.35-0.641-9.369
		c-1.279-1.971-3.26-3.32-5.06-4.771c-8.149-6.14-16.05-12.601-24.19-18.75c-2.709-2.44-6.99-4.24-7.56-8.2
		c-0.41-8.84-0.19-17.699,0.18-26.54c14.2,10.431,28.04,21.351,42.171,31.87c4.619,3.359,7.899,8.16,12.329,11.73
		c1.729,1.66,4.181,0.6,6.25,0.449c-1.979-7.789-11.01-8.75-16.44-13.26c-17.449-13.199-34.84-26.48-52.27-39.72
		c-4.859-3.421-9.42-7.24-13.32-11.729C91.72,123.686,88.46,121.966,84.8,121.906z M68.121,137.365
		c-3.32,0.621-5.32,4.601-3.58,7.57c1.76,3.541,7.561,3.551,9.121-0.189C75.851,141.206,72.061,136.365,68.121,137.365z
		 M158.162,144.266c-4.021,0.94-4.391,7.221-0.971,9.141c3.01,2.47,7.279-0.53,8.09-3.75
		C165.451,146.025,161.681,142.916,158.162,144.266z M125.191,165.316c-4.3,1.02-4.4,7.92-0.42,9.5
		c3.52,2.129,8.311-1.631,7.34-5.53C131.541,166.186,128.162,164.216,125.191,165.316z M34.091,170.036
		c-0.03,7.659,2.189,15.13,2.06,22.8c-0.069,12.68-0.101,25.359,0.04,38.029c-0.15,2.131,0.15,4.5-1,6.41
		c-3.87,4.9-10.33,7.021-13.971,12.121c-1.25,3.319-0.819,6.969-0.889,10.449c0.299,11.561-0.25,23.131,0.34,34.69
		c5.819,0.13,12.47-1.091,17.34,2.92c10.24,7.79,20.68,15.319,30.979,23.03c3.341,2.6,7.341,4.539,9.94,7.959
		c1.51,10.371-0.391,20.961,0.66,31.391c0.229,3.15,3.22,4.859,5.439,6.641c7.76,5.52,15.25,11.42,23.01,16.949
		c2.4,1.84,5.43,3.96,5.121,7.41c0.719,5.359-4.75,8.16-6.66,12.52c-1,5.07-0.041,10.311-0.67,15.431
		c-0.381,5.159-2.24,10.271-1.521,15.47c0.86,1.859,3.19,1.311,4.83,1.189c1.819-1.889,0.909-4.779,0.79-7.09
		c-1.311-7.72-2.6-15.629-1.36-23.43c1.38-4.061,5.58-6.619,6.39-10.96c0.65-3.39,0.84-7.69-2.439-9.83
		c-8.551-6.5-17.221-12.85-25.88-19.2c-2.29-1.82-5.351-3.709-5.19-7.039c-0.51-9.36,0.36-18.74-0.07-28.09
		c0.211-3.181-2.699-5.021-4.879-6.73c-10.32-7.32-20.44-14.9-30.621-22.4c-3.479-2.5-6.629-5.609-10.629-7.27
		c-4.09-1.26-8.44-0.82-12.66-0.86c0.08-8.399-1.11-16.979,0.439-25.271c4.27-4.859,10.24-7.819,15.17-11.949
		c4.45-3.79,10.19-6.29,13.69-11.08c1.14-8.391,0.12-16.95,0.39-25.41c-0.49-8.939,0.87-17.779,2.1-26.6
		c-1.39-0.9-2.779-1.801-4.17-2.7c-3.979,5.19-1.069,11.67-0.49,17.43c0.941,8.92,0.131,17.91,0.49,26.86
		c-0.189,4.21,1.01,9.68-3.229,12.33c-8.08,6.02-16.069,12.17-24.399,17.84c-0.111-4.29-0.771-8.689,0.299-12.9
		c3.631-5.67,10.83-7.699,14.891-12.99c0.66-2,0.54-4.149,0.609-6.22c-0.17-13.69-0.109-27.38-0.119-41.069
		c-0.16-6.551,2.35-12.891,1.84-19.431C38.71,169.576,36.061,170.416,34.091,170.036z M60.111,173.316
		c-3.43,0.74-5.35,5.24-3.01,8.039c1.9,3.23,7,2.721,8.65-0.47C67.97,177.316,64.162,172.195,60.111,173.316z M73.111,173.296
		c-3.449,0.72-5.46,5.37-3.08,8.181c2.061,3.02,7.141,2.699,8.641-0.721C80.951,177.206,77.071,172.286,73.111,173.296z
		 M136.111,173.336c-3.41,0.75-5.34,5.23-2.99,8.02c2.18,3.801,8.5,2.33,9.18-1.859
		C143.332,175.956,139.541,172.496,136.111,173.336z M23.191,176.406c-3.439,1.05-4.43,5.729-2.57,8.49
		c2.51,3.08,8.311,1.729,8.83-2.33C30.441,179.006,26.701,175.355,23.191,176.406z M145.271,182.246
		c-2.801,1.29-2.971,5.16-1.54,7.529c2.351,3.211,8.59,2.23,9.03-2.09C153.921,183.516,148.871,179.977,145.271,182.246z
		 M124.97,194.246c-0.729,8.27,1.891,16.33,1.58,24.59c0.42,8.62-2.439,17.05-1.489,25.68c1.78-0.359,3.59-0.609,5.42-0.699
		c0.08-8.4-2.479-16.57-2.19-24.99c-0.18-8.26,2.521-16.28,2-24.561C128.521,194.416,126.731,194.406,124.97,194.246z
		 M161.501,199.546c-1.9,0.979-1.32,3.431-1.381,5.181c0.51,5.719,2.11,11.319,1.971,17.1c-0.101,14.029-0.01,28.06-0.01,42.08
		c0.199,2.82-0.881,5.539-3.351,7.05c-19.83,14.47-39.56,29.08-59.399,43.54c-2.74,2.119-6.031,3.85-7.891,6.88
		c-0.96,4.75-0.3,9.64-0.4,14.46c0.2,6.62-0.42,13.27,0.131,19.891c0.14,2.5,2.629,3.789,4.34,5.229
		c7.07,4.909,13.82,10.239,20.9,15.12c2.579,1.89,5.819,4.01,5.51,7.68c0.22,17.35-0.211,34.73,0.069,52.08
		c-0.21,2.65,2.021,4.311,3.9,5.74c6.51,4.8,13.479,9.07,19.29,14.77c2.6,2.45,5.02,5.211,8.17,6.98c1.9,1,4.01-0.29,5.939-0.58
		c-2.869-7-11.17-7.78-16.689-11.79c-5.439-3.86-10.91-7.729-16.18-11.83c-3.09-2.04-2.48-6.069-2.61-9.25
		c0.2-12.681,0.01-25.36,0.14-38.04c0-3.65,0.26-7.33-0.289-10.96c-0.281-2.569-2.73-3.97-4.541-5.46
		c-7.199-5.1-14.22-10.45-21.43-15.53c-1.66-1.42-3.98-2.7-4.25-5.1c-0.63-4.96-0.15-9.97-0.221-14.95
		c0.101-5.33-0.399-10.689,0.181-16.01c0.19-2.68,2.75-4.15,4.601-5.711c21.1-15.189,41.899-30.809,62.959-46.059
		c2.451-1.541,3.291-4.381,3.16-7.141c0.01-10.689-0.09-21.391-0.039-32.08c0.069-7.24-0.57-14.58,0.859-21.73
		c0.49-3,1.3-6,1.16-9.049C166.141,199.836,163.311,198.275,161.501,199.546z M137.251,206.365c-2.871,1.041-4.101,4.75-2.5,7.33
		c2,3.721,8.709,2.971,9.479-1.35C145.481,208.386,140.941,204.686,137.251,206.365z M137.191,220.246
		c-3.141,1.07-4.26,5.54-1.84,7.88c2.82,3.19,9.49,1.46,9.04-3.29C144.771,221.016,140.38,218.977,137.191,220.246z
		 M119.241,264.386c-4.21,1.15-4.771,8.011-0.771,9.75c3.061,1.421,7.16-0.89,7.08-4.38
		C126.041,266.386,122.511,263.246,119.241,264.386z M134.111,264.326c-3.41,0.73-5.391,5.279-2.99,8.05
		c2.021,3.09,6.85,2.58,8.65-0.47C141.981,268.346,138.151,263.246,134.111,264.326z M32.162,277.355
		c-1.131,4.131,3.879,5.59,6.649,7.181c11.3,4.6,19.909,13.54,29.93,20.21c3.851,2.439,8.65,1.51,12.96,1.67
		c6.11-0.33,12.32,0.641,18.36-0.551c5.46-2.379,9.58-6.939,14.45-10.27c6.13-4.98,13.68-7.689,20.01-12.369
		c-0.67-1.531-1.34-3.061-2-4.591c-7.08,2.4-10.87,9.2-16.7,13.38c-4.59,3.381-8.989,7.03-13.7,10.24
		c-3.33,2.35-7.58,1.95-11.43,2.01c-5.359-0.14-10.721,0.19-16.061-0.14c-4.469-0.19-7.84-3.45-11.229-5.96
		c-5.2-4.18-10.81-7.82-15.94-12.08c-3.479-2.85-6.24-6.529-9.949-9.1C35.97,275.945,33.141,275.286,32.162,277.355z
		 M82.171,282.316c-4.57,0.81-4.48,7.97-0.61,9.66c3.229,1.689,7.58-1.451,6.979-5.07C88.771,283.525,85.22,281.296,82.171,282.316z
		 M149.751,287.906c-3.851,3.479-7.061,7.68-11.36,10.66c-11.66,8.34-23.21,16.83-34.931,25.08c-1.72,1.439-4.17,2.789-4.27,5.31
		c-0.529,7.479,0.02,14.989-0.061,22.479c9.36,6.61,18.641,13.34,28.061,19.871c1.85,1.469,4.279,2.949,4.48,5.569
		c0.43,2.96,0.31,5.979,0.299,8.97c-0.219,12.33,0.061,24.66-0.18,37c0.041,2.801-0.18,5.69,0.57,8.43
		c2.65,3.66,6.85,5.75,10.32,8.531c6.23,4.809,12.859,9.09,18.88,14.159c4.61,3.82,8.149,10.39,15.05,9.74
		c-0.52-2.14-0.109-5.08-2.48-6.181c-4.629-2.869-9.989-4.41-14.359-7.729c-6.689-4.979-13.29-10.069-20.12-14.86
		c-2.39-1.91-5.62-3.729-5.899-7.119c-0.701-4.82-0.23-9.711,0.119-14.53c2.25,1.489,4.53,2.979,6.69,4.62
		c14.239,11.13,28.601,22.109,43.04,32.99c2.609,1.81,4.76,4.56,4.41,7.93c0.55,7.22-6.83,10.74-11.24,15.09
		c-3.95,4.07-9.939,3.88-15.15,3.41c-4.979-0.381-8.75-4-12.68-6.66c-14.9-10.45-29.84-20.84-44.811-31.189
		c-4.64-2.951-8.56-6.801-12.39-10.701c-2.01-1.819-4.85-4.6-7.67-2.569c-1.38,1.649-0.521,3.96,1.21,4.95
		c4.67,3.24,10.26,4.85,14.9,8.17c18.09,12.57,36.16,25.17,54.18,37.84c3.561,2.609,8.15,2.55,12.37,2.52
		c3.01-0.09,6.34-0.029,8.819-2.039c3.92-3.021,7.631-6.33,11.261-9.701c3.53-2.93,3.25-8,2.851-12.129
		c-0.15-3.41-3.23-5.381-5.611-7.301c-15.279-11.34-30.09-23.3-45.42-34.57c-2.299-1.789-5.049-3.83-4.979-7.069
		c-0.63-10.319,0.33-20.681-0.21-31c0.16-2.96-2.63-4.54-4.641-6.13c-7.27-5.03-14.389-10.27-21.689-15.27
		c-1.939-1.44-4.061-2.791-5.38-4.871c-0.899-3.85-0.53-7.85-0.62-11.77c0.1-3.2-0.22-6.52,0.78-9.609
		c1.829-2.291,4.38-3.83,6.729-5.531c10.53-7.42,20.85-15.139,31.32-22.639c4.58-3.371,10.1-5.091,14.74-8.32
		c1.93-1.28,1.59-3.93,2.1-5.91C154.361,286.146,151.582,286.025,149.751,287.906z M22.821,299.656c0,4.939,0.47,9.859,1.28,14.729
		c0.9,5.4,0.47,10.88,0.99,16.3c0.129,2.26,2.26,3.551,3.779,4.91c5.49,4.18,10.93,8.42,16.43,12.58
		c2.091,1.73,4.841,3.54,4.75,6.61c0.381,6.521-0.1,13.05,0.121,19.579c7.189,0.311,14.39-0.069,21.59,0.091
		c5.63-0.091,9.55,4.45,13.83,7.409c2.75,2.271,6.279,3.98,8.029,7.201c2.041,10.27-1.24,20.549-1.689,30.819
		c2.109-0.01,5.16,1.091,6.16-1.521c0.43-5.559-1.67-10.939-1.76-16.489c-0.381-4.761,0.539-9.64-0.551-14.319
		c-2.89-3.74-7.311-5.881-10.859-8.91c-3.461-2.5-6.67-6.141-11.23-6.301c-7.09-0.3-14.2,0.18-21.3-0.14
		c-0.28-6.41,0.29-12.841-0.22-19.24c-0.101-2.239-2.11-3.61-3.631-4.96c-5.789-4.55-11.67-8.99-17.5-13.48
		c-1.83-1.539-4.029-3.17-4.32-5.729c-1.389-9.66,2.111-19.14,1.761-28.8C26.591,300.016,24.691,299.906,22.821,299.656z
		 M170.351,321.456c-4.98,3.53-12.33,5.01-13.971,11.8c2.291,0.359,5.011,1.189,6.801-0.859c7.68-7.201,14.26-16.25,24.27-20.41
		c0.6,5.359,0.54,10.8-0.46,16.109c-0.659,4.53-1.92,9.29-0.53,13.801c1.561,0.39,3.17,0.58,4.76,0.83
		c0.221-4.551-0.02-9.101-0.799-13.58c-1.101-6.431-0.98-12.971-1.08-19.461C181.171,310.006,176.662,317.466,170.351,321.456z
		 M38.121,314.605c-0.05,1.67-0.08,3.34-0.109,5.01c8.279,4.961,18.189,7.941,24.63,15.471c1.78,7.721-0.431,15.57-1.32,23.26
		c-0.12,1.801-0.44,4.28,1.649,5.11c1.551,0.069,3.091-0.19,4.621-0.37c-0.41-7.46-2.381-14.77-2.23-22.27
		c-0.09-2.4,0.13-4.881-0.58-7.211c-3.1-3.609-7.63-5.539-11.22-8.59C48.571,321.296,45.061,314.756,38.121,314.605z
		 M133.861,326.936c0.48,1.92-0.26,4.69,1.73,5.881c4.369,2.859,9.439,4.41,13.83,7.24c3.819,2.459,7.85,4.719,11.199,7.829
		c1.69,1.45,1.291,3.9,1.5,5.88c-0.039,10.34-0.15,20.67-0.109,31.01c9.14,0.541,18.31,0.5,27.449,0.031
		c-0.06-6.431-0.14-12.91,0.961-19.271c0.51-3.95,1.629-8.06,0.529-11.99c-1.26-1.479-3.449-0.8-5.13-1.11
		c-0.28,10.221,3.08,20.221,1.8,30.48c-7.859,0.32-15.74,0.359-23.6-0.04c0.029-9.7,0.061-19.399,0.141-29.09
		c-0.131-2.75,0.149-6.181-2.431-7.95c-5.649-4.359-12.181-7.641-16.99-13.05C141.951,329.536,138.361,326.826,133.861,326.936z
		 M118.071,337.615c0.011,1.9,0.011,3.811,0.021,5.721c6,2.96,12.34,5.359,17.85,9.23c3.529,2.479,7.16,4.819,10.7,7.31
		c1.67,1.26,3.79,2.649,3.739,5.021c0.541,11.529-0.399,23.1,0.381,34.629c6.97,0.08,13.949-0.01,20.93-0.039
		c8.04-0.17,15.85,2.479,23.91,1.92c-0.21-1.66-0.35-3.34-0.689-4.971c-2.891-1.189-6.061-0.529-9.041-0.189
		c-11.02,1.89-22.24,1.029-33.35,0.96c-0.27-12,0.141-24-0.189-36c-5.891-4.12-12.011-7.899-17.781-12.19
		C129.091,345.126,125.431,338.156,118.071,337.615z M174.201,354.266c-4.91,1.57-3.539,9.51,1.59,9.4
		c3.961,0.79,6.881-3.57,5.19-7.061C180.101,353.727,176.641,353.486,174.201,354.266z M175.121,367.386
		c-3.38,0.761-5.32,5.181-3.08,8.011c2.07,3.42,7.91,2.739,9.101-1.101C182.541,370.686,178.921,366.386,175.121,367.386z
		 M47.891,381.666c0.149,1.62,0.29,3.24,0.42,4.859c9.28,0.561,18.399-1.85,27.69-1.34c0.239,6.42,0.58,12.91-0.601,19.271
		c-0.521,3.5-1.479,7.05-0.96,10.62c1.43,1.66,3.891,1.23,5.82,1.73c0.05-4.23-0.26-8.461-1.03-12.621
		c-1.31-6.93-0.931-14.01-0.84-21.02c-5.94,0.05-11.91,0.02-17.75-1.15C56.441,381.156,52.13,381.076,47.891,381.666z
		 M178.141,409.227c-4.99,1.359-3.431,9.609,1.659,9.43c3.961,0.8,6.871-3.58,5.17-7.061
		C184.082,408.686,180.601,408.566,178.141,409.227z"/>
	<path fill="#AFD549" d="M138.691,14.296c7.609,0.15,15-2.2,22.62-2.069c-0.101,2.069-0.13,4.14-0.08,6.209
		c-7.899-0.189-15.62-2.319-23.55-2.08c-5.221,0.16-10.58-0.59-15.711,0.67c-4.659,2.031-8.359,5.701-12.6,8.431
		c-2.459,1.94-6.09,3.69-5.959,7.33c-0.421,6.079-0.031,12.17,0.139,18.25c6.771-4.15,13.4-8.65,18.811-14.521
		c2.35-2.709,5.609-4.33,9.18-4.67c-0.41,1.99,0.25,4.74-1.76,6.02c-4.65,3.23-10.199,4.881-14.85,8.15
		c-3.73,2.6-7.9,4.78-10.891,8.271c-1.189,3.95-0.689,8.17-0.779,12.239c-3.24,2.221-6.471,4.451-9.791,6.531
		c-0.17,4.149-0.329,8.299-0.299,12.449c-8.99,6.34-18.271,12.23-27.391,18.35c-1.71,1.351-4.04,2.61-4.26,5.021
		c-0.51,4.149-0.74,8.521,0.449,12.58c1.75,2.62,4.57,4.239,7.041,6.101c11.47,8.119,22.439,16.93,33.88,25.1
		c2.35,1.83,5.62,3.709,5.38,7.17c0.27,7.66-0.16,15.34,0,23c-0.16,5.439,0.66,10.99-0.439,16.359c-3.611,5.101-10.25,7-13.98,12.01
		c-1.311,5.091-0.62,10.451-0.65,15.66c-0.07,6.24,2.08,12.291,1.87,18.521c-1.42,1.771-4.03,1.09-6,1.47
		c-0.39-8.09,2.32-15.93,2-24.01c0.08-4.12-0.55-8.34,0.431-12.391c3.539-5.149,10.149-7.08,13.949-12.01
		c1.15-3.75,0.62-7.75,0.7-11.609c-0.239-8.35,0.16-16.721-0.05-25.07c0.4-5.13-4.92-7.391-8.26-10.12
		c-11.141-8.149-22.08-16.59-33.28-24.659c-2.341-1.841-5.55-3.721-5.38-7.131c-0.09-4.619-0.78-9.539,0.71-13.97
		c4.31-4.45,10.159-7,15.1-10.681c5.03-3.729,10.921-6.369,15.36-10.83c1.199-3.939,0.689-8.149,0.79-12.209
		c3.25-2.2,6.489-4.41,9.81-6.51c0.53-10.631,0.11-21.261,0.15-31.891c0.13-2.02-0.11-4.46,1.63-5.9
		c3.319-3.069,7.28-5.34,10.83-8.119c3.13-2.19,6.159-5.101,10.149-5.42C128.691,13.886,133.701,14.366,138.691,14.296z"/>
	<path fill="#AFD549" d="M162.97,23.126c2.521-2.28,5.201-5.88,9.07-4.94c0.73,1.311,1.32,2.7,1.9,4.09
		c-5.68,3.351-11.83,5.83-17.41,9.33c-11.83,7.791-23.359,16.041-35.22,23.771c-1.521,1.22-3.67,2.319-3.79,4.521
		c-0.68,5.619-0.12,11.299-0.221,16.939c0.121,6.01-0.389,12.04,0.111,18.04c0.069,2.989,2.899,4.64,4.939,6.36
		c4.449,3.189,8.66,6.689,13.109,9.869c3.971,2.871,8.681,4.49,12.67,7.33c2.19,1.351,2.07,4.2,2.701,6.41
		c-2.391-0.43-5.17-0.31-7.031-2.14c-3.149-2.851-5.6-6.399-8.879-9.12c-5.101-4.3-10.59-8.1-15.891-12.141
		c-1.79-1.439-4.04-3.029-3.869-5.619c-0.361-8.66,0.159-17.33-0.091-25.99c0.07-4.09-0.47-8.279,0.49-12.3
		c1.351-1.94,3.43-3.181,5.31-4.54c8.19-5.439,16.37-10.91,24.471-16.49C151.391,32.275,157.891,28.566,162.97,23.126z"/>
	<path fill="#AFD549" d="M139.291,21.396c2.84-1.181,7.211-0.021,7.26,3.6c0.961,3.71-3.239,7.79-6.789,5.811
		C136.071,29.307,135.611,23.105,139.291,21.396z"/>
	<path fill="#AFD549" d="M165.791,39.445c2.131-0.149,4.67-0.859,6.34,0.94c4.641,4.03,8.471,8.99,13.73,12.3
		c3.1,2.48,7.92,4.43,7.9,9.08c0.459,6.68-0.01,13.381,0.209,20.07c-0.139,3.62,0.4,7.99-2.579,10.68
		c-4.181,4.09-8.931,7.541-13.2,11.53c3.16,2.62,6.63,4.87,9.67,7.649c1.561,1.19,1.57,3.271,1.67,5.051
		c-0.061,58.38-0.061,116.779-0.01,175.16c0.12,2.359-0.79,4.609-2.68,6.05c-7.03,6.021-14.66,11.319-21.631,17.399
		c-3.74,3.25-6.549,7.5-10.59,10.41c-1.22,0.98-2.859,0.65-4.26,0.44c-0.24-1.649-0.99-3.851,0.68-4.99
		c2.521-2.34,5.74-3.68,8.711-5.34c6.58-3.45,11.85-8.79,17.76-13.2c3.25-2.699,7.09-4.89,9.539-8.4
		c1.5-4.989,0.681-10.31,0.82-15.449c-0.029-49.66-0.02-99.32,0-148.99c-0.14-5.141,0.67-10.45-0.81-15.45
		c-1.31-1.979-3.341-3.34-5.19-4.771c-10.08-7.209-19.91-14.779-29.84-22.189c-4.67-3.59-10.311-5.58-15.17-8.859
		c-2.561-1.271-1.59-4.451-1.891-6.73c7.531,0.689,10.74,8.439,16.33,12.41c8.32,6.21,16.5,12.619,25.061,18.49
		c4.221-3.851,8.83-7.271,12.98-11.19c3.399-2.87,2.91-7.78,2.58-11.75c-0.051-2.45-1.971-4.12-3.76-5.489
		c-4.471-3.381-9.261-6.361-14.351-8.73c-2.99-1.52-6.271-2.811-8.591-5.33c-0.369-1.41-0.409-3.15,0.951-4.07
		c3.93-0.97,6.6,2.73,9.1,5.09c4.65,5.23,10.48,9.19,16.48,12.711c0.09-4.551,0.879-9.281-0.391-13.73
		c-6.689-7.801-16.76-11.27-25.29-16.57C165.97,42.266,165.88,40.855,165.791,39.445z"/>
	<path fill="#AFD549" d="M153.46,41.716c2.381-1.87,6.42,1.761,4.25,4.12c-2.369,2.52-5.779,3.641-8.83,5.1
		c-6.14,2.521-11.52,6.461-17.129,9.92c-1.931,1.311-4.09,2.51-5.42,4.49c-0.92,4.381-0.711,8.961-0.291,13.4
		c0.15,2.55,2.541,4.01,4.28,5.52c6.71,4.93,13.39,9.91,19.979,15.01c5.181,3.871,10.091,8.19,15.891,11.15
		c3.55,1.96,7.51,3.561,10.2,6.721c0.19,2.02-1.11,4.83-3.54,3.819c-5.61-2.89-8.84-8.76-13.92-12.399
		c-10.43-7.91-20.85-15.851-31.36-23.66c-1.63-1.301-3.56-2.78-3.53-5.09c-0.47-5.48-0.029-10.99,0.09-16.48
		c5.801-3.9,11.791-7.529,17.551-11.5C145.991,48.916,149.061,44.506,153.46,41.716z"/>
	<path fill="#AFD549" d="M80.701,55.796c1.971-1.36,4.44-0.181,6.58,0.06c-1.439,3.601-4.42,6.121-8.01,7.42
		c-8.93,3.461-16.28,9.721-24.311,14.771c-2.97,1.99-6.16,3.71-8.74,6.22c-1.539,1.37-1.129,3.65-1.329,5.49
		c0.13,17.721,0.159,35.439-0.011,53.16c0.15,2.35-0.209,5.24,1.91,6.859c4.25,3.801,9.17,6.771,13.5,10.5
		c3.131,2.381,6.16,5.61,10.33,5.871c5.521,0.379,11.061,0.01,16.59,0.119c-0.02,6.15,0.5,12.32-0.029,18.45
		c-0.04,2.261-2.19,3.511-3.76,4.761c-5.75,3.93-11.621,7.699-17.351,11.659c-1.55,1.15-3.22,2.261-4.25,3.94
		c-0.67,2.52-0.54,5.17-0.569,7.77c0.189,10,0,20.01,0.199,30.01c-0.06,2.431,0.15,4.961-0.609,7.311
		c-2.461,3.83-8.471,5.42-8.5,10.58c-0.24,5.34-0.4,10.72,0.189,16.04c0.16,2.14,2.08,3.43,3.54,4.75
		c4.67,3.649,9.49,7.12,14.03,10.93c3.17,2.44,6.32,5.511,10.51,5.86c3.391,0.27,7.07,0.33,10.09-1.461
		c6.58-3.909,11.45-9.949,16.94-15.149c1.71-1.93,4.329-2.159,6.729-2.3c-0.01,1.71-0.01,3.43-0.02,5.15
		c-5.91,3.319-12.29,5.949-17.49,10.399c-3.02,2.351-6.02,5.42-10.1,5.55c-4.24,0.25-8.98,0.51-12.561-2.189
		c-5.6-4.04-10.76-8.65-16.369-12.67c-2.521-2.03-5.48-3.721-7.24-6.5c-0.871-3.36-0.49-6.891-0.58-10.32
		c0.1-3.811-0.311-7.68,0.5-11.42c2.15-4.4,8.85-5.93,8.67-11.51c0.199-9.35-0.08-18.711-0.01-28.07
		c0.06-4.5-0.42-9.061,0.289-13.529c0.51-1.82,2.371-2.791,3.73-3.921c5.939-4.079,12.061-7.89,17.971-12.01
		c1.51-1.25,3.579-2.41,3.75-4.59c0.659-5.07,0.159-10.19,0.049-15.28c-5.08-0.12-10.17,0.189-15.24-0.189
		c-3.239-0.201-5.779-2.431-8.239-4.301c-4.06-3.3-8.17-6.51-12.399-9.58c-2-1.57-4.24-3.01-5.611-5.199
		c-0.779-2.721-0.539-5.601-0.579-8.4c0.31-19.16-0.16-38.33,0.229-57.49c8.271-5.369,16.36-11,24.521-16.529
		C72.441,63.686,75.931,58.956,80.701,55.796z"/>
	<path fill="#AFD549" d="M151.22,63.166c2.201-1.01,5.16-0.45,6.601,1.58c1.92,3.15-0.06,8.279-4.19,7.91
		C148.371,73.496,146.621,65.086,151.22,63.166z"/>
	<path fill="#AFD549" d="M73.13,78.275c3.49-3.479,7.201-7.279,12.471-7.539c-0.301,2.07,0.5,4.939-1.74,6.149
		c-4.199,2.771-9.141,4.101-13.449,6.671c-5.621,3.289-10.931,7.069-16.41,10.579c-0.221,13.24,0.08,26.479-0.17,39.72
		c0.069,2.73-0.201,5.59,0.709,8.221c1.67,2.32,4.17,3.84,6.391,5.57c3.31,2.34,6.359,5.049,9.84,7.14
		c2.65,1.649,5.9,1.489,8.91,1.54c5.49-0.07,10.99-0.141,16.49,0.01c0.17,9.52,0.01,19.05,0.18,28.57
		c-0.189,2.31,0.369,5.24-1.73,6.859c-4.82,3.95-10.34,6.94-15.369,10.59c-3.281,2.36-7,4.24-9.711,7.291
		c-1.55,3.109-0.97,6.81-1.109,10.189c0.17,13.68,0.08,27.359,0,41.04c0.15,2.36-0.08,4.979,1.21,7.069
		c3.12,3.881,7.93,6.5,12.979,6.431c4.74,0.069,10.11,0.649,14.07-2.54c4.7-3.5,9.2-7.279,13.57-11.189
		c-5.541-0.431-11.09-0.101-16.631-0.301c-4.819-0.1-8.17-4.05-11.859-6.6c-2.18-1.96-5.53-3.631-5.57-6.96
		c-0.49-7.261,0.61-14.591-0.58-21.81c-0.459-3.851-1.689-7.711-1.189-11.621c0.66-2.779,5.029-2.85,5.65-0.02
		c0.799,5.21-1.141,10.32-1.521,15.49c-0.431,5.66-0.601,11.38-0.08,17.039c0.149,2.65,2.51,4.281,4.3,5.91
		c2.84,2.23,5.66,4.721,9.12,5.931c3.53,0.84,7.2,0.53,10.79,0.56c11.01-0.24,22.02,0.07,33.029-0.08
		c6.24,0.01,12.281-2.439,18.531-1.83c1.859,0.15,2.399,2.521,2.08,4.07c-1.9,2.93-5.811,1.58-8.641,1.33
		c-8.55-1.88-17.33-1.4-26.02-1.49c-3,0.07-6.25-0.06-8.86,1.67c-5.62,3.61-10.28,8.471-15.729,12.301
		c-4.44,3.279-10.32,2.22-15.471,2.3c-5.18,0.17-9.65-2.97-13.13-6.479c-1.99-1.83-1.54-4.74-1.7-7.16
		c0.16-16.041,0.15-32.08,0-48.11c0.061-2.101-0.02-4.261,0.631-6.28c1.43-1.9,3.489-3.17,5.399-4.51
		c5.021-3.311,9.989-6.67,15.03-9.939c2-1.371,4.119-2.681,5.64-4.611c0.8-2.439,0.63-5.069,0.69-7.6
		c-0.121-7.77,0-15.539-0.221-23.31c-6.42-0.29-12.85,0.14-19.27-0.15c-4.811-0.22-8.2-4.09-11.9-6.67
		c-3.41-2.84-7.561-4.94-10.29-8.51c-0.739-2.37-0.569-4.899-0.62-7.341c0.17-12.369,0.131-24.729,0-37.1
		c0.19-2.35-0.38-5.35,1.84-6.92C59.861,86.876,67.371,83.775,73.13,78.275z"/>
	<path fill="#AFD549" d="M104.181,74.066c-0.551-3.141,5.289-3.94,5.93-0.76c0.42,5.559-1.66,10.939-1.77,16.489
		c-0.16,6.351-0.351,12.729,0.039,19.08c-0.08,3.069,2.781,4.75,4.871,6.46c7.35,5.279,14.539,10.76,21.689,16.311
		c2.73,2.239,6.109,3.6,9.68,3.469c11.961,0.011,23.92-0.149,35.891-0.039c0.199,25.92-0.301,51.85,0.34,77.76
		c0.22,18.33-0.82,36.67-0.061,55c0.041,4.98,0.43,10-0.24,14.95c-0.159,2.6-2.6,4.04-4.439,5.479
		c-19.939,13.65-39.57,27.75-59.46,41.471c-4.34,2.43-3.649,7.949-3.36,12.16c-0.05,3.1,2.82,4.789,5,6.439
		c7.33,4.971,14.621,10.01,21.91,15.029c1.83,1.41,4.26,2.881,4.211,5.511c0.59,10.66-0.41,21.351,0.209,32.01
		c-0.05,3.24,2.92,5.091,5.16,6.89c8.881,6.41,17.5,13.17,26.16,19.881c5.74,4.57,12.7,7.1,19.04,10.68c-0.771,1.721-1,4.4-3.36,4.6
		c-3.189-0.58-5.32-3.359-7.6-5.42c-5.54-5.92-12.37-10.369-18.75-15.3c-5.859-4.489-11.66-9.05-17.66-13.33
		c-1.97-1.61-4.71-3.17-4.66-6.06c-0.59-10.66,0.44-21.37-0.24-32.02c0.061-3.271-2.99-5.031-5.279-6.73
		c-7.391-4.93-14.631-10.061-21.98-15.051c-1.779-1.379-4.119-2.789-4.24-5.31c-0.41-3.28-0.39-6.601-0.09-9.88
		c-0.06-3.41,3.301-5.1,5.641-6.891c19.35-13.26,38.39-26.969,57.74-40.219c1.649-1.351,3.92-2.611,4.119-4.961
		c0.66-4.619,0.24-9.289,0.28-13.93c-0.05-35,0.011-70-0.021-105c-0.029-8.6,0.181-17.2-0.199-25.8c-10.67-0.04-21.33-0.03-32,0.09
		c-4.23,0.06-8.79-0.271-12.18-3.101c-7.73-5.969-15.5-11.869-23.391-17.619c-2.109-1.75-5.1-3.44-4.98-6.58
		c-0.51-7.94,0.65-15.95-0.5-23.86C105.121,82.006,104.071,78.086,104.181,74.066z"/>
	<path fill="#AFD549" d="M163.291,72.376c1.961-0.649,4.45-0.66,6.051,0.819c2.74,2.951,0.99,9.221-3.65,8.561
		C160.441,82.626,158.921,74.256,163.291,72.376z"/>
	<path fill="#AFD549" d="M176.111,80.386c4.02-0.97,7.75,3.921,5.68,7.53c-1.629,3.311-6.76,3.65-8.85,0.63
		C170.71,85.706,172.681,81.105,176.111,80.386z"/>
	<path fill="#AFD549" d="M82.071,111.396c-2.53-1.811,0.341-6.301,3.021-4.84c3.09,1.75,5.289,4.629,7.77,7.1
		c4.08,4.359,9.09,7.65,13.83,11.229c13.359,9.979,26.74,19.931,40.09,29.91c3.17,2.28,6.1,5.19,9.96,6.21
		c4.81,0.79,9.71,0.26,14.55,0.12c-0.08-6.101-1.879-12.03-1.949-18.11c-0.07-3.199,5.229-3.91,5.789-0.72
		c0.641,7.11-1.879,14.06-2.02,21.17c-7.58-0.54-16.43,2.14-22.82-3.21c-16.64-12.76-33.66-25.01-50.31-37.75
		C94.601,117.855,87.451,115.966,82.071,111.396z"/>
	<path fill="#AFD549" d="M68.251,110.316c3.359-1.461,8.18,0.439,8.09,4.52c0.02,4.189-5.4,6.21-8.59,3.96
		C65.151,116.746,65.451,112.076,68.251,110.316z"/>
	<path fill="#AFD549" d="M29.451,114.525c1.02-1.56,2.961-1.42,4.551-1.08c1.42,3.851,0.43,7.99-0.041,11.931
		c-1.609,10.101-0.359,20.351-0.75,30.51c-0.129,1.45-0.17,3.12-1.34,4.171c-4.72,4.719-10.91,7.629-15.76,12.209
		c-2.391,2.131-1.8,5.67-2.04,8.551c0.149,3.799-0.51,8.279,2.36,11.289c2.279,2.99,6.119,5.461,5.98,9.65
		c0.35,7.52-0.681,15.12,0.709,22.57c0.61,4.449,2.16,9.16,0.471,13.539c-1.68,0.23-3.381,0.291-5.061,0.391
		c0.721-12.439,2.801-24.891,1.43-37.38c-1.379-5.03-7.68-7.49-7.84-13.04c-0.289-4.609-0.38-9.25,0.131-13.84
		c0.039-1.46,1.119-2.51,2.129-3.41c4.69-4.05,10.291-6.939,14.811-11.21c2.42-2.12,1.721-5.67,1.93-8.53
		c-0.229-8.38,0.53-16.869-1.15-25.15C29.412,122.025,28.431,118.195,29.451,114.525z"/>
	<path fill="#AFD549" d="M84.8,121.906c3.66,0.06,6.92,1.779,9.16,4.65c3.9,4.489,8.461,8.309,13.32,11.729
		c17.43,13.239,34.82,26.521,52.27,39.72c5.431,4.51,14.461,5.471,16.44,13.26c-2.069,0.15-4.521,1.211-6.25-0.449
		c-4.43-3.57-7.71-8.371-12.329-11.73c-14.131-10.52-27.971-21.439-42.171-31.87c-0.37,8.841-0.59,17.7-0.18,26.54
		c0.569,3.96,4.851,5.76,7.56,8.2c8.141,6.149,16.041,12.61,24.19,18.75c1.8,1.45,3.78,2.8,5.06,4.771
		c0.95,3.02,0.57,6.25,0.641,9.369c-0.18,5.66,0.25,11.34-0.15,17c-0.25,4.061-4.26,6.211-6.811,8.85
		c-3.889,3.101-7.17,8.32-12.77,7.951c-8.89,0.08-17.79,0-26.68-0.181c-0.18-7.75,0.54-15.569-0.67-23.26
		c-0.52-3.91-1.74-7.86-1.09-11.83c0.619-2.46,4.189-2.95,5.39-0.66c1.08,3.22-0.069,6.66-0.44,9.92c-1.55,7.9-1.129,16-0.8,23.99
		c7.761-0.12,15.521,0.181,23.271,0.01c5.279,0.271,8.64-4.37,12.31-7.39c2.41-2.5,6.011-4.68,6.29-8.471
		c0.43-5.31,0.07-10.64,0.2-15.959c-0.091-2.73,0.2-5.59-0.71-8.211c-1.32-1.979-3.32-3.359-5.15-4.81
		c-9.18-6.78-17.92-14.12-27.06-20.92c-1.91-1.64-4.54-3.25-4.57-6.069c-0.771-9.551,0.851-19.23-0.53-28.73
		c-2.81-4.45-7.92-6.9-11.959-10.15c-4.341-3.199-9.601-4.869-13.9-8.13C84.841,126.456,85.311,123.855,84.8,121.906z"/>
	<path fill="#AFD549" d="M68.121,137.365c3.94-1,7.73,3.841,5.541,7.381c-1.561,3.74-7.361,3.73-9.121,0.189
		C62.8,141.966,64.8,137.986,68.121,137.365z"/>
	<path fill="#AFD549" d="M158.162,144.266c3.52-1.35,7.289,1.76,7.119,5.391c-0.811,3.22-5.08,6.22-8.09,3.75
		C153.771,151.486,154.141,145.206,158.162,144.266z"/>
	<path fill="#AFD549" d="M125.191,165.316c2.971-1.101,6.35,0.869,6.92,3.97c0.971,3.899-3.82,7.659-7.34,5.53
		C120.791,173.236,120.891,166.336,125.191,165.316z"/>
	<path fill="#AFD549" d="M34.091,170.036c1.97,0.38,4.619-0.46,6.01,1.35c0.51,6.54-2,12.88-1.84,19.431
		c0.01,13.689-0.051,27.379,0.119,41.069c-0.069,2.07,0.051,4.22-0.609,6.22c-4.061,5.291-11.26,7.32-14.891,12.99
		c-1.069,4.211-0.41,8.61-0.299,12.9c8.33-5.67,16.319-11.82,24.399-17.84c4.239-2.65,3.04-8.12,3.229-12.33
		c-0.359-8.95,0.451-17.94-0.49-26.86c-0.579-5.76-3.489-12.239,0.49-17.43c1.391,0.899,2.78,1.8,4.17,2.7
		c-1.229,8.82-2.59,17.66-2.1,26.6c-0.27,8.46,0.75,17.02-0.39,25.41c-3.5,4.79-9.24,7.29-13.69,11.08
		c-4.93,4.13-10.9,7.09-15.17,11.949c-1.55,8.291-0.359,16.871-0.439,25.271c4.22,0.04,8.57-0.399,12.66,0.86
		c4,1.66,7.149,4.77,10.629,7.27c10.181,7.5,20.301,15.08,30.621,22.4c2.18,1.71,5.09,3.55,4.879,6.73
		c0.431,9.35-0.439,18.729,0.07,28.09c-0.16,3.33,2.9,5.219,5.19,7.039c8.659,6.351,17.329,12.7,25.88,19.2
		c3.279,2.14,3.09,6.44,2.439,9.83c-0.81,4.341-5.01,6.899-6.39,10.96c-1.239,7.801,0.05,15.71,1.36,23.43
		c0.119,2.311,1.029,5.201-0.79,7.09c-1.64,0.121-3.97,0.67-4.83-1.189c-0.72-5.199,1.14-10.311,1.521-15.47
		c0.629-5.12-0.33-10.36,0.67-15.431c1.91-4.359,7.379-7.16,6.66-12.52c0.309-3.45-2.721-5.57-5.121-7.41
		c-7.76-5.529-15.25-11.43-23.01-16.949c-2.22-1.781-5.21-3.49-5.439-6.641c-1.051-10.43,0.85-21.02-0.66-31.391
		c-2.6-3.42-6.6-5.359-9.94-7.959c-10.3-7.711-20.739-15.24-30.979-23.03c-4.87-4.011-11.521-2.79-17.34-2.92
		c-0.59-11.56-0.041-23.13-0.34-34.69c0.069-3.48-0.361-7.13,0.889-10.449c3.641-5.101,10.101-7.221,13.971-12.121
		c1.15-1.91,0.85-4.279,1-6.41c-0.141-12.67-0.109-25.35-0.04-38.029C36.281,185.166,34.061,177.695,34.091,170.036z"/>
	<path fill="#AFD549" d="M60.111,173.316c4.051-1.121,7.859,4,5.641,7.569c-1.65,3.19-6.75,3.7-8.65,0.47
		C54.761,178.557,56.681,174.057,60.111,173.316z"/>
	<path fill="#AFD549" d="M73.111,173.296c3.96-1.01,7.84,3.91,5.561,7.46c-1.5,3.42-6.58,3.74-8.641,0.721
		C67.651,178.666,69.662,174.016,73.111,173.296z"/>
	<path fill="#AFD549" d="M136.111,173.336c3.43-0.84,7.221,2.62,6.189,6.16c-0.68,4.189-7,5.66-9.18,1.859
		C130.771,178.566,132.701,174.086,136.111,173.336z"/>
	<path fill="#AFD549" d="M23.191,176.406c3.51-1.051,7.25,2.6,6.26,6.16c-0.52,4.06-6.32,5.41-8.83,2.33
		C18.761,182.136,19.751,177.456,23.191,176.406z"/>
	<path fill="#AFD549" d="M145.271,182.246c3.6-2.27,8.65,1.27,7.49,5.439c-0.44,4.32-6.68,5.301-9.03,2.09
		C142.3,187.406,142.47,183.536,145.271,182.246z"/>
	<path fill="#AFD549" d="M124.97,194.246c1.761,0.16,3.551,0.17,5.32,0.02c0.521,8.28-2.18,16.301-2,24.561
		c-0.289,8.42,2.271,16.59,2.19,24.99c-1.83,0.09-3.64,0.34-5.42,0.699c-0.95-8.63,1.909-17.06,1.489-25.68
		C126.861,210.576,124.241,202.516,124.97,194.246z"/>
	<path fill="#AFD549" d="M161.501,199.546c1.81-1.271,4.64,0.29,4.6,2.511c0.14,3.049-0.67,6.049-1.16,9.049
		c-1.43,7.15-0.79,14.49-0.859,21.73c-0.051,10.689,0.049,21.391,0.039,32.08c0.131,2.76-0.709,5.6-3.16,7.141
		c-21.06,15.25-41.859,30.869-62.959,46.059c-1.851,1.561-4.41,3.031-4.601,5.711c-0.58,5.32-0.08,10.68-0.181,16.01
		c0.07,4.98-0.409,9.99,0.221,14.95c0.27,2.399,2.59,3.68,4.25,5.1c7.21,5.08,14.23,10.431,21.43,15.53
		c1.811,1.49,4.26,2.891,4.541,5.46c0.549,3.63,0.289,7.31,0.289,10.96c-0.13,12.68,0.061,25.359-0.14,38.04
		c0.13,3.181-0.479,7.21,2.61,9.25c5.27,4.101,10.74,7.97,16.18,11.83c5.52,4.01,13.82,4.79,16.689,11.79
		c-1.93,0.29-4.039,1.58-5.939,0.58c-3.15-1.77-5.57-4.53-8.17-6.98c-5.811-5.699-12.78-9.97-19.29-14.77
		c-1.88-1.43-4.11-3.09-3.9-5.74c-0.28-17.35,0.15-34.73-0.069-52.08c0.31-3.67-2.931-5.79-5.51-7.68
		c-7.08-4.881-13.83-10.211-20.9-15.12c-1.711-1.44-4.2-2.729-4.34-5.229c-0.551-6.621,0.069-13.271-0.131-19.891
		c0.101-4.82-0.56-9.71,0.4-14.46c1.859-3.03,5.15-4.761,7.891-6.88c19.84-14.46,39.569-29.07,59.399-43.54
		c2.47-1.511,3.55-4.229,3.351-7.05c0-14.021-0.091-28.051,0.01-42.08c0.14-5.78-1.461-11.381-1.971-17.1
		C160.181,202.977,159.601,200.525,161.501,199.546z"/>
	<path fill="#AFD549" d="M137.251,206.365c3.689-1.68,8.229,2.021,6.979,5.98c-0.771,4.32-7.479,5.07-9.479,1.35
		C133.151,211.115,134.38,207.406,137.251,206.365z"/>
	<path fill="#AFD549" d="M137.191,220.246c3.189-1.27,7.58,0.77,7.2,4.59c0.45,4.75-6.22,6.48-9.04,3.29
		C132.931,225.786,134.05,221.316,137.191,220.246z"/>
	<path fill="#AFD549" d="M119.241,264.386c3.271-1.14,6.8,2,6.31,5.37c0.08,3.49-4.02,5.801-7.08,4.38
		C114.47,272.396,115.031,265.536,119.241,264.386z"/>
	<path fill="#AFD549" d="M134.111,264.326c4.04-1.08,7.87,4.02,5.66,7.58c-1.801,3.05-6.63,3.56-8.65,0.47
		C128.72,269.605,130.701,265.057,134.111,264.326z"/>
	<path fill="#AFD549" d="M32.162,277.355c0.979-2.069,3.809-1.41,5.35-0.369c3.709,2.57,6.47,6.25,9.949,9.1
		c5.131,4.26,10.74,7.9,15.94,12.08c3.39,2.51,6.761,5.77,11.229,5.96c5.34,0.33,10.701,0,16.061,0.14
		c3.85-0.06,8.1,0.34,11.43-2.01c4.711-3.21,9.11-6.859,13.7-10.24c5.83-4.18,9.62-10.979,16.7-13.38c0.66,1.53,1.33,3.06,2,4.591
		c-6.33,4.68-13.88,7.389-20.01,12.369c-4.87,3.33-8.99,7.891-14.45,10.27c-6.04,1.191-12.25,0.221-18.36,0.551
		c-4.31-0.16-9.109,0.77-12.96-1.67c-10.021-6.67-18.63-15.61-29.93-20.21C36.041,282.945,31.031,281.486,32.162,277.355z"/>
	<path fill="#AFD549" d="M82.171,282.316c3.049-1.021,6.6,1.209,6.369,4.59c0.601,3.619-3.75,6.76-6.979,5.07
		C77.691,290.286,77.601,283.126,82.171,282.316z"/>
	<path fill="#AFD549" d="M149.751,287.906c1.83-1.881,4.609-1.76,7.029-2.08c-0.51,1.98-0.17,4.63-2.1,5.91
		c-4.641,3.229-10.16,4.949-14.74,8.32c-10.471,7.5-20.79,15.219-31.32,22.639c-2.35,1.701-4.9,3.24-6.729,5.531
		c-1,3.09-0.681,6.409-0.78,9.609c0.09,3.92-0.279,7.92,0.62,11.77c1.319,2.08,3.44,3.431,5.38,4.871
		c7.301,5,14.42,10.239,21.689,15.27c2.011,1.59,4.801,3.17,4.641,6.13c0.54,10.319-0.42,20.681,0.21,31
		c-0.069,3.239,2.681,5.28,4.979,7.069c15.33,11.271,30.141,23.23,45.42,34.57c2.381,1.92,5.461,3.891,5.611,7.301
		c0.399,4.129,0.68,9.199-2.851,12.129c-3.63,3.371-7.341,6.681-11.261,9.701c-2.479,2.01-5.81,1.949-8.819,2.039
		c-4.22,0.03-8.81,0.09-12.37-2.52c-18.02-12.67-36.09-25.27-54.18-37.84c-4.641-3.32-10.23-4.93-14.9-8.17
		c-1.73-0.99-2.59-3.301-1.21-4.95c2.82-2.03,5.66,0.75,7.67,2.569c3.83,3.9,7.75,7.75,12.39,10.701
		c14.971,10.35,29.91,20.739,44.811,31.189c3.93,2.66,7.7,6.279,12.68,6.66c5.211,0.47,11.2,0.66,15.15-3.41
		c4.41-4.35,11.79-7.87,11.24-15.09c0.35-3.37-1.801-6.12-4.41-7.93c-14.439-10.881-28.801-21.86-43.04-32.99
		c-2.16-1.641-4.44-3.131-6.69-4.62c-0.35,4.819-0.82,9.71-0.119,14.53c0.279,3.39,3.51,5.209,5.899,7.119
		c6.83,4.791,13.431,9.881,20.12,14.86c4.37,3.319,9.73,4.86,14.359,7.729c2.371,1.101,1.961,4.041,2.48,6.181
		c-6.9,0.649-10.439-5.92-15.05-9.74c-6.021-5.069-12.649-9.351-18.88-14.159c-3.471-2.781-7.67-4.871-10.32-8.531
		c-0.75-2.739-0.529-5.629-0.57-8.43c0.24-12.34-0.039-24.67,0.18-37c0.011-2.99,0.131-6.01-0.299-8.97
		c-0.201-2.62-2.631-4.101-4.48-5.569c-9.42-6.531-18.7-13.261-28.061-19.871c0.08-7.49-0.469-15,0.061-22.479
		c0.1-2.521,2.55-3.87,4.27-5.31c11.721-8.25,23.271-16.74,34.931-25.08C142.691,295.586,145.901,291.386,149.751,287.906z"/>
	<path fill="#AFD549" d="M22.821,299.656c1.87,0.25,3.771,0.359,5.66,0.34c0.351,9.66-3.149,19.14-1.761,28.8
		c0.291,2.56,2.49,4.19,4.32,5.729c5.83,4.49,11.711,8.931,17.5,13.48c1.521,1.35,3.53,2.721,3.631,4.96
		c0.51,6.399-0.061,12.83,0.22,19.24c7.1,0.319,14.21-0.16,21.3,0.14c4.561,0.16,7.77,3.801,11.23,6.301
		c3.549,3.029,7.97,5.17,10.859,8.91c1.09,4.68,0.17,9.559,0.551,14.319c0.09,5.55,2.189,10.931,1.76,16.489
		c-1,2.611-4.051,1.511-6.16,1.521c0.449-10.271,3.73-20.55,1.689-30.819c-1.75-3.221-5.279-4.931-8.029-7.201
		c-4.28-2.959-8.2-7.5-13.83-7.409c-7.2-0.16-14.4,0.22-21.59-0.091c-0.221-6.529,0.26-13.059-0.121-19.579
		c0.091-3.07-2.659-4.88-4.75-6.61c-5.5-4.16-10.939-8.4-16.43-12.58c-1.52-1.359-3.65-2.65-3.779-4.91
		c-0.521-5.42-0.09-10.899-0.99-16.3C23.291,309.516,22.821,304.596,22.821,299.656z"/>
	<path fill="#AFD549" d="M170.351,321.456c6.311-3.99,10.82-11.45,18.99-11.771c0.1,6.49-0.021,13.03,1.08,19.461
		c0.779,4.479,1.02,9.029,0.799,13.58c-1.59-0.25-3.199-0.44-4.76-0.83c-1.39-4.511-0.129-9.271,0.53-13.801
		c1-5.31,1.06-10.75,0.46-16.109c-10.01,4.16-16.59,13.209-24.27,20.41c-1.79,2.049-4.51,1.219-6.801,0.859
		C158.021,326.466,165.371,324.986,170.351,321.456z"/>
	<path fill="#AFD549" d="M38.121,314.605c6.94,0.15,10.45,6.69,15.44,10.41c3.59,3.051,8.12,4.98,11.22,8.59
		c0.71,2.33,0.49,4.811,0.58,7.211c-0.15,7.5,1.82,14.81,2.23,22.27c-1.53,0.18-3.07,0.439-4.621,0.37
		c-2.09-0.83-1.77-3.31-1.649-5.11c0.89-7.689,3.101-15.539,1.32-23.26c-6.44-7.529-16.351-10.51-24.63-15.471
		C38.041,317.945,38.071,316.275,38.121,314.605z"/>
	<path fill="#AFD549" d="M133.861,326.936c4.5-0.109,8.09,2.601,10.88,5.851c4.81,5.409,11.341,8.69,16.99,13.05
		c2.58,1.77,2.3,5.2,2.431,7.95c-0.08,9.69-0.111,19.39-0.141,29.09c7.859,0.399,15.74,0.36,23.6,0.04
		c1.28-10.26-2.08-20.26-1.8-30.48c1.681,0.311,3.87-0.369,5.13,1.11c1.1,3.931-0.02,8.04-0.529,11.99
		c-1.101,6.36-1.021,12.84-0.961,19.271c-9.14,0.469-18.31,0.51-27.449-0.031c-0.041-10.34,0.07-20.67,0.109-31.01
		c-0.209-1.979,0.19-4.43-1.5-5.88c-3.35-3.11-7.38-5.37-11.199-7.829c-4.391-2.83-9.461-4.381-13.83-7.24
		C133.601,331.626,134.341,328.855,133.861,326.936z"/>
	<path fill="#AFD549" d="M118.071,337.615c7.36,0.541,11.021,7.511,16.479,11.4c5.771,4.291,11.891,8.07,17.781,12.19
		c0.33,12-0.08,24,0.189,36c11.109,0.069,22.33,0.93,33.35-0.96c2.98-0.34,6.15-1,9.041,0.189c0.34,1.631,0.479,3.311,0.689,4.971
		c-8.061,0.56-15.87-2.09-23.91-1.92c-6.98,0.029-13.96,0.119-20.93,0.039c-0.78-11.529,0.16-23.1-0.381-34.629
		c0.051-2.371-2.069-3.761-3.739-5.021c-3.54-2.49-7.171-4.83-10.7-7.31c-5.51-3.871-11.85-6.271-17.85-9.23
		C118.082,341.426,118.082,339.516,118.071,337.615z"/>
	<path fill="#AFD549" d="M174.201,354.266c2.44-0.779,5.9-0.539,6.78,2.34c1.69,3.49-1.229,7.851-5.19,7.061
		C170.662,363.775,169.291,355.836,174.201,354.266z"/>
	<path fill="#AFD549" d="M175.121,367.386c3.801-1,7.42,3.3,6.021,6.91c-1.19,3.84-7.03,4.521-9.101,1.101
		C169.8,372.566,171.741,368.146,175.121,367.386z"/>
	<path fill="#AFD549" d="M47.891,381.666c4.239-0.59,8.55-0.51,12.75,0.35c5.84,1.17,11.81,1.2,17.75,1.15
		c-0.091,7.01-0.47,14.09,0.84,21.02c0.771,4.16,1.08,8.391,1.03,12.621c-1.93-0.5-4.391-0.07-5.82-1.73
		c-0.52-3.57,0.439-7.12,0.96-10.62c1.181-6.36,0.84-12.851,0.601-19.271c-9.291-0.51-18.41,1.9-27.69,1.34
		C48.181,384.906,48.041,383.286,47.891,381.666z"/>
	<path fill="#AFD549" d="M178.141,409.227c2.46-0.66,5.94-0.541,6.829,2.369c1.701,3.48-1.209,7.86-5.17,7.061
		C174.71,418.836,173.151,410.586,178.141,409.227z"/>
</g>
</svg>
