<?xml version="1.0" encoding="utf-8"?>
<!-- Generator: Adobe Illustrator 16.0.0, SVG Export Plug-In . SVG Version: 6.00 Build 0)  -->
<!DOCTYPE svg PUBLIC "-//W3C//DTD SVG 1.1//EN" "http://www.w3.org/Graphics/SVG/1.1/DTD/svg11.dtd">
<svg version="1.1" id="Layer_1" xmlns="http://www.w3.org/2000/svg" xmlns:xlink="http://www.w3.org/1999/xlink" x="0px" y="0px"
	 width="154px" height="290px" viewBox="0 0 154 290" enable-background="new 0 0 154 290" xml:space="preserve">
<g>
	<path fill="#FEFEFD" d="M68.998,133.411c5.27-0.59,10.6-0.47,15.889-0.149c1.602,1.07,1.781,3.689-0.219,4.479
		c-4.961,0.25-9.971,0.3-14.93-0.01C67.708,137.371,67.678,134.562,68.998,133.411z"/>
	<path fill="#FEFEFD" d="M65.988,139.231c1.25-1.29,3.18-0.74,4.77-0.88c5.369,0.17,10.75-0.15,16.109,0.119
		c3.141,0.311,2.91,5.66-0.24,5.67c-6.25,0.341-12.539,0.33-18.789,0.021C65.388,144.221,63.908,140.791,65.988,139.231z"/>
	<path fill="#FEFEFD" d="M63.898,145.172c2.889-0.74,5.899-0.23,8.831-0.271c5.318,0.19,10.639-0.22,15.959-0.04
		c2.17-0.17,4.279,2.09,3.07,4.189c-1.711,2.101-4.66,1.5-7.02,1.631c-6.51-0.12-13.031,0.17-19.541-0.141
		C62.188,150.562,60.848,146.371,63.898,145.172z"/>
</g>
<g>
	<path fill="#FFF100" d="M67.008,153.441c5.24-0.43,10.52-0.1,15.779-0.189c3.461-0.17,7.02,0.879,9.551,3.299
		c3.42,3.25,4.789,8,5.4,12.541c0.85,7.72,5.66,14.109,9.67,20.47c4.24,6.67,9.01,13.45,10.199,21.44
		c1.57,19.239-11.77,38.979-30.891,43.27c-21.989,5.83-46.319-10.801-49.879-33.02c-1.22-7.791,0.58-15.801,4.45-22.611
		c5.19-9.529,12.81-18.25,14.05-29.43C56.138,162.531,59.488,154.502,67.008,153.441z"/>
	<path fill="#FFF100" d="M20.078,163.551c6.22,3.541,12.72,6.681,18.71,10.59c0.18,0.591,0.55,1.75,0.74,2.341
		c-7.22-3.19-13.86-7.521-20.84-11.17C19.148,164.721,19.608,164.131,20.078,163.551z"/>
	<path fill="#FFF100" d="M129.178,165.432c0.801-0.051,2.379-0.16,3.18-0.211c-1.379,2.181-3.85,3.211-5.891,4.621
		c-3.58,2.109-6.83,4.819-10.689,6.41c-0.049-0.471-0.16-1.41-0.221-1.881C119.908,171.121,124.648,168.422,129.178,165.432z"/>
	<path fill="#FFF100" d="M131.207,210.731c0.41-0.37,1.23-1.11,1.641-1.479c5.82-0.451,11.689-0.17,17.52-0.101
		c-0.41,0.47-1.209,1.42-1.619,1.89C142.918,211.352,137.018,211.471,131.207,210.731z"/>
	<path fill="#FFF100" d="M2.168,215.201c6.73-0.09,13.48-0.34,20.2,0.189c-0.72,1.421-1.93,2.181-3.55,1.871
		c-5.49,0.06-10.97-0.041-16.46,0.06C2.308,216.791,2.218,215.731,2.168,215.201z"/>
	<path fill="#FFF100" d="M23.678,263.432c6.5-3.75,12.74-7.99,19.49-11.291c-0.16,0.611-0.48,1.851-0.65,2.461
		c-5.66,3.8-11.75,6.939-17.49,10.64C24.688,264.791,24.018,263.881,23.678,263.432z"/>
	<path fill="#FFF100" d="M115.658,257.521c0.539-0.471,1.08-0.939,1.619-1.4c3.6,4.2,7.24,8.381,10.721,12.69
		c-0.4,0.38-1.211,1.13-1.611,1.5C122.848,266.021,119.197,261.812,115.658,257.521z"/>
	<path fill="#FFF100" d="M73.627,268.172c0.49-0.011,1.49-0.041,1.98-0.061c0.359,6.359,0.859,12.71,1.109,19.07
		c-0.539,0.01-1.629,0.029-2.17,0.039C74.137,280.871,73.717,274.531,73.627,268.172z"/>
</g>
<rect x="76" y="115" fill="#FEFEFD" width="3" height="13"/>
<rect x="76" y="96" fill="#FEFEFD" width="3" height="13"/>
<rect x="76" y="77" fill="#FEFEFD" width="3" height="13"/>
<rect x="76" y="58" fill="#FEFEFD" width="3" height="13"/>
<rect x="76" y="39" fill="#FEFEFD" width="3" height="13"/>
<rect x="76" y="20" fill="#FEFEFD" width="3" height="13"/>
<rect x="76" y="2" fill="#FEFEFD" width="3" height="13"/>
</svg>
