<?xml version="1.0" encoding="utf-8"?>
<!-- Generator: Adobe Illustrator 16.0.0, SVG Export Plug-In . SVG Version: 6.00 Build 0)  -->
<!DOCTYPE svg PUBLIC "-//W3C//DTD SVG 1.1//EN" "http://www.w3.org/Graphics/SVG/1.1/DTD/svg11.dtd">
<svg version="1.1" id="Layer_1" xmlns="http://www.w3.org/2000/svg" xmlns:xlink="http://www.w3.org/1999/xlink" x="0px" y="0px"
	 width="154px" height="290px" viewBox="0 0 154 290" enable-background="new 0 0 154 290" xml:space="preserve">
<g>
	<path fill="#2B2B2B" d="M68.998,132.411c5.27-0.59,10.6-0.47,15.889-0.149c1.602,1.07,1.781,3.689-0.219,4.479
		c-4.961,0.25-9.971,0.3-14.93-0.01C67.708,136.371,67.678,133.562,68.998,132.411z"/>
	<path fill="#2B2B2B" d="M65.988,138.231c1.25-1.29,3.18-0.74,4.77-0.88c5.369,0.17,10.75-0.15,16.109,0.119
		c3.141,0.311,2.91,5.66-0.24,5.67c-6.25,0.341-12.539,0.33-18.789,0.021C65.388,143.221,63.908,139.791,65.988,138.231z"/>
	<path fill="#2B2B2B" d="M63.898,144.172c2.889-0.74,5.898-0.23,8.83-0.271c5.318,0.19,10.639-0.22,15.959-0.04
		c2.17-0.17,4.279,2.09,3.07,4.189c-1.711,2.101-4.66,1.5-7.02,1.631c-6.51-0.12-13.031,0.17-19.541-0.141
		C62.188,149.562,60.848,145.371,63.898,144.172z"/>
</g>
<path fill="none" stroke="#2B2B2B" stroke-miterlimit="10" d="M67.008,152.441c5.24-0.43,10.52-0.1,15.779-0.189
	c3.461-0.17,7.02,0.879,9.551,3.299c3.42,3.25,4.789,8,5.4,12.541c0.85,7.72,5.66,14.109,9.67,20.47
	c4.24,6.67,9.01,13.45,10.199,21.44c1.57,19.239-11.77,38.979-30.891,43.27c-21.988,5.83-46.318-10.801-49.879-33.02
	c-1.221-7.791,0.58-15.801,4.449-22.611c5.191-9.529,12.811-18.25,14.051-29.43C56.138,161.531,59.488,153.502,67.008,152.441z"/>
<rect x="75.5" y="114.5" fill="#2B2B2B" width="3" height="13"/>
<rect x="75.5" y="95.5" fill="#2B2B2B" width="3" height="13"/>
<rect x="75.5" y="76.5" fill="#2B2B2B" width="3" height="13"/>
<rect x="75.5" y="57.5" fill="#2B2B2B" width="3" height="13"/>
<rect x="75.5" y="38.5" fill="#2B2B2B" width="3" height="13"/>
<rect x="75.5" y="19.5" fill="#2B2B2B" width="3" height="13"/>
<rect x="75.5" y="1.5" fill="#2B2B2B" width="3" height="13"/>
</svg>
