<?xml version="1.0" encoding="utf-8"?>
<!-- Generator: Adobe Illustrator 16.0.0, SVG Export Plug-In . SVG Version: 6.00 Build 0)  -->
<!DOCTYPE svg PUBLIC "-//W3C//DTD SVG 1.1//EN" "http://www.w3.org/Graphics/SVG/1.1/DTD/svg11.dtd">
<svg version="1.1" id="Layer_1" xmlns="http://www.w3.org/2000/svg" xmlns:xlink="http://www.w3.org/1999/xlink" x="0px" y="0px"
	 width="2236px" height="1700px" viewBox="0 0 2236 1700" enable-background="new 0 0 2236 1700" xml:space="preserve">
<g>
	<path fill="#F9FFFF" d="M296.67,46.76c18.74-13.11,41.76-18.81,64.38-19.76c16.17-0.19,32.39,2.69,47.57,8.26
		c15.78,5.96,30.58,15.7,40.64,29.41c3.77,5.32,6.74,11.21,8.82,17.39c9.51-2.76,19.51-3.44,29.32-2.42
		c12.85,1.67,25.84,6.38,34.99,15.89c5.26,5.75,8.75,13.12,8.86,20.99c-0.31,2.47-0.05,5.02-0.84,7.41c1.05,0.15,2.1,0.32,3.15,0.51
		c13.99,1.25,28.06,4.58,40.47,11.35c7.4,3.44,14.06,8.56,19.24,14.87c4.65,5.96,7.79,13.18,8.35,20.76
		c0.7,13.73-6.79,27.22-17.41,35.54l-0.93,0.15c0.11-0.61,0.35-1.83,0.47-2.43c-14.46,7.3-29.46,14.61-45.79,16.24
		c-7.43,0.13-16.4,1.09-22.04-4.85c-3.08-2.85-2.41-7.23-2.41-10.97c-8.51,4.99-17.96,7.87-27.14,11.33
		c-28.43,9.14-57.59,16.11-87.17,20.31c-9.07,0.93-18.1,2.27-27.24,2.34c-8.29,0.95-16.62,0.46-24.91-0.16
		c-18.35-0.43-36.98-2.87-54.04-9.95c-7.56-3.96-14.86-9.34-18.96-17c-2.85-5.84-3.48-12.41-4.03-18.79
		c-5.85,3.86-13.03,4.31-19.62,6.1c-14.43,2.36-29.07,3.54-43.69,3.35c-13.92,0.52-27.89-2.65-40.56-8.33
		c-6.36-2.65-12.07-6.66-17.18-11.25c-6.29-5.24-11.72-11.86-14.27-19.75l-0.39-1.31c0.86-1.75,1.62-3.55,2.36-5.36
		c2.74-5.58,7.35-9.89,11.97-13.91c10.31-7.26,22.5-11.49,35-12.9l0.68-0.43c1.71-4.13,3.74-8.13,6.43-11.72
		c4.62-6.58,10.5-12.12,16.92-16.93c15.54-11.13,34.07-17.46,52.92-20.09c3.07-0.28,6.14-0.74,9.24-0.68
		c3.29-6.54,6.07-13.5,11.2-18.88C285.38,55.43,290.96,50.95,296.67,46.76z"/>
	<path fill="#F9FFFF" d="M145.03,198.75c3.47,0.82,5.77,3.6,8.52,5.62c19.47,13.32,44.58,17.64,67.54,12.68
		c3.02-0.39,6.55-2.94,9.3-0.5c15.47,12.99,34.68,20.22,53.68,26.37c34.4,9.8,70.59,12.26,106.18,9.66
		c26.71-2.27,53.37-7.64,78.08-18.25c3.5-1.36,6.63-3.59,10.23-4.68c3.49,0.03,6.83,1.35,10.31,1.58
		c14.17,0.99,28.56,1.04,42.53-1.93c18.1-2.96,35.29-10.62,50.03-21.47l0.56,1.13c-7.59,6.6-16.61,11.49-25.94,15.18
		c-24.42,9.43-51.47,12.04-77.17,7.18c-27.49,13.74-58,20.43-88.48,23.02c-25.52,2.31-51.28,1.01-76.57-2.97
		c-21.8-3.85-43.59-9.41-63.24-19.86c-7.99-3.81-15.52-8.67-22.07-14.64c-5.23,1.78-10.67,2.71-16.11,3.5
		c-2.01,0.08-4.04-0.03-6,0.47c-4.62,0.47-9.2-0.4-13.81-0.48c-14.45-1.81-28.74-6.46-40.57-15.12
		C149.36,203.47,147.05,201.22,145.03,198.75z"/>
	<path fill="#F9FFFF" d="M1825.52,257.41c5.46-1.1,11.12-2.12,16.67-0.94c6.58,0.9,13.14,2.3,19.18,5.2
		c2.31,1.35,4.69,2.61,6.97,4.04c3.48,2.45,6.49,5.46,8.95,8.95c1.47,2.1,2.71,4.44,2.96,7.05c7.25-1.38,14.97-1.95,21.93,1.01
		c7.07,2.27,14.46,9.79,11.98,17.65c0.31,0.25,0.92,0.75,1.23,1c7.8,1.23,15.97,2.61,22.56,7.26c5.55,3.6,9.82,9.73,9.96,16.48
		c-0.78,5.73-3.93,10.82-8.13,14.69l-0.27,0.02c-3.7,0.03-6.82,2.36-10.21,3.51c-6.34,2.53-13.81,4.83-20.37,1.76
		c-2.41-0.92-1.72-3.93-2.16-5.94c-14.35,6.37-29.6,10.58-45.02,13.41c-12.65,2.3-25.57,3.1-38.39,2.14
		c-8.7-0.96-17.93-2.41-24.91-8.12c-3.8-3.1-4.65-8.17-5.75-12.65c-10.06,3.9-21.08,4.24-31.73,4.07
		c-7.52-0.15-14.74-3.05-21.18-6.72c-4.58-2.55-7.51-7.09-9.91-11.59c0.81-4.61,4.46-8.07,8.19-10.58
		c4.49-3.42,10.29-3.92,15.53-5.52c0.15-0.53,0.47-1.59,0.63-2.12c7.68-13.51,23.75-19.66,38.59-20.51
		c0.75-1.57,1.53-3.13,2.39-4.65c2.34-3.58,4.96-7.02,8.43-9.59C1810.14,262.06,1817.61,258.74,1825.52,257.41z"/>
	<path fill="#F9FFFF" d="M335.42,903.42c6.15-0.89,12.42-0.43,18.58,0.12c23.14,2.07,46.56,9.67,64.2,25.26
		c9.22,7.63,16,17.97,19.92,29.26c5.95-1.84,12.18-2.47,18.37-2.78c0.8-0.11,1.59,0.03,2.35,0.33l0.38-0.53
		c0.78,0.19,1.58,0.33,2.39,0.22c8.94,0.28,17.77,2.35,26,5.84c10.74,5.07,20.89,13.97,23.04,26.19c0.26,1.69,0.4,3.4,0.61,5.12
		c-0.33,2.48-0.05,5.07-0.85,7.48c1.05,0.13,2.11,0.3,3.17,0.49c10.86,0.9,21.51,3.51,31.74,7.21c10.14,4.38,20.3,9.68,27.42,18.38
		c5.32,6.68,8.89,14.95,8.98,23.59c-0.28,9.47-3.88,18.76-10.11,25.9c-2.62,3.19-5.21,6.83-8.97,8.66l-0.63-0.25
		c0.73-1.11,1.45-2.22,2.19-3.31c-17.06,8-34.75,17.3-54.15,16.5c-5.25,0.03-11.13-1.26-14.69-5.38c-2.41-3.05-2.1-7.06-1.49-10.64
		c-18.48,9.23-38.41,15.05-58.29,20.41c-31.37,7.92-63.49,13.98-95.95,13.89c-5.88-0.38-11.77-0.37-17.66-0.42
		c-10.86-0.89-21.76-1.95-32.36-4.56c-12.96-2.93-26.39-8.6-33.97-20.08c-4.18-6.24-4.76-13.82-5.65-21.05
		c-12.07,6.15-25.89,6.89-39.09,8.48c-11.66,0.36-23.36,2.17-34.99,0.48c-13.91-0.97-27.21-6.05-39.15-13.05
		c-5.8-4.08-11.53-8.51-15.72-14.3c-2.68-3.54-4.45-7.65-6.38-11.61c0.48-5.79,4.36-11.14,8.37-15.27
		c6.86-7.74,16.57-12.15,26.24-15.22c4.93-1.37,9.92-2.771,15.07-2.85c1.04-4.58,4.07-8.29,6.38-12.26
		c3.57-4.66,7.3-9.3,11.96-12.91c18.67-15.62,43.07-23.44,67.15-24.78c2.28-4.45,4.21-9.08,6.88-13.31
		c4.6-6.28,9.67-12.27,15.97-16.92c1.36-0.98,2.68-1.99,4-3C293.88,910.85,314.68,904.87,335.42,903.42z"/>
	<path fill="#F9FFFF" d="M127.02,1076.79c4.81,1.43,8.26,5.26,12.65,7.5c18.54,10.25,40.83,13.15,61.51,8.89
		c3.07-0.5,6.33-2.96,9.29-0.86l-1.18,0.42c-8.76,2.89-17.95,3.79-27.11,4.13l-0.41-0.43c-0.76,0.26-1.55,0.38-2.34,0.25
		c-17.39-0.4-34.77-6.03-48.77-16.41C129.3,1079.28,128.09,1078.08,127.02,1076.79z"/>
	<path fill="#F9FFFF" d="M551.58,1090.5c3.41-1.86,6.28-4.94,10.32-5.42c-4.4,4.04-9.67,6.95-14.76,10
		c-0.69-0.01-2.07-0.02-2.76-0.03C546.61,1093.28,549.09,1091.87,551.58,1090.5z"/>
	<path fill="#F9FFFF" d="M209.98,1093.95c4.11,0.3,6.65,4.01,10.03,5.92c18.31,11.44,39,18.52,60.03,23.05
		c20.16,4.8,40.91,6.24,61.55,6.73c38.38,0.06,77.45-5.54,112.48-21.87c-0.03,0.49-0.07,1.46-0.1,1.94
		c-30.54,14.01-64.17,20.01-97.58,21.48c-7.92,0.39-15.88,0.39-23.79,0.01c-5.38-0.22-10.73-0.8-16.11-0.95
		c-32.24-3.14-64.79-10.3-93.13-26.54C218.72,1100.73,213.82,1097.97,209.98,1093.95z"/>
	<path fill="#F9FFFF" d="M485.04,1108.05c19.23-0.36,38.73-3.8,56.19-12.1c0.27,0.41,0.8,1.25,1.07,1.67
		c-18.82,8.08-39.44,12.61-59.87,11.91c-8.1,0.1-16.17-0.7-24.11-2.24c-0.4-0.34-1.19-1.03-1.58-1.38
		C466.2,1106.25,475.53,1108.5,485.04,1108.05z"/>
	<path fill="#F9FFFF" d="M1964.4,1488.39c9.25-0.99,18.66-2.37,27.94-0.58c15.04,0.95,29.92,4.75,43.48,11.37
		c9,4.83,17.62,10.95,23.48,19.48c3.48,5.47,5.95,11.71,6.23,18.26c0.319,0.19,0.96,0.58,1.28,0.77c8.24-1.95,16.8-0.85,25.19-1.16
		c11.77,0.84,23.75,2.11,34.78,6.62c4.72,2.34,9.95,4.64,12.83,9.33c2.05,2.97,3.42,7.16,1.61,10.58c-1.04,2.05-1.97,4.24-3.57,5.94
		c-4.49,1.33-8.07,4.45-12.27,6.37c-12.13,6.49-25.66,10.17-39.32,11.49c-6.63,0.76-13.52-0.39-19.43-3.52
		c-4.65-3.28-5.97-9.32-5.92-14.68c-4.64,3-8.76,6.73-13.52,9.54c-13.06,7.79-27.34,13.56-42.17,16.93
		c-24.53,5.22-50.04,5.03-74.66,0.52c-11.43-2.03-22.72-5.08-33.41-9.63c-6.46-2.52-12.771-5.55-18.39-9.63
		c-5.97-4.2-12.1-8.91-15.18-15.73c-2.22-4.84-1.81-10.48,0.31-15.26c10.44-5.63,21.9-9.06,33.52-11.18
		c1.91-0.15,1.7-2.37,2.23-3.69c2.27-9.08,7.92-17.05,15.23-22.8c1.35-0.96,2.67-1.98,4.01-2.98
		C1932.2,1495.51,1948.19,1490.28,1964.4,1488.39z"/>
	<path fill="#F9FFFF" d="M396.97,1488.84c20.73-2.95,42.78,1.07,60.43,12.59c10.65,7.06,19.04,18.2,20.97,31.02
		c3.28,2.05,7.64,0.78,11.3,1.94c10.77,1.91,21.76,5.44,29.99,12.95c3.5,3.8,6.75,8.21,7.33,13.52c0.72,5.82-1.86,11.48-5.21,16.09
		c-4.61,1.85-8.95,4.25-13.44,6.33c-11.22,4.31-23.14,6.72-35.15,7.14c-4.86,0.33-9.86-1.28-12.87-5.27
		c-3.28,10.39-11.96,17.67-20.72,23.49c-7.15,5.1-15.1,9.01-23.45,11.71c-9.07,3.26-18.9,3.06-28.37,2.3
		c-7-1.17-14.64-2.31-20.01-7.39c-2.89-2.6-3.92-6.47-4.9-10.07c-17.51,7.72-36.76,10.72-55.74,12.07
		c-7.99,0.76-15.98-0.28-23.96-0.49c-19-2.08-38.58-4.94-55.47-14.46c-4.61-2.91-9.85-6.23-11.2-11.91
		c-1.37-3.88,0.06-7.87,1.34-11.54c-11.66,1.25-23.37,2.23-35.1,2.36c-8.98,0.1-17.8-2.05-26.32-4.7
		c-8.93-3.18-17.83-7.51-24.15-14.78c-3.39-3.91-4.54-9.33-3.55-14.34c13.08-6.15,28.03-7.51,42.28-6.32
		c2.51-2.5,4.88-5.15,7.64-7.39c4-2.67,8.26-4.84,12.85-6.31c5.79-1.95,11.85-2.84,17.94-3.09c1.71,0.31,3.46,0.3,5.17-0.01
		c3.36,0.37,6.77,0.25,10.06,1.12c8.68,1.49,17.23,4.57,24.34,9.86c1.49,1.11,2.88,2.4,4.55,3.28c4.45-0.04,8.86-1.16,13.34-1.02
		c2.01,0.21,2.5-2.12,3.42-3.38c3.31-6.19,9.27-10.29,15.25-13.64c6.75-3.66,14.22-5.9,21.79-7.1c8.62-1.61,17.5-2.47,26.21-1.08
		c2.74,0.03,5.44,0.55,8.11,1.12c1.77,0.24,3.53,0.47,5.32,0.73C359.38,1499.39,378.23,1491.56,396.97,1488.84z"/>
	<path fill="#F9FFFF" d="M117.15,1558.33c0.65,3.71,0.49,7.71,2.5,11.06c3.02,6.14,9.14,9.81,14.84,13.13
		c6.74,3.9,14.28,5.99,21.78,7.84c0.19,0.31,0.58,0.93,0.77,1.23c-7.09-1.32-14.03-3.35-20.62-6.26
		c-6.77-3.35-13.48-7.62-17.84-13.94C115.99,1567.62,114.99,1562.53,117.15,1558.33z"/>
	<path fill="#F9FFFF" d="M1856.94,1579.84c1.79-1.09,4.21,1.4,3.21,3.22C1858.67,1582.73,1857.21,1581.28,1856.94,1579.84z"/>
	<path fill="#F9FFFF" d="M2054.19,1592.84c6.4-1.33,13.14-1.39,19.53,0.04C2067.21,1593.05,2060.69,1593.13,2054.19,1592.84z"/>
	<path fill="#F9FFFF" d="M1950.3,1610.89c4.36-1.33,9.02-1.37,13.4,0C1959.23,1611.07,1954.75,1611.07,1950.3,1610.89z"/>
</g>
<path fill="#CCEBFC" d="M134.42,162.56l0.28,0.74c2.55,7.89,7.98,14.51,14.27,19.75c5.11,4.59,10.82,8.6,17.18,11.25
	c12.67,5.68,26.64,8.85,40.56,8.33c14.62,0.19,29.26-0.99,43.69-3.35c6.59-1.79,13.77-2.24,19.62-6.1
	c0.55,6.38,1.18,12.95,4.03,18.79c4.1,7.66,11.4,13.04,18.96,17c17.06,7.08,35.69,9.52,54.04,9.95c8.29,0.62,16.62,1.11,24.91,0.16
	c9.14-0.07,18.17-1.41,27.24-2.34c29.58-4.2,58.74-11.17,87.17-20.31c9.18-3.46,18.63-6.34,27.14-11.33c0,3.74-0.67,8.12,2.41,10.97
	c5.64,5.94,14.61,4.98,22.04,4.85c16.33-1.63,31.33-8.94,45.79-16.24c-0.12,0.6-0.36,1.82-0.47,2.43l0.93-0.15
	c-0.46,1.18-1.2,1.85-2.22,2l-0.56-1.13c-14.74,10.85-31.93,18.51-50.03,21.47c-13.97,2.97-28.36,2.92-42.53,1.93
	c-3.48-0.23-6.82-1.55-10.31-1.58c-3.6,1.09-6.73,3.32-10.23,4.68c-24.71,10.61-51.37,15.98-78.08,18.25
	c-35.59,2.6-71.78,0.14-106.18-9.66c-19-6.15-38.21-13.38-53.68-26.37c-2.75-2.44-6.28,0.11-9.3,0.5
	c-22.96,4.96-48.07,0.64-67.54-12.68c-2.75-2.02-5.05-4.8-8.52-5.62c-1.46-0.73-2.33-2.23-3.37-3.43
	C134.42,186.37,130.57,173.78,134.42,162.56z"/>
<path fill="#CCEBFC" d="M1729.88,319.69c2.4,4.5,5.33,9.04,9.91,11.59c6.44,3.67,13.66,6.57,21.18,6.72
	c10.65,0.17,21.67-0.17,31.73-4.07c1.1,4.48,1.95,9.55,5.75,12.65c6.979,5.71,16.21,7.16,24.91,8.12
	c12.82,0.96,25.74,0.16,38.39-2.14c15.42-2.83,30.67-7.04,45.02-13.41c0.44,2.01-0.25,5.02,2.16,5.94
	c6.561,3.07,14.03,0.77,20.37-1.76c3.39-1.15,6.51-3.48,10.21-3.51c-1.34,1.25-2.75,2.39-4.17,3.52c-4.28,2.77-9.02,4.68-13.82,6.32
	c-9.63,2.71-19.81,3.62-29.7,1.9c-2.9-0.65-5.19,1.7-7.72,2.63c-9.2,3.63-18.92,5.85-28.7,7.16c-6.13,0.84-12.31,0.95-18.43,1.61
	c-6.12-0.64-12.27-0.8-18.37-1.6c-15.12-1.98-30.37-6.11-42.95-15.04c-0.7-0.6-1.37-1.21-2-1.83c-8.82,3.08-18.51,2.3-27.2-0.79
	c-6.64-2.37-12.83-7.02-15.69-13.61C1729.12,326.96,1728.02,322.95,1729.88,319.69z"/>
<path fill="#CCEBFC" d="M114.34,1038.6l0.32,0.67c1.93,3.96,3.7,8.07,6.38,11.61c4.19,5.79,9.92,10.22,15.72,14.3
	c11.94,7,25.24,12.08,39.15,13.05c11.63,1.69,23.33-0.12,34.99-0.48c13.2-1.59,27.02-2.33,39.09-8.48
	c0.89,7.23,1.47,14.81,5.65,21.05c7.58,11.48,21.01,17.15,33.97,20.08c10.6,2.61,21.5,3.67,32.36,4.56
	c5.89,0.05,11.78,0.04,17.66,0.42c32.46,0.09,64.58-5.97,95.95-13.89c19.88-5.36,39.81-11.18,58.29-20.41
	c-0.61,3.58-0.92,7.59,1.49,10.64c3.56,4.12,9.44,5.41,14.69,5.38c19.4,0.8,37.09-8.5,54.15-16.5c-0.74,1.09-1.46,2.2-2.19,3.31
	l0.63,0.25l0.75,0.54c-0.37,0.09-1.12,0.28-1.49,0.38c-4.04,0.48-6.91,3.56-10.32,5.42c-2.49,1.37-4.97,2.78-7.2,4.55
	c0.69,0.01,2.07,0.02,2.76,0.03c-1.6,0.87-3.22,1.7-4.84,2.54c-0.27-0.42-0.8-1.26-1.07-1.67c-17.46,8.3-36.96,11.74-56.19,12.1
	c-9.51,0.45-18.84-1.8-28.3-2.14c0.39,0.35,1.18,1.04,1.58,1.38c-1.31,1.05-2.84,1.73-4.35,2.43c0.03-0.48,0.07-1.45,0.1-1.94
	c-35.03,16.33-74.1,21.93-112.48,21.87c-20.64-0.49-41.39-1.93-61.55-6.73c-21.03-4.53-41.72-11.61-60.03-23.05
	c-3.38-1.91-5.92-5.62-10.03-5.92l-1.32-0.23l0.63-0.98l1.18-0.42c-2.96-2.1-6.22,0.36-9.29,0.86c-20.68,4.26-42.97,1.36-61.51-8.89
	c-4.39-2.24-7.84-6.07-12.65-7.5c-2.05-1.53-3.75-3.5-5.36-5.47C114.34,1062.37,110.68,1049.84,114.34,1038.6z"/>
<path fill="#CCEBFC" d="M1850.11,1561.38c1.54-7.3,7.99-11.79,13.58-15.98c-2.12,4.78-2.53,10.42-0.31,15.26
	c3.08,6.82,9.21,11.53,15.18,15.73c5.62,4.08,11.93,7.11,18.39,9.63c10.69,4.55,21.979,7.6,33.41,9.63
	c24.62,4.51,50.13,4.7,74.66-0.52c14.83-3.37,29.11-9.14,42.17-16.93c4.76-2.81,8.88-6.54,13.52-9.54
	c-0.05,5.36,1.27,11.4,5.92,14.68c5.91,3.13,12.8,4.28,19.43,3.52c13.66-1.32,27.19-5,39.32-11.49c4.2-1.92,7.78-5.04,12.27-6.37
	c-2.76,3.84-6.8,6.4-10.65,9.02c-14.07,8.53-30.38,12.45-46.59,14.33c-2.26,0.04-4.48,0.58-6.69,0.53
	c-6.39-1.43-13.13-1.37-19.53-0.04c-1.88-0.15-3.77-0.39-5.61-0.48c-3.84-0.42-7.61-1.4-11.47-1.37
	c-8.68,6.74-19.37,10.2-29.75,13.43c-14.2,4.06-28.99,5.68-43.66,6.47c-4.38-1.37-9.04-1.33-13.4,0c-6.56-0.2-13.15-1.1-19.71-1.53
	c-9.86-1.23-19.61-3.22-29.2-5.75c-5.05-1.68-10.28-2.87-15.09-5.15l-0.83,0.06c-5.13-2.62-10.32-5.05-15.4-7.71
	c-3.39-2.39-6.86-4.65-10.1-7.21l0.18-0.54c1-1.82-1.42-4.31-3.21-3.22l-0.63,0.23c-1.05-1.4-2.07-2.78-3.14-4.11
	C1850.93,1571.52,1848.37,1566.42,1850.11,1561.38z"/>
<path fill="#CCEBFC" d="M118.68,1555.66c2.45-3.75,6.49-5.77,10.04-8.26c-0.99,5.01,0.16,10.43,3.55,14.34
	c6.32,7.27,15.22,11.6,24.15,14.78c8.52,2.65,17.34,4.8,26.32,4.7c11.73-0.13,23.44-1.11,35.1-2.36c-1.28,3.67-2.71,7.66-1.34,11.54
	c1.35,5.68,6.59,9,11.2,11.91c16.89,9.52,36.47,12.38,55.47,14.46c7.98,0.21,15.97,1.25,23.96,0.49
	c18.98-1.35,38.23-4.35,55.74-12.07c0.98,3.6,2.01,7.47,4.9,10.07c5.37,5.08,13.01,6.22,20.01,7.39c9.47,0.76,19.3,0.96,28.37-2.3
	c8.35-2.7,16.3-6.61,23.45-11.71c8.76-5.82,17.44-13.1,20.72-23.49c3.01,3.99,8.01,5.6,12.87,5.27c12.01-0.42,23.93-2.83,35.15-7.14
	c4.49-2.08,8.83-4.48,13.44-6.33c-5.44,6.81-12.61,11.84-20.29,15.82c-14.56,7-30.86,9.77-46.92,9.71
	c-0.46-0.15-1.37-0.45-1.83-0.59c-1.3,5.72-5.64,10.14-9.77,14.07c-8.23,6.98-18.04,11.89-28.43,14.68
	c-5.51,2.05-11.38,2.68-17.12,3.75c-3.35,0.18-6.71,0.49-10.02,1.01c-3.27,0.12-6.54,0.13-9.8-0.01c-3.98-0.55-8.02-0.6-12.02-1.01
	c-10.63-1.46-20.91-4.9-30.58-9.42c-4.53,0.79-9.06,1.67-13.61,2.41c-2.67,0.25-5.33,0.6-7.98,0.99
	c-10.88,1.09-21.85,1.45-32.78,0.91c-4.01-0.36-8.04-0.25-12.01-0.94c-3-0.36-6.01-0.65-9.01-0.95c-9.14-1.55-18.33-3.11-27.15-6.04
	c-2.69-0.96-5.41-1.82-8.11-2.72c-3.38-1.16-6.68-2.57-9.99-3.91c-1.19-0.95-2.56-1.58-3.99-2c-4.64-2.7-9.5-5.01-13.7-8.39
	c-3.51-2.89-6.63-6.22-9.62-9.62l-0.11-1.24c-8.79,0.26-17.61,0.35-26.31-1.11c-0.85-0.12-2.56-0.35-3.41-0.47l-0.18-0.29
	c-0.19-0.3-0.58-0.92-0.77-1.23c-7.5-1.85-15.04-3.94-21.78-7.84c-5.7-3.32-11.82-6.99-14.84-13.13c-2.01-3.35-1.85-7.35-2.5-11.06
	l-0.04-0.34C117.63,1557.2,118.15,1556.42,118.68,1555.66z"/>
</svg>
