<?xml version="1.0" encoding="utf-8"?>
<!-- Generator: Adobe Illustrator 16.0.0, SVG Export Plug-In . SVG Version: 6.00 Build 0)  -->
<!DOCTYPE svg PUBLIC "-//W3C//DTD SVG 1.1//EN" "http://www.w3.org/Graphics/SVG/1.1/DTD/svg11.dtd">
<svg version="1.1" id="Layer_1" xmlns="http://www.w3.org/2000/svg" xmlns:xlink="http://www.w3.org/1999/xlink" x="0px" y="0px"
	 width="2138px" height="354px" viewBox="0 0 2138 354" enable-background="new 0 0 2138 354" xml:space="preserve">
<g>
	<path fill="#FFFFFF" d="M1208.85,0h29.23c39.5,2.77,79.53,14.79,110.4,40.34c14.54,12.25,26.94,27.54,33.72,45.45
		c2.9,7.18,4.47,14.78,5.79,22.38c24.47,1.65,49.12,5.99,71.54,16.29c17.64,8.13,34.94,20.68,42.08,39.44
		c1.35-0.1,2.69-0.19,4.08-0.28c7.24-18.1,20.57-33.27,36.32-44.53c27.3-19.54,60.74-29.03,93.96-31.25
		c6.37-18.06,18.73-33.54,33.69-45.29c29.14-23.03,66.6-33.19,103.27-34.47c23.45-0.32,47.08,3.12,69.23,10.95
		c20.13,7.23,39.28,18.08,54.34,33.42c10.94,10.82,19.28,24.21,24.04,38.85c23.38-6.67,49.02-5.87,71.64,3.23
		c14.43,5.93,27.98,15.94,34.85,30.29c4.54,9.36,5.31,20.13,3.32,30.25c19.69,1.23,39.28,5.57,57.48,13.27
		c15.55,6.8,30.49,16.45,40.34,30.57c5.73,8.11,8.84,17.82,9.83,27.65v7.52c-1.75,18.36-12.32,34.74-26.04,46.6
		c-13.58,12.11-29.86,20.84-46.81,27.24c-32.1,11.89-67.07,15.38-101,11.42c-4.42-0.36-8.78-1.82-13.18-1.72
		c-37.6,19.1-79.29,28.83-121.01,33.43c-51.73,5.51-104.46,2.94-155.19-8.83c-20.27-4.79-40.22-11.15-59.19-19.81
		c-15.36-7.05-30.11-15.69-42.83-26.88c-25.43,7.9-53.15,7.65-78.67,0.29c-23.01-6.75-45.31-19.88-58.14-40.7
		c-0.68,0.24-2.02,0.73-2.7,0.97c3.68-3.2,8.34-4.89,12.979-6.18c-2.95,1.67-5.96,3.21-8.91,4.87
		c9.13,13.16,22.03,23.41,36.33,30.48c30.6,14.76,66.68,17.31,99.22,7.71c14.01,12.24,30.38,21.47,47.39,28.85
		c36.96,15.88,76.86,23.91,116.79,27.52c47.76,3.83,96.2,1.32,142.99-9.32c22.75-5.35,45.21-12.48,66.21-22.86
		c2.7-1.35,5.63-2.87,8.76-1.94c26.12,4.6,53.03,3.87,79.01-1.27c22.48-4.59,44.53-12.45,63.771-25.12
		c5.2-3.79,10.91-7.17,14.96-12.28c-8.05,3.05-15.51,7.43-23.45,10.76c-20.42,9.38-42.82,16.73-65.58,14.05
		c-6.21-0.92-12.76-3.24-16.65-8.43c-3.12-4.43-2.82-10.07-2.22-15.18c-17.77,8.91-36.61,15.42-55.5,21.5
		c-42.19,12.88-85.46,22.52-129.31,27.6c-23.22,2.71-46.67,3.28-70,2.02c-21.44-0.93-43.02-3.18-63.65-9.32
		c-15.36-4.69-30.86-12.13-40.51-25.47c-7.27-9.81-9.7-22.24-9.63-34.23c-9.25,4.47-19.29,6.91-29.34,8.77
		c-22.75,3.89-45.87,5.35-68.94,5.39c-30.27,0.03-60.89-9.42-84.68-28.42c15.67-8.8,30.74-19.87,40.83-34.99
		c-5.79,3.31-11.28,7.12-17.19,10.2c-29.27,15.29-62.07,22.8-94.87,25.01c-9.19,0.42-18.91,0.77-27.38-3.4
		c-4.18-1.94-6.97-5.73-9.52-9.41c-4.56,13.73-13.27,25.62-23.59,35.6c-13,12.74-28.07,23.2-43.91,32.08
		c-14.83,8.43-30.69,14.99-47.04,19.81c-11.88,3.32-24.24,5.29-36.59,4.64c-22.21-0.7-45.59-2.58-65.2-13.99
		c-5.94-3.89-11.43-8.97-14.34-15.56c-2.07-4.39-2.62-9.25-3.41-13.98c-23.52,10.6-48.7,16.86-73.96,21.66
		c-16.61,3.01-33.33,5.46-50.16,6.84c-23.57,2.26-47.31,1.08-70.85-0.92c-34.89-3.36-69.81-9.33-102.81-21.44
		c-15.86-5.95-31.56-13.34-44.15-24.91c-7.27-6.92-12.85-16.45-12.42-26.76c0.12-6.29,3.15-11.91,5.77-17.45
		c-24.47,1.75-48.88,4.3-73.39,5.48c-8.12,10.6-18.44,19.21-29.29,26.89c9.61,0.59,19.23,0.07,28.82-0.6
		c10.17,15.06,24.57,26.58,39.74,36.28c31.38,19.43,66.81,31.39,102.69,39.34c42.26,9.23,85.71,12.56,128.92,11.1
		c27.08-1.07,54.14-3.91,80.67-9.49c2.67-0.35,5.56-1.8,8.2-0.59c38.15,20.32,82.41,26.03,125.13,24.12
		c20.94-1.12,41.83-4.29,61.98-10.21c1.96-0.69,4.04-0.71,6.09-0.36c-24.99,8.48-51.34,12.32-77.65,13.42h-18.82
		c-34.48-1.52-69.47-8.11-100.07-24.68c-1.4-0.97-3.1-0.07-4.57,0.07c-24.22,5.26-48.88,8.31-73.61,9.76
		c-47.07,2.54-94.56-0.76-140.62-10.93c-35.07-8-69.78-19.6-100.55-38.55c-15.54-9.71-30.19-21.49-40.56-36.77
		c-10.14,0.94-20.35,0.66-30.48,1.01c-15.18,9.06-31.43,16.29-48.27,21.7c-39.03,12.36-80.49,16.72-121.27,13.55
		c-2.26-0.02-4.91-1.18-6.77,0.62c-7.01,5.03-14.77,8.91-22.76,12.11c-21.93,8.49-45.62,11.8-69.06,11.57
		c-16.11-0.11-32.14-2.47-47.75-6.36c-41.42,18.27-87.3,24.26-132.27,23.64c-40.43-0.78-80.98-7.11-119.09-20.85
		c-18.06-6.66-35.66-14.94-51.4-26.08c5.26,0.86,9.15,4.74,13.73,7.12c31.57,17.85,67,27.87,102.68,33.44
		c30.42,4.44,61.35,5.81,92.01,3.28c31.77-2.62,63.54-9.01,92.79-21.92c3.68-0.97,7.31,1.18,10.93,1.7
		c23.12,4.81,47.11,5.26,70.48,2.01c18.18-2.71,36.36-7.62,52.31-16.99c2.98-1.64,5.6-3.9,8.72-5.29
		c5.28-0.36,10.55,0.71,15.84,0.79c40.2,1.61,80.93-3.48,118.89-17.08c20.42-7.3,40.02-17.36,56.89-31.08
		c8.92-7.6,17.64-16.18,22.53-26.99c-7.42,7.77-14.91,15.57-23.78,21.71c-29.19,20.78-64.46,30.86-99.43,36.59
		c-8.11,1.62-16.58,0.02-24.07-3.26c-6.41-2.93-12.34-8.54-13.15-15.87c-0.87-5.27,1.07-10.38,2.91-15.21
		c-16.15,10.57-33.39,19.45-51.16,26.99c-20.99,8.63-42.79,16.52-65.65,17.82c-12.68,0.22-25.66-2.42-36.73-8.76
		c-6.04-3.51-11.43-8.92-13.02-15.93c-1.45-4.57-0.35-9.31,0.68-13.83c-24.37,17.52-51.49,31.11-79.8,41.03
		c-37.16,12.7-76.83,18.97-116.09,15.61c-40.71-3.33-81.73-13.96-116.17-36.55c-21.69-14.57-41.32-34.68-48.61-60.4
		c11.42-14.29,28.23-22.96,44.96-29.54c21.19-8,43.52-12.64,65.97-15.31c-0.19-4.91-0.62-10.04,1.33-14.69
		c3.52-9.55,11.79-16.34,20.44-21.14c15.75-8.46,33.85-11.26,51.53-11.7c7.63-17.9,20.47-33.23,35.71-45.18
		C255,45.51,285.29,33.8,316.11,27.43c40.86-8.13,83.62-7.04,123.86,3.9c24.38,6.73,48,17.24,67.98,32.91
		c15.64,12.29,29.09,28.05,36.31,46.76c33.12-0.01,66.58,4.39,97.81,15.77c2.57,0.46,5.22,0.26,7.84,0.32
		c8.15-10.65,18.97-19.11,30.8-25.34c15.88-8.18,33.5-12.55,51.23-14.18c24.92-2.06,50.36,0.86,73.89,9.49
		c14.89,5.56,29.19,13.44,40.59,24.66c8.47-0.97,16.97-1.77,25.47-2.53c3.98-0.33,8.11-0.12,11.98-1.15
		c7.29-17.2,22.29-29.81,38.22-38.84c18.76-10.59,39.84-16.46,61.04-19.7c29.24-4.16,59.26-3.23,88.09,3.37
		c20.16-22.96,46.75-39.86,75.46-50.03C1166.64,5.5,1187.72,1.8,1208.85,0z"/>
	<path fill="#FFFFFF" d="M1411.41,262.48c1.48-0.44,3-0.04,4.52,0.15c-28.78,9.3-59.27,13.03-89.45,11.6
		c0.21-0.59,0.65-1.76,0.86-2.35c3.88-0.18,7.77,0.09,11.66,0.12C1363.42,272.33,1387.91,269.17,1411.41,262.48z"/>
</g>
<g>
	<path fill="#CAEBFC" d="M10.21,202.74c7.29,25.72,26.92,45.83,48.61,60.4c34.44,22.59,75.46,33.22,116.17,36.55
		c39.26,3.36,78.93-2.91,116.09-15.61c28.31-9.92,55.43-23.51,79.8-41.03c-1.03,4.52-2.13,9.26-0.68,13.83
		c1.59,7.01,6.98,12.42,13.02,15.93c11.07,6.34,24.05,8.98,36.73,8.76c22.86-1.3,44.66-9.19,65.65-17.82
		c17.77-7.54,35.01-16.42,51.16-26.99c-1.84,4.83-3.78,9.94-2.91,15.21c0.81,7.33,6.74,12.94,13.15,15.87
		c7.49,3.28,15.96,4.88,24.07,3.26c34.97-5.73,70.24-15.81,99.43-36.59c8.87-6.14,16.36-13.94,23.78-21.71
		c-4.89,10.81-13.61,19.39-22.53,26.99c-16.87,13.72-36.47,23.78-56.89,31.08c-37.96,13.6-78.69,18.69-118.89,17.08
		c-5.29-0.08-10.56-1.15-15.84-0.79c-3.12,1.39-5.74,3.65-8.72,5.29c-15.95,9.37-34.13,14.28-52.31,16.99
		c-23.37,3.25-47.36,2.8-70.48-2.01c-3.62-0.52-7.25-2.67-10.93-1.7c-29.25,12.91-61.02,19.3-92.79,21.92
		c-30.66,2.53-61.59,1.16-92.01-3.28c-35.68-5.57-71.11-15.59-102.68-33.44c-4.58-2.38-8.47-6.26-13.73-7.12
		c-5.76-3.84-11-8.41-16-13.17c-10.1-10.12-18.8-22.91-19.75-37.58C-0.41,222.15,3.66,211.34,10.21,202.74z"/>
	<path fill="#CAEBFC" d="M1476.92,220.8c5.91-3.08,11.4-6.89,17.19-10.2c-10.09,15.12-25.16,26.19-40.83,34.99
		c23.79,19,54.41,28.45,84.68,28.42c23.07-0.04,46.19-1.5,68.94-5.39c10.05-1.86,20.09-4.3,29.34-8.77
		c-0.07,11.99,2.36,24.42,9.63,34.23c9.65,13.34,25.15,20.78,40.51,25.47c20.63,6.14,42.21,8.39,63.65,9.32
		c23.33,1.26,46.78,0.69,70-2.02c43.85-5.08,87.12-14.72,129.31-27.6c18.89-6.08,37.73-12.59,55.5-21.5
		c-0.6,5.11-0.9,10.75,2.22,15.18c3.89,5.19,10.44,7.51,16.65,8.43c22.76,2.68,45.16-4.67,65.58-14.05
		c7.94-3.33,15.4-7.71,23.45-10.76c-4.05,5.11-9.76,8.49-14.96,12.28c-19.24,12.67-41.29,20.53-63.771,25.12
		c-25.98,5.14-52.89,5.87-79.01,1.27c-3.13-0.93-6.06,0.59-8.76,1.94c-21,10.38-43.46,17.51-66.21,22.86
		c-46.79,10.64-95.23,13.15-142.99,9.32c-39.93-3.61-79.83-11.64-116.79-27.52c-17.01-7.38-33.38-16.61-47.39-28.85
		c-32.54,9.6-68.62,7.05-99.22-7.71c-14.3-7.07-27.2-17.32-36.33-30.48c2.95-1.66,5.96-3.2,8.91-4.87
		c-4.64,1.29-9.3,2.98-12.979,6.18c-5.55,2.71-11.44,4.68-17.311,6.54c-1.52-0.19-3.04-0.59-4.52-0.15
		c-23.5,6.69-47.99,9.85-72.41,9.52c-3.89-0.03-7.78-0.3-11.66-0.12c-0.21,0.59-0.65,1.76-0.86,2.35
		c-5.15,15.26-16.49,27.53-28.9,37.36c-16.49,13-35.57,22.58-55.53,28.99c-2.05-0.35-4.13-0.33-6.09,0.36
		c-20.15,5.92-41.04,9.09-61.98,10.21c-42.72,1.91-86.98-3.8-125.13-24.12c-2.64-1.21-5.53,0.24-8.2,0.59
		c-26.53,5.58-53.59,8.42-80.67,9.49c-43.21,1.46-86.66-1.87-128.92-11.1c-35.88-7.95-71.31-19.91-102.69-39.34
		c-15.17-9.7-29.57-21.22-39.74-36.28c-9.59,0.67-19.21,1.19-28.82,0.6c10.85-7.68,21.17-16.29,29.29-26.89
		c24.51-1.18,48.92-3.73,73.39-5.48c-2.62,5.54-5.65,11.16-5.77,17.45c-0.43,10.31,5.15,19.84,12.42,26.76
		c12.59,11.57,28.29,18.96,44.15,24.91c33,12.11,67.92,18.08,102.81,21.44c23.54,2,47.28,3.18,70.85,0.92
		c16.83-1.38,33.55-3.83,50.16-6.84c25.26-4.8,50.44-11.06,73.96-21.66c0.79,4.73,1.34,9.59,3.41,13.98
		c2.91,6.59,8.4,11.67,14.34,15.56c19.61,11.41,42.99,13.29,65.2,13.99c12.35,0.65,24.71-1.32,36.59-4.64
		c16.35-4.82,32.21-11.38,47.04-19.81c15.84-8.88,30.91-19.34,43.91-32.08c10.32-9.98,19.03-21.87,23.59-35.6
		c2.55,3.68,5.34,7.47,9.52,9.41c8.47,4.17,18.19,3.82,27.38,3.4C1414.85,243.6,1447.65,236.09,1476.92,220.8z"/>
</g>
</svg>
