<?xml version="1.0" encoding="utf-8"?>
<!-- Generator: Adobe Illustrator 16.0.0, SVG Export Plug-In . SVG Version: 6.00 Build 0)  -->
<!DOCTYPE svg PUBLIC "-//W3C//DTD SVG 1.1//EN" "http://www.w3.org/Graphics/SVG/1.1/DTD/svg11.dtd">
<svg version="1.1" id="Layer_1" xmlns="http://www.w3.org/2000/svg" xmlns:xlink="http://www.w3.org/1999/xlink" x="0px" y="0px"
	 width="2182px" height="389px" viewBox="0 0 2182 389" enable-background="new 0 0 2182 389" xml:space="preserve">
<g>
	<path fill="#FFFFFF" d="M1044.56,0.5h11.9c27.32,1.69,54.87,8.45,77.97,23.6c12.33,7.99,23.41,18.26,31.25,30.77
		c27.15-1.98,54.64,0.33,81.04,6.98c18.75,4.9,37.021,12.14,53.38,22.61c14.04,9.18,26.8,20.94,34.87,35.81
		c4,7.28,6.74,15.25,7.89,23.47c19.38-4.9,40.77-2.48,58.01,7.89c8.58,5.31,15.97,12.74,20.59,21.78
		c12.95-3.31,26.3-4.62,39.63-5.11c1.6-0.32,4.18,0.37,4.91-1.62c7.53-15.17,21.15-26.47,36.08-33.98
		c28.24-13.51,61.75-14.91,91.32-4.99c21.52-19.19,50.11-29.2,78.64-30.89c1.56,0.26,2.5-1.18,3.04-2.42
		c8.31-17.51,21.82-32.18,37.46-43.44c16.53-11.84,35.52-20.08,55.25-24.85c11.79-3.08,23.98-4.2,36.09-5.25
		c10.39-0.84,20.76,0.55,31.08,1.63c24.02,3.08,47.55,10.99,67.98,24.09c21.31,13.76,39.52,33.88,47.04,58.48
		c23.21-2.81,47.86,0.88,67.79,13.65c14.22,8.98,25.88,23.59,27.96,40.66c21.25-5.74,43.65-8,65.49-4.55
		c19.12,2.82,38.311,9.54,52.98,22.49c8.649,7.65,15.11,18.04,16.89,29.55c1.72,7.91,0.33,16.05-2.06,23.66
		c-2.5-0.36-3.95,1.93-5.641,3.28c-7.21,6.31-14.479,12.72-22.97,17.26c-9.83,5.04-20.56,8.11-31.41,9.95
		c-7.939,1.07-16.81,1.09-23.55-3.85c-4.64-3.38-5.78-9.44-6.22-14.8c-8.82,13.13-20.55,24.03-33.23,33.36
		c-18.62,13.24-39.71,23.53-62.3,27.64c-9.46,1.9-19.15,1.76-28.74,1.58c-8.86-0.58-17.75-2.01-26.09-5.14
		c-6.47-2.64-12.99-6.61-16.1-13.15c-2.9-5.22-1.88-11.39-0.95-16.99c-13.36,12.77-29.31,22.42-45.51,31.14
		c-7.3,4.42-15.27,7.53-22.96,11.16c-21.99,9.78-44.96,17.27-68.37,22.77c-20.04,4.28-40.46,7.67-61.01,7.25
		c-22.35,0.42-44.84-2.12-66.44-7.9c-15.28-4.44-31.18-9.91-42.56-21.56c-5.04-5.04-8.93-11.72-9.02-19.01
		c-0.4-5.61,2.04-10.8,3.88-15.95c-18.04,10.4-37.92,16.94-57.67,23.24c-17.14,4.95-34.39,9.97-52.08,12.44
		c1.3-3.14,2.75-6.22,4.35-9.22c18.64-5.17,37.27-12.16,52.73-24.05c-11.31,3.96-23.07,7.84-35.22,6.97
		c-4.57-0.25-8.74-2.27-12.67-4.43c-2.93,9.56-5.94,19.27-11.4,27.74c-7.43,12.69-19.2,22.2-31.91,29.26
		c-12.47,7.28-25.77,13.57-40.01,16.39c-9.24,1.54-18.57,3.03-27.97,2.6c-7.29-0.22-15.72-1.41-20.45-7.62
		c-2.83-3.69-2.01-8.52-1.14-12.73c-21.78,7.64-43.95,14.21-66.4,19.59c-20.11,4.63-40.42,8.88-61.07,10.14
		c-23.81,0.61-47.86-0.48-71.13-5.92c-9.17-2.43-18.43-5.45-26.17-11.1c-4.61-3.49-8.57-8.83-8.31-14.85
		c0.04-4.07,2.02-7.7,3.61-11.33c-23.42,7.89-47.57,13.32-71.75,18.28c-24.14,4.77-48.55,8.78-73.189,9.57
		c-21.56-0.19-43.271-2.58-63.92-9c-13.81-4.58-27.65-10.62-38.25-20.86c-5.66-5.56-10.14-13.01-9.88-21.18
		c-0.03-9.33,6.39-16.94,12.99-22.8c-70.5,14.34-144.17,16.78-214.58,0.51c-7.11,6.75-14.76,12.99-23.19,18.02
		c54.38,15.65,110.99,22.79,167.47,24.12c0.48,5.28,2.37,10.54,6.24,14.29c10.15,10.28,23.9,15.88,37.29,20.61
		c37.26,12.17,76.81,15.84,115.84,15.26c28.42-0.84,57.06-3.95,84.22-12.68c1.14-0.41,2.25-0.33,3.34,0.24
		c39.27,19.86,83.79,27.67,127.55,27.21c31.36-0.42,62.81-5.08,92.61-15.03c1.19-0.59,2.46-0.25,3.68,0.11
		c-32.94,12.39-68.32,17.19-103.37,17.86c-42.98-0.6-86.75-8.14-125.101-28.3c-32.83,10.64-67.64,13.52-101.99,13.28
		c-36.2-0.94-72.86-5.09-106.98-17.82c-9.59-3.73-19.06-8.26-27.04-14.85c-5.17-4.42-9.88-10.53-9.29-17.72
		c-42.06-0.53-84.08-5.19-125.33-13.43c-14.65-2.97-29.1-6.88-43.58-10.51c-28.61,16.4-61.78,23.63-94.54,24.61
		c-14.69,0.16-29.45-0.91-43.9-3.69c-20.37,10.83-42.41,18.21-64.74,23.77c-20.26,5.12-40.95,8.4-61.73,10.43
		c-23.47,1.88-47.1,3.59-70.62,1.5c-29.72-1.4-59.34-5.67-88.16-13.11c-23.35-6.32-46.45-14.33-67.46-26.49
		c-9.06-5.06-17.61-11.03-25.38-17.92c-14.45,4.96-29.97,6.46-45.18,5.87c-18.86-0.9-37.69-5.25-54.57-13.84
		c-15.79-7.8-30.19-19.67-38.44-35.46c1.56,1.04,3.05,2.23,4.03,3.87c7.91,12.29,19.94,21.34,32.65,28.23
		c27.64,14.03,60.11,18.08,90.43,11.85c3.84-0.68,7.49-2.37,11.38-2.71c10.2,8.49,21.2,16.15,33.23,21.86
		c18.86,9.91,39.18,16.71,59.71,22.2c40.63,10.41,82.74,14.59,124.62,13.52c39.15-1.02,78.33-6.53,115.8-18.09
		c13.68-4.43,27.34-9.21,40.06-16c2.16-1.03,4.45-2.6,6.96-1.79c11.22,2.41,22.69,2.93,34.11,3.49
		c39.72-0.15,80.51-9.25,113.54-32.11c4.42-3.44,9.23-6.6,12.7-11.06c-18.93,9.1-37.7,19.22-58.34,23.93
		c-12.34,2.67-25.41,4.36-37.79,1c-6.34-1.61-12.32-6.56-13.37-13.27c-0.63-3.07,0.05-6.18,0.59-9.2
		c-36.66,17.46-76.06,28.24-115.53,37.24c-46.28,10-93.77,17.09-141.22,13.65c-22.72-0.92-45.64-3.6-67.27-10.91
		c-13.57-5.05-27.24-12.29-35.55-24.57c-6.66-9.69-9.05-21.62-8.82-33.22c-11.89,5.8-25.02,8.11-37.97,10.2
		c-23.61,3.09-47.48,4.73-71.29,3.59c-25.68-1.92-51.39-10.45-71.65-26.65c-11.13-8.69-20.1-20.32-24.76-33.72
		c2.68-9.98,9.12-18.59,16.65-25.5c16.07-14.26,37.39-21.23,58.47-23.45c9.5-23.58,29.13-41.71,51.13-53.67
		c24.22-13.36,51.68-19.79,79.07-22.01c6.38-17.87,18.7-33.1,33.42-44.84c23.71-18.66,53.16-29.04,82.88-32.81
		c12.6-1.23,25.32-2.63,37.97-1.07c33.28,2.13,66.73,12.37,93.44,32.79c16.64,12.57,30.04,29.83,36.32,49.85
		c5.16-2.31,10.9-2.75,16.42-3.67c22.06-2.59,45.32,0.27,64.86,11.33c12.71,7.14,23.83,18.52,27.76,32.85
		c2.09,7.39,1.73,15.11,0.72,22.63c24.54,1.78,49.04,7.86,70.63,19.84c9.01-0.34,17.99-1.61,27.01-1.84
		c24.71-1.54,49.46-1.4,74.2-0.96c4.81-13.65,14.26-25.23,25.33-34.37c15.86-14,35.12-23.48,54.8-30.84
		c21.93-7.62,44.67-12.95,67.75-15.53c0.28-20.8,10.32-40.55,25.1-54.86c13.74-13.52,30.44-23.96,48.6-30.42
		C1010.71,4.33,1027.66,1.78,1044.56,0.5z"/>
	<path fill="#FFFFFF" d="M2172.63,240.06c1.83-2.47,2.45-6.18,5.59-7.43c-8.35,19.9-26.84,33.49-46.03,42.02
		c-22.33,9.63-47.1,13.61-71.31,11.53c-9.68,13.86-23.8,24.06-38.94,31.23c-23.57,11.04-49.98,15.38-75.88,14.25
		c-21.76-1.07-43.48-6.37-62.54-17.1c-21.21,19.73-48.22,31.9-75.69,40.18c-24.63,7.23-50.13,11.44-75.77,12.57
		c-13.67,1.27-27.44,1.05-41.1-0.11c-11.54-0.44-23.02-1.83-34.44-3.47c-38.95-6.23-77.88-18.33-110.29-41.41
		c-22.97,15.05-50.95,21.27-78.18,20.46c1.81-1.4,3.6-3.68,6.18-3.17c6.58,1,13.16-0.29,19.7-1.04
		c18.46-2.49,36.36-8.85,52.14-18.78c9.93,6.05,19.47,12.9,30.24,17.48c39.21,18.3,82.6,26.46,125.67,27.75
		c44.86,1.08,90.44-5.07,132.06-22.4c18.08-7.36,34.97-17.67,49.46-30.78c13.7,7.81,28.96,12.58,44.47,15.15
		c22.88,3.71,46.5,2.43,68.93-3.33c17.01-4.66,33.65-11.67,47.41-22.91c6.56-4.72,11.65-11.02,16.67-17.27
		c26.22,2.16,53-2.74,76.75-14.08C2151.21,262.22,2164.08,252.95,2172.63,240.06z"/>
	<path fill="#FFFFFF" d="M1414.04,363.24c3.28-0.77,6.69-2.29,10.06-0.96c-38.25,11.47-79.01,14.19-118.52,8.61
		c-0.47,0.09-1.42,0.27-1.9,0.36c1.45-2.52,4.54-3.26,7.25-2.69C1345.23,373.18,1380.4,371.46,1414.04,363.24z"/>
</g>
<g>
	<path fill="#CAEBFC" d="M0,227.02c0.81-3.38,1.48-6.78,2.25-10.16c4.66,13.4,13.63,25.03,24.76,33.72
		c20.26,16.2,45.97,24.73,71.65,26.65c23.81,1.14,47.68-0.5,71.29-3.59c12.95-2.09,26.08-4.4,37.97-10.2
		c-0.23,11.6,2.16,23.53,8.82,33.22c8.31,12.28,21.98,19.52,35.55,24.57c21.63,7.31,44.55,9.99,67.27,10.91
		c47.45,3.44,94.94-3.65,141.22-13.65c39.47-9,78.87-19.78,115.53-37.24c-0.54,3.02-1.22,6.13-0.59,9.2
		c1.05,6.71,7.03,11.66,13.37,13.27c12.38,3.36,25.45,1.67,37.79-1c20.64-4.71,39.41-14.83,58.34-23.93
		c-3.47,4.46-8.28,7.62-12.7,11.06c-33.03,22.86-73.82,31.96-113.54,32.11c-11.42-0.56-22.89-1.08-34.11-3.49
		c-2.51-0.81-4.8,0.76-6.96,1.79c-12.72,6.79-26.38,11.57-40.06,16c-37.47,11.56-76.65,17.07-115.8,18.09
		c-41.88,1.07-83.99-3.11-124.62-13.52c-20.53-5.49-40.85-12.29-59.71-22.2c-12.03-5.71-23.03-13.37-33.23-21.86
		c-3.89,0.34-7.54,2.03-11.38,2.71c-30.32,6.23-62.79,2.18-90.43-11.85c-12.71-6.89-24.74-15.94-32.65-28.23
		c-0.98-1.64-2.47-2.83-4.03-3.87c-3.54-6.38-4.94-13.65-6-20.79V227.02z"/>
	<path fill="#CAEBFC" d="M2173.39,233.8c1.69-1.35,3.141-3.64,5.641-3.28c-0.21,0.53-0.61,1.58-0.811,2.11
		c-3.14,1.25-3.76,4.96-5.59,7.43c-8.55,12.89-21.42,22.16-34.9,29.34c-23.75,11.34-50.53,16.24-76.75,14.08
		c-5.02,6.25-10.11,12.55-16.67,17.27c-13.76,11.24-30.4,18.25-47.41,22.91c-22.43,5.76-46.05,7.04-68.93,3.33
		c-15.51-2.57-30.77-7.34-44.47-15.15c-14.49,13.11-31.38,23.42-49.46,30.78c-41.62,17.33-87.2,23.48-132.06,22.4
		c-43.07-1.29-86.46-9.45-125.67-27.75c-10.77-4.58-20.31-11.43-30.24-17.48c-15.78,9.93-33.68,16.29-52.14,18.78
		c-6.54,0.75-13.12,2.04-19.7,1.04c-2.58-0.51-4.37,1.77-6.18,3.17c-13.54,8.7-28.62,14.78-43.95,19.5
		c-3.37-1.33-6.78,0.19-10.06,0.96c-33.64,8.22-68.81,9.94-103.11,5.32c-2.71-0.57-5.8,0.17-7.25,2.69l-0.28,0.1
		c-1.22-0.36-2.49-0.7-3.68-0.11c-29.8,9.95-61.25,14.61-92.61,15.03c-43.76,0.46-88.28-7.35-127.55-27.21
		c-1.09-0.57-2.2-0.65-3.34-0.24c-27.16,8.73-55.8,11.84-84.22,12.68c-39.03,0.58-78.58-3.09-115.84-15.26
		c-13.39-4.73-27.14-10.33-37.29-20.61c-3.87-3.75-5.76-9.01-6.24-14.29c-56.48-1.33-113.09-8.47-167.47-24.12
		c8.43-5.03,16.08-11.27,23.19-18.02c70.41,16.27,144.08,13.83,214.58-0.51c-6.6,5.86-13.02,13.47-12.99,22.8
		c-0.26,8.17,4.22,15.62,9.88,21.18c10.6,10.24,24.44,16.28,38.25,20.86c20.65,6.42,42.36,8.81,63.92,9
		c24.64-0.79,49.05-4.8,73.189-9.57c24.18-4.96,48.33-10.39,71.75-18.28c-1.59,3.63-3.57,7.26-3.61,11.33
		c-0.26,6.02,3.7,11.36,8.31,14.85c7.74,5.65,17,8.67,26.17,11.1c23.27,5.44,47.32,6.53,71.13,5.92
		c20.65-1.26,40.96-5.51,61.07-10.14c22.45-5.38,44.62-11.95,66.4-19.59c-0.87,4.21-1.69,9.04,1.14,12.73
		c4.73,6.21,13.16,7.4,20.45,7.62c9.4,0.43,18.729-1.06,27.97-2.6c14.24-2.82,27.54-9.11,40.01-16.39
		c12.71-7.06,24.48-16.57,31.91-29.26c5.46-8.47,8.47-18.18,11.4-27.74c3.93,2.16,8.1,4.18,12.67,4.43
		c12.15,0.87,23.91-3.01,35.22-6.97c-15.46,11.89-34.09,18.88-52.73,24.05c-1.6,3-3.05,6.08-4.35,9.22
		c17.69-2.47,34.94-7.49,52.08-12.44c19.75-6.3,39.63-12.84,57.67-23.24c-1.84,5.15-4.28,10.34-3.88,15.95
		c0.09,7.29,3.98,13.97,9.02,19.01c11.38,11.65,27.28,17.12,42.56,21.56c21.6,5.78,44.09,8.32,66.44,7.9
		c20.55,0.42,40.97-2.97,61.01-7.25c23.41-5.5,46.38-12.99,68.37-22.77c7.69-3.63,15.66-6.74,22.96-11.16
		c16.2-8.72,32.15-18.37,45.51-31.14c-0.93,5.6-1.95,11.77,0.95,16.99c3.11,6.54,9.63,10.51,16.1,13.15
		c8.34,3.13,17.23,4.56,26.09,5.14c9.59,0.18,19.28,0.32,28.74-1.58c22.59-4.11,43.68-14.4,62.3-27.64
		c12.68-9.33,24.41-20.23,33.23-33.36c0.439,5.36,1.58,11.42,6.22,14.8c6.74,4.94,15.61,4.92,23.55,3.85
		c10.85-1.84,21.58-4.91,31.41-9.95C2158.91,246.52,2166.18,240.11,2173.39,233.8z"/>
</g>
</svg>
