<?xml version="1.0" encoding="utf-8"?>
<!-- Generator: Adobe Illustrator 16.0.0, SVG Export Plug-In . SVG Version: 6.00 Build 0)  -->
<!DOCTYPE svg PUBLIC "-//W3C//DTD SVG 1.1//EN" "http://www.w3.org/Graphics/SVG/1.1/DTD/svg11.dtd">
<svg version="1.1" id="Layer_1" xmlns="http://www.w3.org/2000/svg" xmlns:xlink="http://www.w3.org/1999/xlink" x="0px" y="0px"
	 width="467px" height="308px" viewBox="0 0 467 308" enable-background="new 0 0 467 308" xml:space="preserve">
<g>
	<path fill="#FFFFFF" d="M462.671,169.478c0-14.516-5.813-27.671-15.229-37.281c3.451-7.057,5.394-14.986,5.394-23.371
		c0-29.428-23.855-53.285-53.285-53.285c-3.03,0-5.997,0.267-8.89,0.752c-7.411-20.514-27.052-35.176-50.123-35.176
		c-10.686,0-20.627,3.157-28.969,8.572c-1.136-0.257-2.279-0.504-3.426-0.748c-9.509-14.576-25.949-24.217-44.649-24.217
		c-16.169,0-30.643,7.21-40.415,18.58c-0.869,0.063-1.738,0.124-2.604,0.194c-9.774-11.483-24.323-18.774-40.583-18.774
		c-18.46,0-34.725,9.391-44.287,23.652c-8.443-5.619-18.576-8.899-29.479-8.899c-29.428,0-53.285,23.855-53.285,53.285
		c0,0.878,0.024,1.75,0.067,2.617c-27.538,2.067-49.244,25.049-49.244,53.117c0,22.108,13.464,41.068,32.639,49.136
		c-7.09,9.047-11.329,20.438-11.329,32.826c0,29.428,23.857,53.284,53.285,53.284c6.694,0,13.093-1.245,18.996-3.499
		c6.055,22.776,26.81,39.563,51.492,39.563c14.896,0,28.358-6.12,38.027-15.973c9.74,12.697,25.057,20.891,42.295,20.891
		c14.892,0,28.35-6.115,38.019-15.965c8.99,6.922,20.244,11.047,32.469,11.047c20.42,0,38.147-11.49,47.093-28.354
		c7.063,3.458,14.999,5.404,23.395,5.404c29.429,0,53.284-23.856,53.284-53.285c0-0.887-0.023-1.769-0.067-2.646
		C445.96,214.819,462.671,194.104,462.671,169.478z"/>
	<g>
		<g>
			<g>
				<path fill="#747474" d="M462.78,169.478c-0.019-0.7-0.021-0.305-0.108,1.627l-0.003,1.376L462.78,169.478z"/>
				<path fill="#747474" d="M461.096,182.348c-0.549,2.199-1.321,4.713-0.824,3.324c0.309-1.09,0.498-1.76,0.693-2.453
					c0.2-0.692,0.303-1.433,0.537-2.621c0.19-0.949,0.4-1.769,0.485-2.323c0.079-0.556,0.126-0.83,0.115-0.667
					c0.055-0.682,0.431-2.979,0.449-4.021c-0.102,1.253-0.35,2.661-0.527,4.178c-0.067,0.762-0.27,1.527-0.426,2.318
					c-0.162,0.789-0.328,1.596-0.495,2.412C460.941,183.191,461.071,182.509,461.096,182.348z"/>
				<path fill="#747474" d="M332.561,287.538c0,0,0.254-0.164,0.483-0.357c0.236-0.188,0.472-0.374,0.472-0.374
					C333.242,286.993,332.94,287.274,332.561,287.538z"/>
				<path fill="#747474" d="M225.494,303.472c0.87,0.064,1.235-0.02,1.278-0.059C225.968,303.443,225.304,303.403,225.494,303.472z"
					/>
				<path fill="#747474" d="M206.972,297.954c0.372,0.191,0.676,0.348,1.017,0.522C207.615,298.24,207.232,298.028,206.972,297.954z
					"/>
				<path fill="#747474" d="M332.561,287.538l-2.545,1.749C329.929,289.538,331.339,288.421,332.561,287.538z"/>
				<path fill="#747474" d="M449.127,205.236c0.416-0.507,0.763-0.93,1.081-1.317c-0.346,0.415-0.679,0.816-1.023,1.23
					C449.168,205.175,449.153,205.196,449.127,205.236z"/>
				<path fill="#747474" d="M375.676,275.846l0.929-0.136c0.269-0.076,0.518-0.156,0.753-0.239L375.676,275.846z"/>
				<path fill="#747474" d="M409.676,258.362c-0.605,0.646-0.681,0.995-0.854,1.302c0.285-0.422,0.702-0.93,1.22-1.514
					C410.025,258.118,409.917,258.178,409.676,258.362z"/>
				<path fill="#747474" d="M442.486,211.126l0.838-0.731C443.106,210.585,442.739,210.905,442.486,211.126z"/>
				<path fill="#747474" d="M348.41,271.226c-0.074-0.087-0.258-0.216-0.468-0.338C347.937,270.93,348.127,271.059,348.41,271.226z"
					/>
				<path fill="#747474" d="M449.549,128.087c0.007-0.028-0.012,0.011-0.013,0.002C449.456,128.311,449.435,128.378,449.549,128.087
					z"/>
				<path fill="#747474" d="M462.659,169.478l-0.034-0.636c-0.012-0.063-0.024-0.134-0.032-0.134L462.659,169.478z"/>
				<path fill="#747474" d="M176.7,288.979c0.06-0.032,0.078-0.041,0.131-0.07C177.582,288.382,177.15,288.658,176.7,288.979z"/>
				<path fill="#747474" d="M14.724,97.375c-1.138,1.486-0.312,0.203,0.384-0.893c0.356-0.541,0.741-0.986,0.752-1.068
					c0.01-0.038-0.064,0.023-0.26,0.224c-0.198,0.201-0.526,0.536-0.938,1.116C15.02,96.368,11.96,101.147,14.724,97.375z"/>
				<path fill="#747474" d="M448.423,205.986c-0.376,0.382-0.76,0.771-1.143,1.16C447.801,206.618,448.151,206.262,448.423,205.986z
					"/>
				<path fill="#747474" d="M14.663,96.754l-0.001-0.001l-0.353,0.473C14.457,97.029,14.537,96.922,14.663,96.754z"/>
				<path fill="#747474" d="M105.611,274.271c0.022,0.188,0.134,0.498,0.269,0.819C105.9,275.044,105.852,274.845,105.611,274.271z"
					/>
				<path fill="#747474" d="M157.977,297.535l-1.506,0.169C157.075,297.654,157.554,297.596,157.977,297.535z"/>
				<path fill="#747474" d="M81.597,262.328c-0.83,0.006-1.107-0.042-2.235,0.073c0.11,0.017,0.208,0.027,0.346,0.036
					C80.114,262.357,80.655,262.303,81.597,262.328z"/>
				<path fill="#747474" d="M50.063,254.213c0.141,0.114,0.319,0.259,0.476,0.387c0.288,0.165,0.625,0.358,0.913,0.524
					L50.063,254.213z"/>
				<path fill="#747474" d="M399.764,54.474c0.756,0.116,1.228,0.223,1.584,0.32C400.818,54.582,405.899,54.822,399.764,54.474z"/>
				<path fill="#747474" d="M449.089,205.226c-0.11,0.168-0.295,0.393-0.666,0.761c0.278-0.274,0.536-0.549,0.762-0.837
					C449.241,205.067,449.248,205.045,449.089,205.226z"/>
				<path fill="#747474" d="M80.377,265.855c0,0-0.351,0.011-0.876,0.027c-0.526,0.008-1.226,0.067-1.926-0.006
					c-1.398-0.091-2.797-0.181-2.797-0.181C76.347,265.813,78.375,266.021,80.377,265.855z"/>
				<path fill="#747474" d="M192.822,5.082l1.245,0.272C193.591,5.229,193.153,5.129,192.822,5.082z"/>
				<path fill="#747474" d="M58.595,262.229c-0.881-0.496-1.856-0.897-2.804-1.467c-0.217-0.069-0.466-0.158-0.625-0.182
					c0,0,0.831,0.467,1.679,0.9C57.72,261.855,58.595,262.229,58.595,262.229z"/>
				<path fill="#747474" d="M401.362,54.798c-0.015-0.002-0.015-0.004-0.015-0.004S401.348,54.796,401.362,54.798z"/>
				<path fill="#747474" d="M434.483,67.327c-4.078-3.269-2.063-1.329-3.008-1.91c-1.24-0.934-2.003-1.508-2.519-1.806
					c-0.496-0.326-0.678-0.473-0.747-0.557c-0.14-0.169,0.173-0.086-0.692-0.701c-0.844-0.49-1.616-0.992-2.404-1.37
					c-0.798-0.355-1.557-0.693-2.286-1.018c-0.728-0.324-1.427-0.635-2.11-0.939c-0.702-0.256-1.388-0.505-2.069-0.753
					c-0.185-0.119-0.704-0.333-0.064-0.153c-0.99-0.285-2.169-0.79-3.532-1.154c-1.366-0.355-2.863-0.745-4.381-1.14
					c-1.54-0.287-3.118-0.503-4.598-0.724c-0.371-0.048-0.734-0.114-1.094-0.141c-0.361-0.01-0.715-0.02-1.059-0.03
					c-0.688-0.016-1.339-0.021-1.938-0.014c-0.35-0.049-0.535-0.087-0.62-0.118c0.769,0.211,0.871,0.383,0.71,0.494
					c-1.156-0.035-2.23-0.12-3.123-0.03c-0.893,0.061-1.604,0.087-2.043-0.008c1.424-0.05,1.535-0.145,2.205-0.24l-2.437,0.192
					c-2.205-0.222,3.323-0.281,3.324-0.432c-2.383,0.081-4.97,0.207-7.369,0.647c-0.479,0.076-0.951,0.151-1.412,0.224
					c-0.234,0.116-0.245-0.153-0.33-0.295c-0.081-0.189-0.161-0.376-0.24-0.561c-0.436-1.016-0.783-1.987-1.148-2.822
					c-0.012-0.203,0.256,0.156,0.525,0.791c0.275,0.604,0.667,1.551,0.936,2.192c0.08,0.179,0.153,0.344,0.212,0.473
					c0.129,0.003,0.245-0.041,0.285-0.052c0.045-0.019,0.028-0.034-0.055-0.046c-0.035-0.017-0.112,0.012-0.154-0.041
					c-0.02-0.083-0.044-0.188-0.073-0.314c0.008-0.013,0.024,0.156,0.129,0.299c0.102-0.007,0.22-0.016,0.347-0.024
					c0.277-0.026,0.572-0.054,0.867-0.082c0.705-0.069,1.409-0.137,1.937-0.189c0.526-0.064,0.882-0.057,0.882-0.057
					c-2.175-0.054-1.318-0.107-0.415-0.222c0.906-0.029,1.864-0.076-0.16-0.25c-0.935,0.101-1.766,0.19-2.52,0.271
					c-0.211,0.025-0.41,0.048-0.601,0.071c-0.03-0.005-0.088,0.04-0.092-0.009l-0.047-0.09c-0.103-0.249-0.201-0.49-0.299-0.726
					c-0.212-0.509-0.414-0.995-0.615-1.479c-0.4-0.972-0.934-1.882-1.476-3.016c-0.519-1.148-1.294-2.39-2.214-4.031
					c-1.025-1.337,0.047,0.634-1.007-0.693c-0.792-1.061-1.448-1.968-2-2.759c-0.557-0.788-1.09-1.399-1.494-1.971
					c-0.825-1.132-1.345-1.948-1.88-2.642c-0.515-0.711-0.975-1.361-1.667-2.169c-0.724-0.774-1.732-1.656-3.267-2.882
					c-1.809-1.012-2.585-1.256-7.102-4.476c0,0,0.123,0.025,0.292,0.09c0.172,0.061,0.4,0.142,0.63,0.224
					c0.46,0.166,0.92,0.331,0.92,0.331c-1.49-1.062-2.563-1.558-3.326-1.934c-0.77-0.368-1.269-0.559-1.771-0.761
					c-0.513-0.18-1.042-0.347-1.856-0.704c-0.821-0.341-1.898-0.938-3.667-1.64c1.372,0.186,5.285,2.166,4.32,1.621
					c-1.078-0.609-1.827-0.993-2.392-1.248c-0.573-0.237-0.976-0.317-1.337-0.396c-0.731-0.139-1.331-0.212-3.114-0.839
					l-0.627-0.644c-0.938-0.259-1.888-0.521-2.848-0.786c-0.97-0.225-1.967-0.382-2.964-0.574c-0.499-0.091-1.001-0.182-1.505-0.273
					c-0.51-0.052-1.021-0.104-1.535-0.156c-1.028-0.092-2.061-0.231-3.104-0.281c-4.182-0.193-8.466,0.07-12.694,0.753
					c0.442-0.237,1.889-0.584-0.127-0.423c-5.359,0.955-10.939,2.711-16.116,5.252c-0.644,0.324-1.303,0.617-1.933,0.963
					c-0.624,0.357-1.246,0.714-1.867,1.069l-0.419,0.239l-0.105,0.051c-0.061,0.058-0.152,0.004-0.23-0.017
					c-0.568-0.142-1.135-0.283-1.698-0.423c-0.061-0.036-0.163-0.021-0.18-0.096c-0.056-0.096,0.022,0.002-0.243-0.396
					c-0.383-0.582-0.763-1.16-1.14-1.733c-0.831-1.089-1.598-2.208-2.449-3.22c0,0-0.752-0.68-1.503-1.36
					c-0.368-0.345-0.758-0.667-1.059-0.898c-0.296-0.236-0.493-0.394-0.493-0.394c-0.659-0.658-1.1-1.363-0.323-0.713
					c-1.392-1.518-1.537-1.438-1.433-1.232c0.088,0.224,0.342,0.65-0.452,0.066c-1.765-1.508-2.15-2.216-0.956-1.343
					c-2.867-2.222-7.194-5.051-11.894-7.212c-4.682-2.215-9.705-3.651-13.384-4.592c0,0,0.368,0.04,0.734,0.092
					c0.367,0.05,0.734,0.101,0.734,0.101c-1.428-0.403-2.59-0.5-3.573-0.602c-0.984-0.109-1.813-0.089-2.624-0.062
					c-0.811,0.03-1.601,0.007-2.529,0.009c-0.929,0.016-1.991-0.043-3.352-0.159c0,0,0.262-0.028,0.523-0.034
					c0.262-0.011,0.524-0.022,0.524-0.022c-3.188-0.081-6.473,0.122-9.701,0.662c-3.227,0.551-6.391,1.398-9.379,2.456
					c-5.984,2.131-11.158,5.185-15.189,7.96c-0.273,0.407-1.043,1.081-2.016,1.921c-0.944,0.872-2.124,1.875-3.184,2.961
					c-0.549,0.523-1.073,1.061-1.534,1.595c-0.233,0.264-0.459,0.52-0.675,0.764c-0.083,0.081-0.129,0.2-0.223,0.239
					c-0.382,0.071-0.71,0.133-0.961,0.18c-0.109,0.021-0.149,0.038-0.177,0.055c-0.036,0.021-0.069,0.04-0.099,0.057
					c-0.062,0.04-0.114,0.084-0.151,0.133l-0.17-0.004c-0.051-0.01-0.074-0.084-0.11-0.12c-0.063-0.087-0.124-0.171-0.183-0.252
					c-0.224-0.28-0.43-0.538-0.62-0.776c-0.406-0.52-0.764-0.946-1.097-1.311c-0.66-0.734-1.125-1.323-1.715-1.917
					c-0.599-0.584-1.228-1.28-2.264-2.173c-0.521-0.443-1.114-0.971-1.85-1.563c-0.76-0.56-1.61-1.259-2.682-1.979
					c-1.151-0.753-2.065-1.229-3.098-1.652c-0.507-0.224-1.032-0.457-1.625-0.718c-0.602-0.243-1.262-0.527-2.026-0.889l0.08-0.347
					c0,0-0.264-0.116-0.673-0.261c-0.41-0.141-0.957-0.328-1.503-0.516c-1.082-0.397-2.196-0.69-2.195-0.69
					c0,0-0.539-0.307-1.077-0.613c-0.536-0.319-1.098-0.581-1.098-0.581s-0.767-0.213-1.534-0.427
					c-0.761-0.23-1.543-0.382-1.543-0.382c1.226,0.3,2.537,0.909,2.326,0.923c-2.372-0.716-5.306-1.392-7.67-1.885
					c-1.189-0.215-2.23-0.404-2.983-0.54c-0.756-0.112-1.222-0.199-1.251-0.241c0,0-0.734-0.058-1.836-0.08
					c-1.103,0.021-2.572-0.047-4.036,0.082c-0.731,0.044-1.463,0.088-2.148,0.13c-0.682,0.083-1.318,0.159-1.864,0.225
					c-0.544,0.067-0.999,0.124-1.316,0.163c-0.318,0.034-0.498,0.072-0.498,0.072c0.24-0.157,2.189-0.397,3.741-0.618
					c-3.112,0.452-3.397,0.416-3.626,0.36c-0.224-0.042-0.392-0.096-3.203,0.512c0.767-0.065-0.383,0.229-0.494,0.333
					c-0.704,0.12-1.628,0.302-2.692,0.527c-1.056,0.258-2.234,0.622-3.476,0.981c-1.209,0.456-2.499,0.876-3.716,1.414
					c-1.209,0.554-2.422,1.046-3.466,1.643l0.745-0.582c-7.884,3.721-15.5,10.103-21.03,18.104c1.026-1.411,1.493-1.898,1.486-1.751
					c-0.032,0.127-0.488,0.921-1.303,2.082c-0.023,0.034-0.134,0.093-0.23,0.133c-0.094,0.041-0.152,0.027-0.158-0.007
					c-0.103-0.024-0.132-0.016-0.092,0.028c0.033,0.02,0.148,0.186,0.197,0.059c0.06-0.063,0.115-0.117,0.101-0.062
					c-0.007,0.028-0.032,0.083-0.089,0.188c-0.016,0.018-0.026,0.075-0.053,0.069c-0.028-0.013-0.059-0.027-0.093-0.042
					c-0.073-0.036-0.159-0.078-0.26-0.127c-0.354-0.225-0.649-0.412-0.892-0.566c-0.256-0.172-0.457-0.307-0.608-0.409
					c-0.298-0.211-0.389-0.304-0.328-0.305c0.123-0.003,0.857,0.359,1.767,0.87c0,0-0.952-0.556-1.903-1.112
					c-0.466-0.294-0.979-0.504-1.344-0.697c-0.37-0.183-0.617-0.305-0.617-0.305c-0.201-0.174,0.734,0.269,1.01,0.32
					c-0.419-0.178-1.045-0.497-1.788-0.889c-0.374-0.191-0.766-0.423-1.196-0.624c-0.433-0.195-0.885-0.398-1.342-0.604
					c-1.808-0.877-3.814-1.543-5.081-1.864l-0.22-0.137c-2.332-0.673-4.36-1.225-6.243-1.514c-1.864-0.393-3.57-0.525-5.212-0.696
					c-0.819-0.111-1.632-0.104-2.446-0.132c-0.813-0.023-1.63-0.047-2.466-0.071c-1.671,0.094-3.422,0.192-5.391,0.303
					c-0.144,0.141-3.188,0.604-5.479,1.073c-5.649,1.177-11.813,3.306-17.713,7.029c-1.035,0.658-1.641,1.014-1.935,1.289
					c-0.31,0.251-0.376,0.32-0.375,0.339c0.002,0.037,0.274-0.125-0.58,0.566c-0.182,0.057-1.662,1.129-2.744,1.909
					c-1.008,0.869-1.637,1.425-0.335,0.176c-1.53,1.426-2.843,2.533-3.924,3.653c-1.043,1.158-1.983,2.201-2.969,3.295
					c-0.91,1.157-1.802,2.418-2.895,3.89c-0.558,0.729-1.001,1.622-1.58,2.546c-0.279,0.468-0.571,0.958-0.877,1.474
					c-0.316,0.509-0.63,1.052-0.892,1.661c0.135-0.253,0.274-0.514,0.402-0.754c0.15-0.227,0.287-0.434,0.393-0.594
					c0.214-0.318,0.309-0.442,0.154-0.146c-0.527,0.798-0.952,1.803-1.342,2.519c-0.375,0.723-0.642,1.197-0.609,1.059l0.205-0.456
					c-2.509,5.355-4.54,11.958-5.197,18.488c-0.104,1.635-0.207,3.252-0.307,4.831c0.005,0.396,0.01,0.789,0.015,1.18l0.008,0.58
					l-0.002,0.111c0.013,0.049-0.032,0.04-0.063,0.043l-0.214,0.022c-0.377,0.043-0.75,0.086-1.12,0.128
					c-0.74,0.088-1.465,0.175-2.174,0.259c-0.354,0.048-0.706,0.076-1.048,0.141c-0.34,0.077-0.675,0.152-1.006,0.227
					c-1.323,0.301-2.569,0.597-3.716,0.887l0.514-0.128c0,0-0.606,0.109-1.471,0.43c-0.871,0.295-2.033,0.688-3.194,1.082
					c-0.588,0.178-1.151,0.418-1.672,0.663c-0.524,0.235-1.014,0.454-1.433,0.642c-0.838,0.375-1.396,0.626-1.396,0.626
					c-0.518,0.223-0.876,0.354-1.084,0.478c-0.214,0.11-0.305,0.153-0.313,0.15c-0.007-0.004,0.07-0.054,0.193-0.13
					c0.125-0.071,0.287-0.188,0.476-0.27c0.741-0.357,1.617-0.78,0.054-0.161c-1.175,0.611-2.251,1.264-3.303,1.839
					c-0.517,0.302-1.047,0.557-1.522,0.877c-0.475,0.322-0.939,0.637-1.395,0.945c-0.908,0.622-1.802,1.192-2.64,1.791
					c-0.804,0.645-1.586,1.272-2.357,1.89c-0.386,0.309-0.77,0.616-1.151,0.921c-0.384,0.304-0.712,0.666-1.07,0.995
					c-0.701,0.676-1.4,1.352-2.109,2.037c-0.739,0.658-1.325,1.475-2.004,2.243c-0.647,0.795-1.364,1.569-1.995,2.46
					c-2.232,2.531-5.626,7.601-7.833,13.55c-0.261,0.747-0.523,1.498-0.785,2.25c-0.259,0.752-0.548,1.496-0.708,2.273
					c-0.364,1.54-0.791,3.049-1.09,4.529c-0.238,1.493-0.468,2.932-0.683,4.282c-0.19,1.353-0.226,2.632-0.361,3.777l0.176-0.521
					c0.007,1.184-0.052,1.898-0.13,2.538c-0.024,0.64-0.074,1.204-0.065,2.08c0.11-0.251,0.056-2.579,0.183-1.103
					c0.13,10.032,3.128,20.363,8.803,29.185c2.823,4.414,6.29,8.452,10.26,11.916c0.986,0.873,2.046,1.658,3.067,2.489
					c1.045,0.801,2.159,1.506,3.236,2.261c1.097,0.725,2.259,1.343,3.386,2.015c0.558,0.349,1.164,0.603,1.749,0.898l0.218,0.106
					l0.002,0.003l0.002,0.006l-0.002,0.009c-0.004,0.006,0.011-0.005,0.03,0.013c0.16-0.178-0.332,0.56-0.521,0.896
					c-0.48,0.779-0.694,1.358-0.939,1.986c-0.254,0.623-0.548,1.289-1.117,2.291c-0.302,0.491-0.614,1.1-0.999,1.845
					c-0.394,0.74-0.874,1.609-1.472,2.65l0.862-2.608c-0.41,0.872-0.82,1.745-1.232,2.621c-0.346,0.903-0.692,1.809-1.04,2.716
					l-0.525,1.359c-0.157,0.46-0.283,0.931-0.427,1.396l-0.843,2.8c-0.912,3.789-1.658,7.66-1.789,11.572
					c-0.388,7.8,0.856,15.693,3.82,22.619c-0.405-0.804-0.545-0.783-1.043-2.167c0.191,0.777,0.538,1.863,0.956,3.054
					c0.423,1.188,1.107,2.396,1.669,3.547c0.298,0.566,0.584,1.112,0.846,1.611c0.278,0.49,0.593,0.899,0.836,1.258
					c0.501,0.708,0.846,1.138,0.913,1.111c1.183,2.021,0.066,0.603,0.696,1.922c0.775,1.41,2.135,2.925,3.275,4.341
					c1.224,1.354,2.421,2.467,2.85,3.229c0.155,0.258-0.688-0.591-1.102-1.01c1.355,1.604,7.004,6.779,5.755,5.152
					c1.037,0.963,2.181,1.754,3.25,2.579c0.55,0.393,1.062,0.825,1.629,1.161c0.567,0.336,1.126,0.667,1.678,0.994
					c0.552,0.326,1.095,0.647,1.631,0.965c0.534,0.32,1.054,0.645,1.608,0.889c1.085,0.53,2.126,1.06,3.119,1.608
					c0.359,0.103,0.752,0.27,1.196,0.423c0.45,0.138,0.932,0.302,1.431,0.479c0.999,0.357,2.067,0.774,3.082,1.164
					c2.064,0.66,3.944,1.093,4.462,0.899c-0.135,0.139,0.385,0.416,1.312,0.715c0.94,0.229,2.288,0.478,3.765,0.712
					c1.47,0.302,3.097,0.298,4.564,0.337c1.469,0.021,2.785,0.064,3.676-0.106c-1.197,0.265,3.121,0.086,1.731,0.442
					c1.024-0.068,2.036-0.055,2.945-0.211c0.91-0.143,1.734-0.284,2.405-0.416c1.343-0.266,2.074-0.493,1.689-0.625
					c1.877-0.166,3.748-0.535,5.53-1c0.437-0.149,0.87-0.298,1.3-0.445l0.32-0.113l0.159-0.057l0.036-0.017l0.146-0.07l0.319-0.158
					c0.051-0.019,0.126-0.08,0.164-0.064l0.07,0.136c0.049,0.102,0.099,0.202,0.146,0.301l0.074,0.164l0.018,0.042l0.046,0.133
					l0.096,0.279c0.25,0.744,0.473,1.462,0.75,2.12c0.512,1.33,0.871,2.554,1.029,3.653c5.421,11.002,13.811,19.211,23.277,24.45
					c-0.34,0.208-3.01-1.229-5.333-2.995c-1.217-0.806-2.292-1.749-3.121-2.375c-0.828-0.626-1.39-0.967-1.433-0.744
					c1.023,0.811,1.992,1.579,2.921,2.314c0.969,0.679,1.928,1.282,2.84,1.885c0.897,0.625,1.841,1.111,2.757,1.604
					c0.924,0.477,1.79,1.017,2.725,1.424c1.865,0.824,3.685,1.715,5.731,2.412c1.994,0.827,4.203,1.429,6.642,2.189
					c1.281,0.332,0.896,0.335,0.072,0.245c-0.825-0.087-2.051-0.419-2.502-0.473c0.625,0.173,1.249,0.346,1.869,0.517
					c0.625,0.15,1.259,0.255,1.883,0.386c0.625,0.127,1.248,0.253,1.868,0.378l0.927,0.19l0.936,0.116
					c1.245,0.157,2.479,0.313,3.705,0.467c1.233,0.056,2.458,0.11,3.673,0.165c1.215,0.105,2.421-0.043,3.62-0.081
					c1.196-0.082,2.391-0.089,3.562-0.248c1.166-0.2,2.323-0.4,3.474-0.599c0.573-0.107,1.146-0.202,1.71-0.328
					c0.555-0.168,1.107-0.336,1.659-0.503c-0.012,0.073-0.952,0.419-1.853,0.686c1.757-0.451,4.125-0.941,3.83-1.229l-1.685,0.538
					c-1.463,0.11,0.221-0.605,2.252-1.385c0.254-0.097,0.514-0.195,0.774-0.294c0.252-0.123,0.504-0.247,0.753-0.368
					c0.494-0.243,0.971-0.479,1.391-0.686c0.837-0.417,1.438-0.733,1.488-0.825c-0.61,0.501-0.394,0.575,0.224,0.445
					c0.308-0.064,0.716-0.181,1.167-0.318c0.438-0.17,0.91-0.384,1.375-0.58c1.85-0.793,3.553-1.479,1.648,0.179
					c1.052-0.589,2.315-1.398,1.956-1.49c1.54-0.841,2.091-1.032,0.694,0.153c2.721-1.802,3.552-2.438,4.273-3.094
					c0.703-0.684,1.356-1.295,3.684-3.062c0.101,0.143-0.799,0.913-1.157,1.443c0.536-0.526,1.095-1.021,1.634-1.582
					c0.261-0.29,0.527-0.585,0.801-0.89c0.138-0.149,0.279-0.302,0.421-0.456l0.108-0.115l0.051-0.063l0.106-0.127
					c0.146-0.173,0.308-0.354,0.485-0.545c0.09-0.095,0.183-0.191,0.277-0.29l0.146-0.148l0.075-0.074
					c0.024-0.008,0.044,0.041,0.067,0.059c0.176,0.204,0.363,0.43,0.554,0.672c0.094,0.122,0.191,0.246,0.29,0.374l0.146,0.194
					l0.297,0.346c-0.138-0.072-0.137,0.019-0.225-0.008c-0.044-0.014-0.11-0.057-0.227-0.164c-0.08-0.071-0.138-0.133-0.248-0.268
					l0.253,0.295l0.531,0.566c0.354,0.372,0.702,0.737,1.045,1.098c0.672,0.734,1.428,1.347,2.121,1.995
					c0.69,0.652,1.444,1.209,2.165,1.79c0.713,0.59,1.468,1.119,2.228,1.65c3.034,2.126,6.27,4.09,10.369,6.215
					c-1.397-0.237-0.717,0.151,0.349,0.705c1.048,0.588,2.548,1.156,2.654,1.571c0-0.001,1.184,0.441,2.404,0.77
					c0.605,0.176,1.209,0.353,1.663,0.485c0.46,0.106,0.768,0.178,0.768,0.178c0,0.001-0.468-0.194-0.921-0.428
					c-0.451-0.234-0.902-0.469-0.902-0.469c4.18,1.374,8.072,1.628,11.765,2.206c0,0-0.204-0.001-0.51-0.003
					c-0.306-0.004-0.716,0.005-1.122-0.032c-0.815-0.053-1.631-0.106-1.631-0.106s2.031,0.32,4.083,0.421
					c1.021,0.099,2.047,0.101,2.816,0.108c0.768,0.011,1.28,0.018,1.28,0.018s-1.156-0.095-2.311-0.189
					c-0.578-0.032-1.15-0.131-1.58-0.188c-0.429-0.062-0.715-0.103-0.715-0.103c2.208,0.039,2.097-0.219,2.16-0.349
					c0.063-0.15,0.289-0.182,3.149-0.061c-0.579,0.063,0.496,0.01,1.998-0.026c1.501-0.048,3.44,0.001,4.569-0.059
					c0,0-0.014,0.002-0.014,0.004c1.05-0.267,2.105-0.537,3.292-0.781c0.599-0.099,1.214-0.274,1.876-0.457
					c0.664-0.175,1.378-0.344,2.16-0.507c0.859-0.015-0.467,0.852,0.097,0.846c0.478-0.28,1.347-0.533,2.374-0.927
					c1.016-0.428,2.22-0.897,3.439-1.374c1.242-0.424,2.396-1.093,3.427-1.638c1.023-0.561,1.89-1.072,2.418-1.492
					c-0.736,0.513-0.625,0.823-0.326,0.752c0,0,0.087-0.072,0.218-0.182c0.132-0.107,0.308-0.249,0.466-0.42
					c0.325-0.326,0.649-0.651,0.649-0.651c1.775-0.936,2.072-1.043,1.93-0.646c2.619-1.554,2.043-1.533,1.696-1.439
					c-0.377,0.047-0.589,0.094,2.353-1.949c-0.427,0.368-0.174,0.256-1.07,1.019c1.446-1.075,2.929-2.067,4.153-3.324
					c0.534-0.51,1.063-1.015,1.59-1.517l0.315-0.308c0.054-0.047,0.105-0.113,0.16-0.145l0.178,0.12l0.723,0.483
					c0.653,0.444,1.303,0.886,1.949,1.325c0.718,0.441,1.454,0.846,2.172,1.272c0.729,0.406,1.417,0.883,2.167,1.24
					c0.738,0.38,1.476,0.759,2.211,1.137c0.75,0.706-0.569,0.104-1.858-0.498c-1.309-0.56-2.464-1.34-1.632-0.515
					c4.271,2.266,9.027,3.918,13.846,4.924c4.82,1.072,9.716,1.255,14.32,1.229l-1.721-0.003c0.639-0.447,2.339-0.348,4.479-0.358
					c1.066-0.046,2.25-0.057,3.446-0.177c1.188-0.169,2.402-0.373,3.528-0.686c-1.108,0.274-1.394,0.704-1.104,0.564
					c0.79-0.106,1.569-0.283,2.353-0.49c0.784-0.203,1.577-0.408,2.385-0.617c1.571-0.562,3.236-1.038,4.893-1.821
					c3.36-1.426,6.952-3.37,10.794-6.213l-0.881,0.813c0.396-0.246,0.825-0.511,1.277-0.79c0.445-0.291,0.886-0.638,1.354-0.979
					c0.935-0.687,1.928-1.429,2.849-2.272c0.47-0.41,0.941-0.821,1.409-1.229c0.459-0.416,0.88-0.864,1.309-1.281
					c0.857-0.836,1.664-1.638,2.321-2.404c0.327-0.511,0.873-1.193,1.198-1.638c0.318-0.45,0.405-0.668-0.126-0.203
					c2.104-2.264,3.966-4.689,5.404-7.295l0.35-0.61l0.16-0.284c0.032-0.029,0.04-0.134,0.092-0.104l0.148,0.064
					c0.489,0.212,0.976,0.422,1.461,0.632c0.665,0.299,1.363,0.512,2.039,0.767c0.679,0.247,1.354,0.494,2.047,0.683
					c2.728,0.889,5.503,1.413,8.235,1.916c1.38,0.178,2.74,0.438,4.115,0.549c0.687,0.067,1.369,0.164,2.054,0.223l2.057,0.152
					c-1.311-0.022-3.138,0.036-2.092,0.073c0,0,0.586,0.006,1.465,0.014c0.439,0.005,0.952,0.01,1.501,0.015
					c0.548-0.038,1.132-0.078,1.716-0.119c1.167-0.08,2.334-0.161,3.209-0.222c0.438-0.017,0.8-0.066,1.051-0.12
					c0.252-0.043,0.396-0.067,0.396-0.067c-0.752-0.079-1.229,0.03-3.192-0.047c0.582-0.113,1.529-0.174,2.604-0.337
					c1.07-0.206,2.279-0.416,3.412-0.59c-4.099,0.762,0.089,0.367,1.9,0.144c-0.307,0.013,0.279-0.213,0.117-0.238
					c2.394-0.431,2.57-0.588,2.949-0.807c0.369-0.262,1.004-0.377,4.125-1.46l-0.294,0.218c0.574-0.229,1.139-0.455,1.699-0.68
					c0.558-0.231,1.124-0.431,1.653-0.734c1.077-0.56,2.178-1.119,3.385-1.686c1.095-0.294-2.325,1.234-2.405,1.472
					c1.687-0.835,3.342-1.674,4.811-2.74c0.752-0.5,1.498-0.986,2.243-1.447c0.755-0.446,1.412-1.013,2.132-1.463
					c-0.313,0.247-0.659,0.521-1.023,0.809c-0.359,0.295-0.752,0.58-1.172,0.826c-0.818,0.523-1.637,1.047-2.309,1.477
					c1.632-0.875,2.569-1.34,3.32-1.863c0.737-0.545,1.379-1.019,2.488-1.839l-0.22,0.159c0,0,0.322-0.235,0.806-0.589
					c0.24-0.178,0.521-0.385,0.821-0.607c0.279-0.249,0.578-0.514,0.876-0.779c1.191-1.063,2.384-2.125,2.384-2.125l-1.237,1.06
					c1.648-1.696,3.145-3.561,4.902-5.469c1.557-2.068,3.327-4.254,4.76-7.079c-2.972,5.381-0.404,0.945-0.503,1.436
					c0.876-1.362,2.188-3.454,1.868-2.829c0.589-1.388,1.147-2.507,1.768-3.771c0.153-0.317,0.311-0.643,0.475-0.982
					c0.127-0.355,0.26-0.727,0.4-1.118c0.275-0.784,0.568-1.658,0.886-2.667c0.04-0.086,0.361-0.825,0.538-1.496
					c0.179-0.67,0.339-1.234,0.312-0.89c0.916-3.796-0.301,0.875-0.276,0.538c0.349-1.461,0.727-3.046,1.13-4.737
					c0.244-1.72,0.594-3.535,0.813-5.448c0.052-0.963,0.105-1.946,0.159-2.946c0.036-1.001,0.146-2.019,0.079-3.053
					c-0.015-0.474-0.029-0.95-0.045-1.43c0.004-0.029-0.013-0.073,0.008-0.092l0.092-0.029l0.265-0.086l0.754-0.246
					c1.004-0.337,2.028-0.65,3.037-1.027c1.706-0.737,3.09-1.266,4.235-1.837c1.131-0.599,2.088-1.105,3.03-1.604
					c0.933-0.512,1.791-1.12,2.823-1.753c1.049-0.608,2.136-1.453,3.516-2.474c1.9-1.336-1.479,1.198-1.478,1.198
					c1.522-1.09,2.878-2.023,4.066-3.122c0.61-0.528,1.215-1.053,1.834-1.59c0.573-0.586,1.16-1.185,1.777-1.815
					c-0.488,0.522,0.042,0.012,0.817-0.738c0.992-1.014,1.223-1.443,1.607-1.886c0.348-0.473,0.85-0.967,1.983-2.45
					c-0.33,0.554-0.859,1.184-1.714,2.253c0.524-0.65,1.086-1.27,1.576-1.943c0.478-0.683,0.956-1.366,1.437-2.053
					c1.015-1.338,1.776-2.854,2.682-4.325c0.501-0.771-1.026,1.815-1.633,2.877c0.496-0.837,1.064-1.798,1.648-2.783
					c0.308-0.484,0.567-1.003,0.812-1.523c0.251-0.516,0.499-1.024,0.737-1.516c0.238-0.49,0.467-0.963,0.681-1.402
					c0.195-0.448,0.345-0.879,0.493-1.255c0.283-0.755,0.496-1.324,0.604-1.611l-0.933,2.311c0.519-1.317,0.308-0.662-0.067,0.314
					c-1.42,3.012-2.119,4.313-2.269,4.443c0.053,0.028,1.116-2.192,1.116-2.192c-0.15,0.284-0.332,0.628-0.542,1.026
					c-0.197,0.406-0.438,0.86-0.741,1.333c-0.588,0.954-1.23,2.098-1.972,3.269c-0.805,1.127-1.621,2.342-2.473,3.484
					c-0.915,1.095-1.806,2.16-2.6,3.109l1.26-1.639c0,0-0.201,0.245-0.502,0.614c-0.313,0.357-0.677,0.884-1.134,1.325
					c-0.879,0.916-1.757,1.833-1.757,1.833c-0.778,0.75-1.337,1.23,0.372-0.514c-0.637,0.616-1.077,1.08-1.451,1.422
					c-0.383,0.334-0.667,0.581-0.939,0.818c-0.543,0.476-1.036,0.915-2.213,1.88c-0.279,0.188-0.153,0.103,0.086-0.096l-2.774,2.069
					c0.535-0.418-0.511,0.272,1.217-0.963c-5.066,3.577-8.511,5.282-10.692,6.104l0.478-0.202c-1.994,0.809-3.024,1.275-3.575,1.464
					c-0.552,0.187-0.582,0.213-0.547,0.22c0.068,0.017,0.401-0.044-2.673,0.992c0,0-0.066,0.016-0.182,0.045
					c-0.103,0.031-0.265,0.05-0.431,0.118c-0.016,0.4-0.037,0.935-0.058,1.468c-0.01,1.09-0.17,2.172-0.17,2.172l0.073,0.849
					c-0.051,0.889-0.15,2.644-0.183,2.315c-0.116,3.306,0.108-0.558,0.051,1.364c-0.536,4.254-2.282,11.596-3.052,12.354
					c-0.423,1.481,1.492-3.813-0.008,0.505c-0.631,1.144-1.876,4.954-3.98,8.265c0.249-0.549,0.885-1.593,1.091-2.146
					c0.22-0.547,0.258-0.464-0.752,1.201c-0.524,1.049-1.462,2.711-2.636,4.345c-0.624,0.789-1.267,1.603-1.88,2.379
					c-0.304,0.39-0.6,0.771-0.883,1.135c-0.31,0.342-0.604,0.669-0.879,0.973c0.021,0.117-1.122,1.499-2.84,3.253
					c-0.911,0.824-1.947,1.762-3.011,2.724c-1.082,0.938-2.307,1.762-3.386,2.621c0.053-0.077-0.431,0.289-1.293,0.861
					c-0.895,0.521-2.161,1.261-3.576,2.086c-0.688,0.447-1.495,0.761-2.279,1.137c-0.79,0.364-1.589,0.733-2.368,1.092
					c-0.764,0.395-1.58,0.605-2.312,0.874c-0.738,0.25-1.425,0.483-2.029,0.688l0.125-0.101c-0.207,0.158-0.673,0.386-1.313,0.66
					c-0.66,0.208-1.5,0.446-2.429,0.699c-0.932,0.237-1.938,0.556-2.971,0.753c-1.039,0.168-2.077,0.336-3.027,0.489
					c0.121-0.229,0.793-0.411,2.825-0.799l-3.554,0.521c-0.414,0.099-0.891,0.271-1.567,0.324c-0.676,0.064-1.539,0.129-2.707,0.204
					l0.891-0.31c-1.192,0.04-2.388,0.165-3.609,0.179c-1.221-0.032-2.472,0.022-3.757-0.102c-0.644-0.048-1.298-0.096-1.965-0.146
					c-0.663-0.093-1.339-0.188-2.029-0.286c-0.693-0.087-1.393-0.229-2.105-0.397c-0.711-0.171-1.449-0.304-2.184-0.537
					c-0.205,0.108,0.941,0.585,1.356,0.842c0.205,0.136,0.222,0.229-0.221,0.219c-0.447,0.005-1.344-0.139-2.955-0.526
					c-0.197-0.212-0.355-0.531,1.319-0.149c-0.543-0.142-1.988-0.351-3.038-0.803c0,0,0.64,0.158,1.29,0.267
					c0.648,0.106,1.298,0.212,1.298,0.212c-2.689-0.837-1.479-0.19-3.628-0.891c0.058-0.101-0.325-0.27-0.676-0.421
					c-0.348-0.165-0.657-0.325-0.477-0.349c0.531,0.211,1.825,0.718,2.666,0.915c-1.199-0.41-2.514-0.887-3.603-1.415
					c-0.547-0.255-1.057-0.474-1.465-0.705c-0.437-0.259-0.792-0.469-1.029-0.609c0.13,0.131,0.089,0.198-0.256,0.116
					c-0.173-0.041-0.419-0.119-0.758-0.246c-0.168-0.065-0.361-0.142-0.582-0.228c-0.109-0.046-0.226-0.094-0.349-0.146
					c-0.073-0.063-0.101,0.025-0.136,0.089c-0.036,0.063-0.073,0.13-0.11,0.197c-0.4,0.68-0.717,1.219-0.97,1.648
					c-0.195,0.323-0.345,0.561-0.463,0.735c-0.235,0.351-0.342,0.452-0.42,0.498c-0.158,0.09-0.186-0.029-1.021,1.081
					c-0.256,0.52-0.828,1.398-1.341,2.152c-0.542,0.735-0.981,1.38-0.858,1.526c-0.854,1.109-1.148,1.202-1.593,1.531
					c-0.377,0.486-1.041,1.271-1.791,2.145c-0.807,0.823-1.699,1.733-2.478,2.527c-1.652,1.485-2.795,2.575-1.605,1.822l0.499-0.396
					c-0.087,0.082-0.188,0.178-0.295,0.279c0.016-0.014,0,0,0.016-0.014l-0.016,0.014c-2.968,2.793-6.547,5.155-10.345,6.993
					c-3.794,1.866-7.815,3.151-11.71,4.155l-0.021-0.146c-1.146,0.366-2.398,0.575-3.656,0.822
					c-1.252,0.284-2.547,0.371-3.788,0.538c-1.24,0.192-2.453,0.185-3.563,0.284c-1.111,0.112-2.125,0.104-2.99,0.148
					c-1.433-0.059-3.346-0.432-2.721-0.583c-1.827-0.164-2.843-0.255-4.062-0.365c-0.61-0.062-1.253-0.238-2.074-0.421
					c-0.813-0.217-1.822-0.394-3.072-0.836c3.636,0.607-1.185-0.475,3.714,0.646c-1.147-0.292-2.073-0.527-2.894-0.736
					c-0.801-0.27-1.499-0.505-2.207-0.744c-0.713-0.217-1.437-0.437-2.286-0.694c-0.837-0.295-1.806-0.607-3.032-0.975
					c0.895,0.106,0.081-0.266-1.13-0.933c-0.605-0.335-1.328-0.708-2.028-1.053c-0.353-0.168-0.697-0.333-1.017-0.486
					c-0.312-0.168-0.599-0.324-0.845-0.457c0,0,0.655,0.518,1.376,0.923c0.71,0.432,1.42,0.863,1.42,0.863
					c-2.33-1.002-4.185-2.237-6.073-3.445c-0.012,0.025,1.318,0.184,1.318,0.184c-0.502-0.327-0.973-0.686-1.428-1.054l-0.691-0.529
					c-0.365-0.265-0.728-0.527-1.088-0.788c-0.404-0.288-0.808-0.574-1.208-0.858l-0.6-0.423l-0.149-0.104
					c-0.049-0.016-0.103-0.117-0.146-0.039l-0.27,0.249c-0.711,0.666-1.414,1.325-2.11,1.977c-0.424,0.416-0.843,0.827-1.259,1.233
					c-0.378,0.379-0.752,0.754-1.122,1.125c-0.8,0.678-1.585,1.343-2.355,1.996c-1.492,1.389-3.19,2.382-4.797,3.415
					c-0.794,0.537-1.673,0.896-2.537,1.253c-0.866,0.354-1.736,0.671-2.614,0.939c-2.132,1.478,4.814-2.037,2.981-0.632
					c-1.014,0.473-2.057,0.908-3.064,1.305c-1.037,0.327-2.061,0.562-2.976,0.794c-0.921,0.216-1.732,0.441-2.419,0.563
					c-0.694,0.098-1.234,0.184-1.568,0.27c-1.479,0.291-2.532,0.605-3.404,0.856c-0.884,0.194-1.568,0.408-2.265,0.627
					c-0.696,0.219-1.406,0.443-2.338,0.661c-0.935,0.188-2.109,0.227-3.701,0.268c0.41,0.082,0.817,0.25,0.523,0.452
					c-0.147,0.101-0.471,0.21-1.061,0.322c-0.59,0.106-1.445,0.26-2.657,0.239c-2.267-0.064-3.625-0.477-4.063-0.729
					c-0.438-0.268,0.038-0.466,1.436-0.422c1.056,0.099,1.574,0.118,1.522,0.206c1.442-0.032,3.322-0.06,1.566-0.338l-0.574,0.188
					c-0.547-0.08-1.339-0.108-2.19-0.213c-0.849-0.107-1.763-0.223-2.564-0.324c-1.59-0.291-2.719-0.55-1.991-0.609
					c-1.66-0.127-2.013-0.195-1.67-0.023c0.342,0.173,1.417,0.381,2.633,0.62c-0.696-0.135-1.354-0.263-1.984-0.385
					c-0.624-0.146-1.22-0.284-1.797-0.418c-1.163-0.234-2.227-0.549-3.305-0.836c-2.146-0.597-4.288-1.327-6.906-2.598
					c0.773,0.512,1.5,1.011,0.632,0.678c-1.927-0.948-3.103-1.514-3.849-1.915c-0.756-0.38-1.125-0.511-1.425-0.592
					c-0.592-0.174-0.915-0.131-3.415-1.683c-1.278-1.087-0.919-1.068-0.872-1.178c0.058-0.122-0.237-0.286-2.607-2.008
					c-1.322-1.213-1.335-1.479-0.935-1.282c0.4,0.199,1.293,0.766,1.905,1.12c-1.118-0.707-2.07-1.561-2.987-2.361
					c-0.887-0.835-1.676-1.692-2.395-2.51c-0.34-0.427-0.669-0.839-0.986-1.236c-0.157-0.199-0.311-0.395-0.461-0.586
					c-0.219-0.288-0.433-0.569-0.643-0.845c-0.54-0.714-1.056-1.396-1.545-2.043c-0.251-0.327-0.497-0.645-0.734-0.954
					c-0.12-0.154-0.238-0.306-0.355-0.455l-0.174-0.222c-0.059-0.063-0.111-0.2-0.182-0.082c0.012-0.164,0.221,0.103,0.541,0.476
					c0.323,0.373,0.754,0.87,1.186,1.367c0.885,1.021,1.77,2.044,1.77,2.044c-1.073-1.241-2.01-2.355-2.9-3.433l-0.332-0.401
					l-0.164-0.2c-0.056-0.046-0.125,0.09-0.187,0.125c-0.253,0.235-0.504,0.47-0.755,0.702c-0.5,0.462-0.995,0.919-1.492,1.379
					c0,0,0.584-0.397,1.168-0.795c0.541-0.357,1.081-0.714,1.081-0.714c-1.096,0.968-2.107,1.86-2.839,2.507
					c-0.375,0.325-0.684,0.585-0.905,0.754c-0.127,0.1-0.164,0.115-0.204,0.128c-0.039,0.014-0.064,0.012-0.076-0.008
					c-1.062,1.349,1.426-0.354-0.82,2.2c-0.945,0.583-2.241,1.64-3.424,2.56c-0.572,0.487-1.208,0.803-1.701,1.079
					c-0.501,0.263-0.903,0.421-1.137,0.403c3.005-1.704,2.687-1.833,2.349-1.751c-0.356,0.054-0.829,0.15,1.433-1.63
					c-0.852,0.714-1.89,1.603-3.349,2.342c-0.24,0.076,0.134-0.218,0.496-0.478c-2.903,1.478-3.411,2.063-4.032,2.557
					c-0.299,0.266-0.599,0.55-1.208,0.954c-0.305,0.202-0.687,0.435-1.184,0.71c-0.505,0.256-1.089,0.644-1.902,0.905
					c0.687-0.588-1.693-0.003-2.691,0.441c2.54-0.938,1.417,0.025-0.886,1.139c-2.126,0.539-3.284,0.809-4.162,1.138
					c-0.442,0.157-0.822,0.292-1.228,0.437c-0.413,0.114-0.862,0.19-1.431,0.275c0,0,0.656-0.072,1.312-0.145
					c0.644-0.137,1.288-0.273,1.288-0.273c-0.781,0.615-2.99,0.855-6.03,1.438c-0.285-0.199,2.746-0.595,1.644-0.531
					c-0.413,0.133-0.845,0.243-1.292,0.336c-0.446,0.104-0.911,0.168-1.394,0.164c-0.963,0.027-1.977,0.005-3.027-0.021
					c-0.524-0.012-1.059-0.023-1.603-0.035c-0.542-0.049-1.095-0.099-1.656-0.148c-1.119-0.111-2.278-0.091-3.467-0.142
					c-2.16-0.484-0.153-0.601-2.035-0.979c-5.261-0.445-5.517-1.345-10.815-2.78c1.333,0.966,1.657,0.984-2.145-0.093
					c0,0,0.541,0.195,1.351,0.486c0.405,0.146,0.877,0.316,1.383,0.499c0.51,0.167,1.072,0.295,1.624,0.449
					c1.111,0.282,2.203,0.627,3.047,0.784c0.844,0.152,1.407,0.253,1.407,0.253s-0.367-0.04-0.918-0.1
					c-0.276-0.031-0.599-0.067-0.944-0.106c-0.34-0.066-0.702-0.138-1.064-0.209c-1.46-0.287-2.921-0.573-2.921-0.573
					c1.338,0.402,2.763,0.78,4.051,1.095c1.313,0.222,2.481,0.421,3.287,0.629c-2.819-0.26-2.53-0.303-1.286,0.311
					c-3.594-1.326-7.477-1.646-11.382-3.88l0.551-0.846c-1.413-0.84-2.818-1.474-4.114-2.29c-0.667-0.374-1.332-0.746-2.001-1.12
					c-0.671-0.373-1.298-0.828-1.97-1.245c-0.659-0.436-1.356-0.849-2.031-1.336c-0.655-0.514-1.329-1.043-2.031-1.594
					c-0.347-0.281-0.701-0.568-1.062-0.861c-0.333-0.324-0.672-0.656-1.02-0.995c-0.682-0.692-1.425-1.388-2.122-2.198
					c0,0,0.099,0.143,0.266,0.34c0.172,0.192,0.401,0.448,0.63,0.705c0.459,0.515,0.918,1.029,0.918,1.029
					c-1.133-0.498-3.751-3.76-5.483-5.945c0.414,0.018-0.514-1.455-1.04-2.516c-0.068,0.132-0.872-1.206-1.789-2.611
					c-0.482-0.69-0.903-1.448-1.276-2.052c-0.381-0.6-0.721-1.042-0.954-1.146c0,0-0.084-0.227-0.211-0.565
					c-0.125-0.339-0.309-0.782-0.426-1.255c-0.263-0.927-0.525-1.853-0.525-1.853c-0.287-0.813-0.634-1.504-0.829-2.177
					c-0.283-0.807-0.537-1.533-0.773-2.206c-0.313-0.87-0.603-1.636-0.875-2.328l-0.101-0.257c-0.043-0.065-0.178,0.049-0.261,0.063
					l-0.561,0.228c-0.36,0.148-0.715,0.296-1.069,0.441c-0.641,0.271-1.279,0.54-1.945,0.82c-0.465,0.212-0.953,0.428-1.485,0.648
					c-1.079,0.395-2.371,0.704-4.013,1.077c1.886-0.794-1.099-0.317,3.167-1.574c-2.154,0.503-4.1,0.908-4.094,1.129
					c-0.661,0.005-2.166,0.315-3.777,0.64c-0.802,0.192-1.642,0.264-2.407,0.308c-0.765,0.05-1.455,0.066-1.968,0.018
					c-0.467,0.091-0.776,0.22-1.284,0.339c-0.508,0.102-1.215,0.116-2.475,0.049c-0.275-0.076,0.014-0.151,0.014-0.151
					c-0.008,0.151-3.962,0.012-1.783,0.457c-0.431-0.072-0.882-0.148-1.351-0.228c-0.464-0.108-0.947-0.221-1.445-0.336
					c-0.996-0.217-2.054-0.419-3.152-0.61s-2.198-0.567-3.336-0.833c-1.131-0.3-2.3-0.533-3.396-0.979
					c-1.112-0.398-2.217-0.794-3.294-1.179c-1.063-0.42-2.043-0.959-2.999-1.416c-1.936-0.875-3.483-2.02-4.667-2.95
					c-4.164-2.509-8.844-6.205-11.667-9.648c0.251,0.148,0.117-0.085,0.655,0.551c-2.011-2.302-2.598-3.028-3.424-3.725
					c-0.396-0.36-0.809-0.745-1.371-1.403c-0.569-0.653-1.134-1.687-2.001-3.213c-1.47-3.287,2.145,3.044,1.129,1.047
					c0.072-0.329-0.169-0.934-0.605-1.722c-0.214-0.396-0.492-0.831-0.776-1.315c-0.257-0.5-0.536-1.042-0.827-1.609
					c-0.297-0.565-0.607-1.158-0.922-1.76c-0.324-0.6-0.635-1.217-0.851-1.868c-0.48-1.28-0.912-2.552-1.191-3.685l0.441,1.038
					c-0.118-0.43-0.259-0.877-0.418-1.341c-0.125-0.476-0.254-0.972-0.39-1.489c-0.285-1.031-0.625-2.135-0.992-3.312
					c-0.284-1.192-0.518-2.474-0.783-3.81c-0.315-1.332-0.378-2.754-0.439-4.218c0,0,0.092,0.287,0.133,0.035
					c-0.083-0.496-0.163-1.049-0.242-1.649c-0.09-0.6-0.16-1.246-0.148-1.929c-0.006-0.685-0.013-1.403-0.019-2.146
					c0.005-0.742-0.03-1.514,0.072-2.287c0.22-3.113,0.767-6.416,1.512-9.167c-0.052,0.447-0.114,0.827-0.168,1.131
					c-0.031,0.31-0.055,0.544-0.07,0.689c-0.018,0.294,0.04,0.238,0.311-0.246c0.637-2.448-0.749,0.588,0.64-4.326
					c0.739-1.501,2.215-4.865,2.811-5.109c-0.107-0.047-1.815,4.396-1.815,4.396c0.681-1.045,1.163-2.498,1.783-3.911
					c0.315-0.704,0.738-1.411,1.04-2.085C32.248,185.84,32,185.196,33,184.68v0.366c1-1.553,1.443-2.783,2.063-3.756
					c0.779-1.206,1.36-2.187,2.006-3.186l0.25-0.426l0.125-0.212c0.029-0.066,0.146-0.157,0.002-0.178
					c-0.336-0.144-0.68-0.289-1.033-0.44c-0.648-0.28-1.34-0.579-2.108-0.912c-1.156-0.438-2.444-1.181-4.169-2.133l0.643,0.509
					c-0.498-0.217-0.928-0.397-1.285-0.587c-0.35-0.2-0.644-0.38-0.9-0.546c-0.512-0.332-0.873-0.608-1.229-0.887
					c-0.732-0.534-1.39-1.149-3.197-2.333c0,0-0.77-1.119-0.75-1.139c-0.551-0.447-1.309-1.063-2.197-1.783
					c-0.899-0.713-1.809-1.664-2.833-2.604c-1-0.963-1.937-2.086-2.913-3.141c-0.892-1.121-1.753-2.238-2.513-3.272
					c0.473,0.558,1.068,1.26,1.734,2.045c0.63,0.811,1.409,1.636,2.203,2.477c0.393,0.423,0.79,0.851,1.184,1.274
					c0.422,0.396,0.842,0.789,1.25,1.173c0.823,0.759,1.573,1.505,2.317,2.051c-0.542-0.442-1.207-1.109-1.94-1.854
					c-0.738-0.739-1.572-1.53-2.278-2.383c-0.718-0.84-1.471-1.601-2.01-2.297c-0.547-0.689-0.992-1.226-1.25-1.492
					c0.714,0.884,1.607,1.988,2.31,2.857c-2.429-2.441-5.291-6.096-7.654-11.243c0.558,0.292-1.031-3.008-2.254-7.116
					c-0.277-1.034-0.565-2.106-0.849-3.163c-0.198-1.077-0.394-2.138-0.576-3.13c-0.307-1.993-0.375-3.735-0.385-4.747
					c-0.86-9.824,1.024-19.861,6.65-29.914c-2.386,3.357,1.645-2.939,0.955-2.543c1.53-2.229,2.128-3.072,2.287-3.251
					c0,0,0.077-0.103,0.21-0.283c0.127-0.184,0.326-0.436,0.592-0.715c0.513-0.572,1.198-1.334,1.882-2.096
					c0.341-0.381,0.682-0.761,1.002-1.118c0.351-0.327,0.679-0.632,0.96-0.893c0.561-0.522,0.935-0.871,0.935-0.871
					c1.461-1.282-1.759,1.858-1.515,1.742c2.104-2.057,2.57-2.46,2.865-2.682c0.147-0.11,0.251-0.176,0.497-0.378
					c0.264-0.181,0.679-0.487,1.442-1.083c-0.35,0.199,0.012-0.163,0.791-0.836c0.39-0.335,0.879-0.754,1.442-1.209
					c0.602-0.402,1.271-0.849,1.965-1.313c0,0-1,0.627-2,1.254c-0.94,0.714-1.88,1.428-1.88,1.428
					c0.788-0.661,1.433-1.273,2.068-1.714c0.642-0.433,1.193-0.804,1.685-1.134c1-0.631,1.722-1.162,2.533-1.546
					c1.629-0.749,3.126-1.75,6.936-3.399l-2.355,1.149c0.969-0.43,2.337-1.071,3.939-1.731c0.822-0.274,1.697-0.565,2.598-0.865
					c0.905-0.289,1.818-0.652,2.781-0.833c1.91-0.409,3.789-0.987,5.512-1.151c0.854-0.129,1.652-0.25,2.367-0.358
					c0.539-0.082,1.047-0.159,1.518-0.231c0.094,0.014,0.068-0.072,0.066-0.138l-0.01-0.197c-0.007-0.128-0.013-0.254-0.02-0.376
					c-0.014-0.229-0.027-0.449-0.039-0.657c0.009-0.379,0.028-0.816,0.055-0.925c0.014-0.055,0.029-0.027,0.045,0.131
					c0.006,0.08,0.015,0.191,0.026,0.341c0.007,0.167,0.017,0.378,0.029,0.638c-0.016-0.657-0.032-1.324-0.049-1.999
					c0.03-0.652,0.061-1.311,0.092-1.976c0.029-0.665,0.058-1.336,0.088-2.011c0.036-0.674,0.026-1.357,0.153-2.029
					c0.191-1.351,0.384-2.711,0.576-4.066c0.228-1.35,0.625-2.661,0.924-3.976c1.409-5.197,3.489-9.943,5.707-13.233l-0.336,0.696
					c0.473-0.826,0.885-1.547,1.327-2.318c0.208-0.396,0.466-0.775,0.772-1.168c0.297-0.399,0.623-0.824,0.994-1.289
					c-0.051,0.119-0.401,0.66,0.129-0.043c0.146-0.205,0.402-0.566,0.727-1.023c0.334-0.45,0.693-1.034,1.197-1.561
					c0.96-1.092,2.057-2.322,2.923-3.242l-1.39,1.652c0.421-0.457,0.831-0.9,1.229-1.331c0.386-0.443,0.847-0.789,1.248-1.173
					c0.821-0.751,1.6-1.463,2.348-2.147c1.55-1.3,3.06-2.388,4.486-3.501c1.536-0.951,2.994-1.947,4.581-2.858
					c0.819-0.41,1.653-0.828,2.517-1.26c0.867-0.425,1.747-0.907,2.744-1.232c0.04,0.12,1.891-0.523,4.217-1.248
					c1.187-0.282,2.493-0.591,3.74-0.887c0.311-0.075,0.618-0.149,0.918-0.222c0.303-0.062,0.606-0.089,0.896-0.134
					c0.581-0.081,1.124-0.156,1.607-0.224l-0.126,0.052c2.843-0.54,5.519-0.54,8.06-0.698c1.271-0.002,2.514,0.07,3.737,0.097
					c1.223,0.052,2.417,0.233,3.613,0.338c4.752,0.616,9.358,1.77,14.283,3.902c0.375,0.182,0.782,0.378,1.218,0.59
					c0.423,0.237,0.874,0.49,1.35,0.758c0.953,0.533,2.027,1.082,3.098,1.811c0.272,0.173,0.55,0.35,0.831,0.53
					c0.417,0.258,0.841,0.52,1.271,0.786l0.387,0.237c0.061,0.02,0.138,0.124,0.186,0.075l0.134-0.183l0.542-0.74
					c0.254-0.348,0.512-0.699,0.771-1.055c0.817-1.185,1.813-2.308,2.776-3.493c2.036-2.279,4.31-4.513,6.716-6.437
					c2.436-1.877,4.892-3.579,7.256-4.786c-0.718,0.376-0.697,0.286-0.292-0.023c0.403-0.312,1.188-0.848,2.039-1.268
					c2.216-1.166,6.25-2.988,6.001-2.515l-0.841,0.29c0.953-0.137,2.592-0.732,4.544-1.209c0.485-0.127,0.98-0.279,1.491-0.402
					c0.514-0.111,1.036-0.224,1.557-0.336c0.521-0.112,1.042-0.224,1.554-0.334c0.518-0.078,1.027-0.155,1.519-0.229l0.584-0.581
					c0.327-0.03,0.66-0.06,0.999-0.091c0.34-0.013,0.687-0.026,1.038-0.04c0.7-0.036,1.421-0.073,2.158-0.11
					c0.737-0.004,1.492-0.008,2.258-0.012c0.766-0.017,1.542-0.016,2.328,0.034c3.14,0.083,6.399,0.438,9.456,1.064
					c6.136,1.184,11.395,3.513,13.68,5.22c2.268,1.074,4.913,2.714,6.971,4.131l-0.306,0.191c2.719,2.142,4.593,3.94,6.512,5.967
					c0.514,0.577,1.038,1.164,1.583,1.776c0.237,0.26,0.476,0.521,0.718,0.787l0.182,0.199c0.065,0.057,0.173,0.005,0.257,0.013
					l0.544-0.037c0.545-0.038,1.105-0.077,1.68-0.116c0.349-0.029,0.703-0.059,1.062-0.088c0.194-0.023,0.401-0.021,0.588-0.064
					l0.415-0.454c0.379-0.416,0.77-0.844,1.174-1.288c0.604-0.7,1.314-1.387,2.068-2.142l-1.056,1.398
					c1.694-1.688,2.656-2.865,3.599-4.041c0.491-0.563,0.975-1.126,1.557-1.726c0.588-0.591,1.312-1.17,2.219-1.837
					c0,0,0.358-0.081,0.725-0.142c0.363-0.064,0.725-0.128,0.725-0.128c3.543-2.281,7.435-4.035,11.433-5.333
					c4.012-1.279,8.114-2.116,12.227-2.732c-0.128,0.11-0.362,0.269-1.701,0.448c1.958-0.215,5.771-0.387,8.899-0.158
					c1.563,0.069,2.952,0.243,3.878,0.232c0.918,0.058,1.372,0.006,1.047-0.264c0.008,0.298,2.15,0.572,4.808,1.158
					c0.673,0.112,1.359,0.312,2.064,0.485c0.701,0.188,1.43,0.33,2.12,0.546c1.376,0.443,2.732,0.801,3.788,1.241l-0.801,0.096
					c1.851,0.528,2.846,0.758,3.942,1.222c0.553,0.223,1.155,0.461,1.906,0.825c0.734,0.395,1.641,0.874,2.814,1.555
					c1.028,0.78,0.761,0.888-0.615-0.118c3.404,2.558,3.061,1.452,6.914,4.964c0,0-0.407-0.27-0.814-0.539
					c-0.403-0.272-0.818-0.526-0.818-0.526c3.313,2.874,3.064,2.609,5.035,4.091c0.989,0.971,2.403,2.53,3.428,4.052
					c0.546,0.733,0.988,1.459,1.295,2.049c0.333,0.608,0.466,0.949,0.599,1.299c0.088,0.077,0.201,0.187,0.333,0.325
					c0.064,0.069,0.136,0.145,0.212,0.227l0.116,0.127c0.035,0.052,0.08,0.09,0.156,0.083c0.462,0.057,1.039,0.128,1.697,0.209
					c0.253,0.036,0.521,0.074,0.801,0.114c0.145,0.024,0.291,0.048,0.441,0.073c0.195,0.037,0.394,0.075,0.596,0.113
					c0.199,0.029,0.407,0.104,0.605,0.1c0.182-0.11,0.366-0.221,0.552-0.333l0.554-0.324l0.425-0.238
					c0.337-0.041-0.278,0.432-1.013,0.919c0.882-0.505,1.706-0.978,2.484-1.424c0.684-0.436,1.382-0.743,2.014-1.095
					c0.635-0.347,1.236-0.675,1.813-0.99c0.595-0.281,1.164-0.549,1.717-0.811c0.554-0.261,1.092-0.515,1.623-0.766
					c0.551-0.202,1.095-0.402,1.641-0.603c0.549-0.193,1.103-0.378,1.673-0.555c0.573-0.167,1.178-0.269,1.799-0.39
					c0.142,0.099,0.473,0.079,0.89,0.01c-5.651,1.422-9.868,3.559-9.489,3.318c0.158,0.304,4.459-1.434,1.266,0.477
					c0.828-0.417,1.786-0.962,2.866-1.475c1.099-0.46,2.274-1.018,3.518-1.464c1.257-0.393,2.526-0.879,3.802-1.149
					c1.275-0.255,2.502-0.563,3.643-0.64c0.224,0.01,0.447,0.019,0.617,0.055l-0.459,0.093c1.042-0.083,1.979-0.224,2.849-0.386
					c1.459-0.023,2.381,0,3.78-0.06c0.269,0.118,1.601,0.233,3.157,0.282c0.389,0.013,0.792,0.025,1.196,0.038
					c0.401,0.042,0.804,0.084,1.193,0.125c0.779,0.085,1.51,0.166,2.084,0.229c-0.138-0.427,2.891,0.083,0.09-0.625
					c0.368,0.07-0.447-0.005-1.996-0.169c-0.352-0.03-0.765-0.072-1-0.077c0.049-0.004,0.104-0.009,0.168-0.015
					c-0.767-0.095-1.66-0.068-2.64-0.116c-0.981-0.026-2.055-0.101-3.195-0.015c0.924-0.165,1.875-0.221,2.921-0.212
					c1.044,0.029,2.194-0.015,3.476,0.288c1.221-0.099,2.587-0.209,3.355-0.211c1.551,0.598,3.853,1.16,5.771,1.957
					c1.958,0.662,3.53,1.486,3.882,1.758c1.717,0.498,3.465,1.355,5.291,2.128c1.748,0.932,3.571,1.821,5.19,2.899
					c1.69,0.969,3.15,2.128,4.537,3.054c1.325,1.002,2.468,1.917,3.43,2.556c1.487,1.432,1.52,1.829,1.982,2.442
					c-0.87-0.807-1.83-1.832-2.348-2.215c0.75,0.694,1.64,1.599,2.592,2.549c0.921,0.978,1.807,2.09,2.683,3.083
					c1.611,2.096,2.962,3.916,3.343,4.263c1.264,2.274,0.809,1.687,0.505,1.302c-0.151-0.193-0.265-0.338-0.107-0.057
					c0.136,0.294,0.646,0.956,1.427,2.555l-0.537-0.803c0.694,1.604,1.498,3.059,2.042,4.569c0.386,0.935,0.766,1.852,1.139,2.756
					c0.038,0.435,0.45,0.229,0.744,0.222l0.931-0.114l0.73-0.098l0.562-0.083c0.748-0.117,1.486-0.231,2.22-0.346
					c0.739-0.058,1.473-0.115,2.204-0.171c0.732-0.06,1.462-0.12,2.192-0.179c0.732,0.007,1.465,0.015,2.2,0.022
					c5.857,0.018,12.114,0.899,19.164,4.279c-0.949-0.523-1.473-0.653-1.659-0.789c1.061,0.344,2.028,0.917,3.044,1.385
					c0.994,0.513,2.046,0.927,3.005,1.519c1.912,1.188,3.919,2.258,5.692,3.69c3.735,2.604,6.98,5.894,9.932,9.379l2.074,2.734
					l0.518,0.684l0.454,0.727l0.896,1.459l0.895,1.458l0.447,0.729l0.376,0.766c0.496,1.024,0.991,2.045,1.485,3.065l0.37,0.764
					c0.11,0.26,0.198,0.529,0.299,0.793l0.581,1.589l0.579,1.585c0.193,0.527,0.397,1.05,0.514,1.599
					c0.516,2.177,1.21,4.301,1.427,6.5c0.19,1.235,0.339,2.194,0.461,2.987c0.097,0.795,0.104,1.43,0.156,1.999
					c0.088,1.142,0.158,2.044,0.275,3.569c0,0-0.021,0.271-0.054,0.542c-0.03,0.271-0.062,0.542-0.062,0.542
					s-0.001,0.327-0.004,0.817c-0.015,0.489,0.021,1.146-0.039,1.797c-0.086,1.306-0.172,2.612-0.172,2.612
					c-0.408,3.692-1.183,6.835-2.26,10.119c-0.274,0.82-0.542,1.659-0.896,2.496c-0.343,0.839-0.649,1.723-1.074,2.599
					c-0.201,0.443-0.405,0.895-0.615,1.356l-0.167,0.371c-0.029,0.086-0.103,0.179-0.095,0.26l0.194,0.219
					c0.176,0.196,0.354,0.394,0.534,0.594c0.714,0.786,1.462,1.609,2.253,2.479l-0.777-0.932c1.199,1.197,2.712,3.409,4.023,5.153
					c1.187,1.829,2.006,3.31,1.855,3.069c0.164,0.304,0.65,0.907,1.22,2.099l0.021,0.109c0,0,0.901,1.866,1.803,3.731
					c0.41,0.949,0.73,1.938,1.011,2.663c0.269,0.729,0.447,1.216,0.447,1.216c0.584,1.504,0.663,2.256,0.764,2.595
					c0.077,0.347,0.057,0.317,0.06,0.378s0.028,0.21,0.198,0.913c0.13,0.71,0.596,1.935,0.875,4.267
					c0.134,0.86,0.297,1.902,0.463,2.963c0.134,1.063,0.146,2.156,0.219,3.094c0.115,1.878,0.195,3.161,0.174,2.508
					c-0.068-1.403-0.163-3.591-0.143-3.706l0.173,3.19c0.098,0.575,0.309,3.049-0.039-4.822c0,0-0.215-1.353-0.431-2.705
					c-0.108-0.677-0.216-1.353-0.297-1.859c-0.04-0.253-0.074-0.464-0.098-0.612c-0.038-0.145-0.06-0.228-0.06-0.228l-0.398-1.728
					c0,0,0.071,0.28,0.178,0.7c0.094,0.422,0.276,0.974,0.361,1.545c0.173,1.142,0.345,2.284,0.345,2.284
					c-0.278-2.611-0.802-4.2-1.271-5.998c-0.114-0.424-0.206-1.196-0.581-2.224c0,0-0.475-1.262-0.948-2.522
					c-0.237-0.63-0.474-1.26-0.651-1.732c-0.223-0.453-0.371-0.755-0.371-0.755c-0.249-0.604,1.093,2.164-0.438-1.118
					c-1.113-2.268,0.969,2.217-0.841-1.548c-0.522-1.206-0.761-1.605-1.025-2.055c-0.259-0.452-0.556-0.949-1.357-2.264
					c-0.199-0.378,0.147,0.176,0.78,1.22c-0.355-0.588-0.767-1.271-1.196-1.983c-0.397-0.733-0.979-1.386-1.447-2.064
					c-0.999-1.311-1.813-2.558-2.347-3.032c-0.451-0.519-1.056-1.212-1.707-1.959c-0.329-0.372-0.67-0.758-1.009-1.141
					c-0.121-0.097-0.05-0.097,0.072-0.397c0.104-0.229,0.208-0.455,0.31-0.675c0.847-1.748,1.363-3.228,1.377-3.078
					c0.362-0.785,1.545-4.589,2.128-7.035c-0.532,2.24,0.129-0.028,0.655-2.77c0.214-1.376,0.481-2.856,0.578-3.928
					c0.111-1.07,0.193-1.718,0.207-1.412c0.073-0.853,0.067-2.054,0.106-3.465c0.027-1.412-0.125-3.034-0.184-4.741
					c-0.02-0.426-0.04-0.858-0.061-1.293c-0.042-0.433-0.122-0.865-0.182-1.3c-0.13-0.87-0.26-1.743-0.388-2.605
					c-0.183-1.739-0.734-3.354-1.095-4.823c0.096,0.321,0.287,0.964,0.408,1.485c-0.42-1.654-0.629-2.74-0.895-3.649
					c-0.299-0.901-0.55-1.658-0.896-2.702c-0.208-0.395-2.316-5.277-3.899-7.67c-1.989-3.676,1.495,2.068,0.971,0.863
					c-0.011,0.127-0.975-1.42-1.861-2.835c-0.84-1.447-1.81-2.621-1.441-2.012c-1.799-2.646-1.587-2.251-2.431-3.693
					c-0.587-0.242-1.991-2.232-3.947-4.041c-1.657-1.626-1.833-1.885-2.068-2.157c-0.118-0.136-0.251-0.276-0.593-0.596
					c-0.172-0.158-0.396-0.361-0.693-0.634c-0.324-0.24-0.73-0.54-1.245-0.92C430.813,64.615,434.55,67.242,434.483,67.327z
					 M331.912,20.764l-0.002-0.008c1.033-0.211,1.938-0.253,2.501-0.34C333.898,20.498,333.158,20.521,331.912,20.764z
					 M321.981,23.331c1.195-0.361,2.644-0.95,4.256-1.319c0.385,0.042,0.046,0.278-0.955,0.532
					C325.785,22.269,323.468,22.936,321.981,23.331z M343.201,22.869c-1.551,0.001-2.068-0.093-2.274-0.18
					c0.729,0.014,1.581,0.029,2.708,0.05c0.042-0.009,0.139-0.031,0.182-0.041C343.667,22.767,343.491,22.829,343.201,22.869z"/>
				<path fill="#747474" d="M346.021,22.569c0.228,0.018,0.354,0.016,0.643,0.047c-0.313-0.066-0.613-0.129-0.913-0.193
					c-0.196,0.019-0.393,0.039-0.562,0.055C345.464,22.508,345.759,22.541,346.021,22.569z"/>
				<path fill="#747474" d="M333.68,286.676l-0.164,0.131c0.143-0.103,0.273-0.197,0.368-0.248
					C333.766,286.636,333.758,286.627,333.68,286.676z"/>
				<polygon fill="#747474" points="203.713,8.747 203.691,8.824 204.528,9.163 				"/>
				<path fill="#747474" d="M381.14,276.198c0.108-0.005,0.317-0.036,0.726-0.122C381.831,276.067,381.518,276.125,381.14,276.198z"
					/>
				<path fill="#747474" d="M402.859,266.042c0,0,0.692-0.502,1.385-1.005c0.642-0.564,1.282-1.13,1.282-1.13
					c-0.563,0.479-1.025,0.923-1.473,1.263C403.6,265.502,403.207,265.787,402.859,266.042z"/>
				<path fill="#747474" d="M415.319,252.396c0.098-0.217,0.114-0.285,0.129-0.348c-0.008,0.012-0.014,0.021-0.02,0.029
					L415.319,252.396z"/>
				<path fill="#747474" d="M159.86,300.563c-0.259,0.048-0.503,0.094-0.727,0.135C157.441,301.056,158.602,300.839,159.86,300.563z
					"/>
				<path fill="#747474" d="M235.952,304.969c-0.456,0.11-0.91,0.238-1.375,0.331c-0.469,0.058-0.944,0.117-1.429,0.177
					C234.737,305.485,235.944,305.236,235.952,304.969z"/>
				<path fill="#747474" d="M80.995,265.836c0.015-0.003,0-0.004,0.015-0.008c-0.221,0.01-0.412,0.018-0.633,0.027L80.995,265.836z"
					/>
				<path fill="#747474" d="M229.021,305.678c1.582,0.023,2.91-0.071,4.126-0.201C231.85,305.511,230.329,305.545,229.021,305.678z"
					/>
				<path fill="#747474" d="M458.099,191.476c0,0,0.105-0.196,0.19-0.402c0.082-0.207,0.164-0.414,0.164-0.414
					c-0.008,0.013,0.009-0.038,0.031-0.102c0,0-0.09,0.232-0.18,0.465C458.218,191.256,458.099,191.476,458.099,191.476z"/>
				<path fill="#747474" d="M458.484,190.558l0.357-0.923C458.678,190.058,458.537,190.422,458.484,190.558z"/>
				<path fill="#747474" d="M459.594,187.693l-0.752,1.941C459.102,188.964,459.421,188.139,459.594,187.693z"/>
				<path fill="#747474" d="M443.342,210.743l-0.195,0.204C443.259,210.843,443.328,210.771,443.342,210.743z"/>
				<path fill="#747474" d="M437.3,215.075c1.55-0.869,3.744-2.421,5.686-3.961l0.161-0.167c-0.401,0.43-1.541,1.197-2.701,2.041
					C439.307,213.864,438.006,214.613,437.3,215.075z"/>
				<path fill="#747474" d="M421.469,236.454c0,0,0.1-0.373,0.249-0.934c0.147-0.562,0.375-1.304,0.466-2.074
					c0.246-1.528,0.492-3.057,0.492-3.057c-0.21,1.064-0.492,2.457-0.067-0.32c-0.672,3.838-0.585,3.441-0.487,3.092
					c0.048-0.176,0.099-0.343,0.059,0.036c-0.026,0.189-0.07,0.514-0.142,1.043C421.905,234.757,421.721,235.473,421.469,236.454z"
					/>
				<path fill="#747474" d="M413.477,253.741c1.83-2.758-0.057,0.01-0.023-0.183C412.232,255.264,411.938,255.684,413.477,253.741z"
					/>
				<path fill="#747474" d="M293.741,298.438l0.368-0.356C291.616,297.815,294.066,298.234,293.741,298.438z"/>
				<path fill="#747474" d="M268.365,291.038c0.001,0,1.939,1.702,1.975,1.654l1.25,0.294c0,0-0.824-0.456-1.649-0.912
					C269.153,291.556,268.365,291.038,268.365,291.038z"/>
				<path fill="#747474" d="M255.604,295.344l0.886-0.614c0,0-3.425,2.322-3.487,2.216c0,0,0.169-0.088,0.423-0.221
					c0.26-0.122,0.588-0.319,0.902-0.539C254.966,295.765,255.604,295.344,255.604,295.344z"/>
				<path fill="#747474" d="M55.364,256.763l0.476,0.755C57.414,258.179,57.938,257.837,55.364,256.763z"/>
				<path fill="#747474" d="M31.018,174.061c-0.896-0.63-3.146-2.257-4.659-3.087C28.18,172.243,29.969,173.592,31.018,174.061z"/>
				<path fill="#747474" d="M177.178,6c0,0-0.125,0.009-0.311,0.023c-0.187,0.009-0.434,0.033-0.681,0.073
					c-0.494,0.068-0.987,0.136-0.987,0.136s0.232-0.026,0.582-0.064c0.349-0.038,0.813-0.098,1.282-0.106
					c0.936-0.043,1.871-0.086,1.871-0.086L177.178,6z"/>
			</g>
		</g>
	</g>
</g>
<g>
	<g>
		<path fill="#606060" d="M106,60c-3,4-9,4-11,0c0-1,0-4,0-5c2-3,4-8,10-7c5,1,5,6,3,10l1,1c0,1-1,2-2,3C107,61,106,61,106,60
			L106,60z M104,59c-1,0-1-1-2-1c0-1,1-2,1-2c1,0,2,1,3,1c1-1,2-4,0-5c-4-3-9,0-9,5C97,60,102,61,104,59L104,59z"/>
		<path fill="#606060" d="M112,54c0-3-1-6,0-8c0,0,2,0,3,0c-1,3-1,5-1,8s4,4,6,2c2-3,2-7,2-11c1,0,2,0,2,0c1,5,1,11-4,14
			C117,60,110,60,112,54L112,54z"/>
		<path fill="#606060" d="M128,44c3,0,7,1,10-1c0,1,0,2,0,2c-2,1-5,1-8,1c0,1,0,3,0,4c2-1,5-1,7-1c0,1-1,2-1,2c-2,0-5,0-7,1
			c0,1,0,3,0,3c2,1,5,0,8,0c0,0,0,1,0,2c-4-1-7,2-11,1C128,53,126,49,128,44L128,44z"/>
		<path fill="#606060" d="M141,43c4-1,5,4,6,7c3-2,2-7,8-7c-2,5,0,10-2,14c-1,0-2,0-3,0c1-3,1-7,2-10c-2,2-4,4-5,6c-1-2-3-4-4-6
			c0,3,1,7-1,10c-1,0-2,0-3,0C140,52,142,48,141,43L141,43z"/>
		<path fill="#606060" d="M165,44c3-1,7,2,10,1c0,1,0,2,0,2c-3,1-5,0-8-1c0,1-1,3-1,4c2,0,5,0,7,1c0,1-1,2-1,2c-2,0-4-2-6-1
			c-1,1-1,3-1,4c3,0,5,0,8,1c0,1-1,1-1,2c-3-2-7-1-10-1C163,53,164,49,165,44L165,44z M172,41c1,0,1,1,2,1c-1,1-2,3-5,1
			C170,42,171,42,172,41L172,41z"/>
		<path fill="#606060" d="M182,54c1-4,4-8,9-6c3,2,6,5,5,9c-1,3-4,4-6,5s-4,0-6-1C182,59,180,57,182,54L182,54z M193,56c0-1,0-1,0-2
			c-1-5-5-5-8-2c-2,2-2,5,0,7S192,61,193,56L193,56z"/>
		<path fill="#606060" d="M203,59c2-2,5-6,9-5c2,0,4,1,5,3c0,1-1,1-2,2c0-1-1-1-1-2c-1-1-3-2-5-1c-3,2-4,6-2,9c2,2,5,1,7,0
			c0,0,1,1,1,2c-4,2-8,2-11-2C203,63,203,61,203,59L203,59z"/>
		<path fill="#606060" d="M220,56c1,0,1,0,2,0c-2,3,0,8-2,11c2,1,5,1,7,2c0,0,0,1,0,2c-3-1-7-1-10-2C218,65,219,60,220,56L220,56z"
			/>
		<path fill="#606060" d="M232,57c1,0,2,1,2,1c-1,4,0,9-2,13c-1,0-2,0-3,0C230,66,231,62,232,57L232,57z"/>
		<path fill="#606060" d="M238,58c3,0,7-1,10,0c0,0,0,2,0,3c-3-1-6-2-8-1c-1,1-1,3-1,4c2,0,5,0,7,0v2c-2,0-5-1-7,0c-1,1-1,3-1,4
			c3,0,5,0,8,0c0,0,0,1,0,2c-3,0-8,1-9-1C234,67,238,62,238,58L238,58z"/>
		<path fill="#606060" d="M251,58c1,0,2,0,2,0c2,3,4,7,7,9c0-3,0-6,1-9h2c1,4-2,9-1,13c-5,3-6-6-9-9c-1,3-1,7-1,10c-1,0-2,0-3,0
			C251,67,249,63,251,58L251,58z"/>
		<path fill="#606060" d="M270,59c-2,0-3,1-5,1c0-1,1-2,1-2c3-2,8,0,11-2c0,1,0,1,0,2c-9-1-3,8-6,12c-1,0-1,1-2,1
			C269,67,268,63,270,59L270,59z"/>
		<path fill="#606060" d="M279,56c4-1,7-3,11-2c0,1-1,1-1,2c-2,4-6-5-8,5c2-1,5-2,7-1v2c-2,1-5,1-7,1c0,1,0,3,0,4c3-1,5-1,8-2
			c0,1,0,2,0,2c-3,1-6,2-10,2C279,65,279,60,279,56L279,56z"/>
		<path fill="#606060" d="M294,59c2-1,4-2,4-4l-1-1c-2,0-3,2-4,3c-1,0-2-1-2-2s1-1,2-2c2-1,5-2,7,0c2,4-3,6-5,9
			C295,61,294,60,294,59L294,59z M294,64c1,0,2-1,3-1c0,1,0,2,0,3c-1,0-2,0-3,0C294,66,294,65,294,64L294,64z"/>
	</g>
</g>
<g>
	<g>
		<path fill="#606060" d="M45.706,231.358c-3.523-3.693-1.756-8.369,0.546-12.198c1.687-1.069,3.682-3.519,5.062-3.208
			c6.589,2.936,6.351,13.753-0.09,16.649C50.379,233.137,48.077,236.966,45.706,231.358L45.706,231.358z M53.149,220.715
			c-1.379-0.311-2.987-2.848-5.826,0.137c-1.459,3.295-2.689,8.815,1.449,9.748C53.754,230.998,54.449,224.632,53.149,220.715
			L53.149,220.715z"/>
		<path fill="#606060" d="M71.708,208.953c-0.08,3.606-5.985,7.349-8.436,5.347c-5.746-3.47-5.279-12.062,2.005-15.493
			c4.754-1.827,6.59,2.935,7.046,7.387l1.379,0.311c0.536,0.846,0.228,2.226-0.615,2.761L71.708,208.953L71.708,208.953z
			 M69.485,209.177c-1.379-0.311-2.223,0.224-2.759-0.621c-0.536-0.846-0.229-2.227,0.615-2.761s1.379,0.311,2.759,0.622
			c0.387-4.986-3.751-5.919-6.282-4.315c-1.995,2.449-2.61,5.21-1.846,8.281C63.272,214.3,68.026,212.472,69.485,209.177
			L69.485,209.177z"/>
		<path fill="#606060" d="M73.554,200.673c0.615-2.761-4.059-4.539-0.913-8.903c1.3,3.917,3.899,11.751,7.582,8.232
			c3.375-2.139,1.846-8.281-1.677-11.975c0.844-0.535,1.688-1.069,2.531-1.604c1.3,3.916,3.979,8.145,3.056,12.285
			c-0.615,2.76-3.454,5.744-7.056,5.656C75.698,204.055,74.626,202.363,73.554,200.673L73.554,200.673z"/>
		<path fill="#606060" d="M84.452,184.285c2.531-1.604,5.905-3.742,8.436-5.347l1.071,1.691c-2.53,1.604-4.753,1.827-6.749,4.277
			c-0.843,0.534,0.228,2.226,0.764,3.071c1.687-1.069,4.218-2.674,5.905-3.742c0.536,0.845,0.228,2.226,0.764,3.071
			c-2.223,0.224-5.29,0.981-6.441,2.896c-0.308,1.38,0.764,3.071,1.3,3.917c2.531-1.604,4.218-2.674,6.749-4.277l1.072,1.691
			c-2.531,1.604-5.905,3.742-8.436,5.346C87.587,192.964,85.751,188.202,84.452,184.285L84.452,184.285z"/>
		<path fill="#606060" d="M101.016,174.973c2.838-2.983,6.441-2.896,10.351-4.189c0.536,0.846,0.228,2.226,0.228,2.226
			c-2.531,1.604-5.29,0.982-7.82,2.586c-0.308,1.38,0.764,3.071,1.3,3.917c1.688-1.069,3.682-3.519,6.441-2.896l0.229,2.226
			c-1.995,2.449-6.054-2.09-5.677,5.968c3.067-0.758,4.754-1.827,7.82-2.586c0.536,0.846-0.308,1.381,0.229,2.227
			c-3.603-0.088-5.905,3.742-9.508,3.654C104.995,183.117,102.315,178.89,101.016,174.973L101.016,174.973z"/>
		<path fill="#606060" d="M113.897,169.18c0.844-0.535,2.223-0.224,2.223-0.224c2.144,3.382,2.6,7.834,2.52,11.439
			c2.223-0.224,4.754-1.827,6.977-2.051c0.536,0.846,0.228,2.226,0.228,2.226c-2.531,1.604-6.133,1.517-9.2,2.274
			C117.033,177.859,114.354,173.631,113.897,169.18L113.897,169.18z"/>
		<path fill="#606060" d="M126.164,166.146c3.066-0.758,6.977-2.051,10.579-1.964c0,0-0.308,1.38,0.228,2.226
			c-2.759-0.622-7.205-0.175-7.82,2.586c-1.767,4.675,4.446-0.447,6.897,1.555c0.536,0.846,0.536,0.846,1.072,1.691
			c-2.223,0.224-5.826,0.137-6.977,2.051c-2.61,5.21,4.674,1.778,7.741,1.021c0.536,0.846,0.229,2.226,0.229,2.226
			c-3.067,0.759-6.441,2.896-8.356,1.74C125.925,176.964,126.62,170.598,126.164,166.146L126.164,166.146z"/>
		<path fill="#606060" d="M145.1,162.442c3.603,0.088,6.977-2.051,9.964,0.797c2.451,2.002,1.528,6.143-1.003,7.746
			c-1.687,1.069-3.603-0.087-5.29,0.982c-0.308,1.38,0.764,3.071,0.457,4.451c-0.844,0.534-2.223,0.224-2.223,0.224
			C146.012,171.346,146.092,167.739,145.1,162.442L145.1,162.442z M151.609,168.983c0.844-0.534,2.531-1.604,1.995-2.449
			c-1.072-1.691-1.836-4.763-5.518-1.244c-0.843,0.535,0.228,2.226,0.457,4.452C149.386,169.207,150.766,169.518,151.609,168.983
			L151.609,168.983z"/>
		<path fill="#606060" d="M157.902,160.255c3.066-0.758,6.977-2.051,9.736-1.429c1.915,1.156,2.679,4.228,1.528,6.143
			c-0.844,0.534-1.687,1.069-2.531,1.604c1.916,1.156,2.987,2.848,4.902,4.004c-2.531,1.604-4.982-0.397-6.589-2.935
			c0,0-2.223,0.224-3.067,0.758c-0.308,1.381,0.764,3.071,0.992,5.298c-0.843,0.534-2.223,0.224-2.223,0.224
			C157.971,169.692,158.358,164.707,157.902,160.255L157.902,160.255z M164.72,165.416c0.843-0.535,1.687-1.069,1.995-2.449
			c-0.536-0.846-1.072-1.691-1.072-1.691c-1.379-0.312-3.603-0.088-5.29,0.981c-0.308,1.381,0.764,3.071,0.456,4.452
			C161.653,166.174,163.876,165.95,164.72,165.416L164.72,165.416z"/>
		<path fill="#606060" d="M171.696,163.364c-0.148-5.831,4.685-11.265,10.203-10.021c1.379,0.311,3.295,1.467,3.523,3.693
			c0.456,4.451-0.467,8.592-5.221,10.419C176.827,169.595,173.84,166.747,171.696,163.364L171.696,163.364z M182.891,158.641
			c-0.536-0.846-1.608-2.537-2.987-2.848c-2.759-0.622-5.29,0.981-5.905,3.742c0.228,2.226,0.456,4.451,3.751,5.919
			C181.888,166.387,184.191,162.558,182.891,158.641L182.891,158.641z"/>
		<path fill="#606060" d="M187.645,156.813c-1.072-1.691-1.3-3.917-0.149-5.832c2.303-3.83,5.141-6.813,9.279-5.881
			c-0.308,1.38,0.229,2.226-0.615,2.76s-3.603-0.087-4.446,0.447c-1.995,2.45-2.918,6.59-0.467,8.592
			c3.523,3.693,5.29-0.982,7.285-3.432c0,0,1.379,0.312,1.916,1.157c-1.151,1.914-3.146,4.364-4.833,5.433
			C193.083,161.663,188.945,160.729,187.645,156.813L187.645,156.813z"/>
		<path fill="#606060" d="M200.834,149.64c-0.764-3.071-1.836-4.763-2.6-7.834c0,0,0.843-0.535,1.687-1.069
			c1.3,3.917,3.364,10.905,6.738,8.767c5.597-2.362,0.159-7.211-0.833-12.509c0,0,0.308-1.38,1.151-1.915
			c2.68,4.228,4.823,7.61,4.436,12.596c-0.308,1.38-1.459,3.295-3.146,4.364S202.67,154.402,200.834,149.64L200.834,149.64z"/>
		<path fill="#606060" d="M210.353,132.941c1.459-3.295,5.369-4.588,7.9-6.191c0,0,1.916,1.156,2.451,2.002
			c-0.08,3.606-1.846,8.281,3.979,8.145c-0.844,0.535-1.151,1.915-1.995,2.45c-2.759-0.622-4.902-4.004-7.205-0.175
			c-0.308,1.38,1.608,2.537,1.836,4.763l-1.687,1.069C212.109,141.31,211.652,136.858,210.353,132.941L210.353,132.941z
			 M217.786,135.341c1.687-1.069,0.923-4.141-0.148-5.832c-1.151,1.915-6.669,0.671-3.226,7.97
			C215.255,136.945,216.942,135.876,217.786,135.341L217.786,135.341z"/>
		<path fill="#606060" d="M223.701,118.556c0.844-0.535,0.844-0.535,1.687-1.069c4.982,0.398,5.974,5.695,10.956,6.094
			c-0.843,0.535,3.215,5.073-3.91,1.293c-4.218,2.673-4.297,6.279-6.064,10.954C226.222,129.995,223.85,124.387,223.701,118.556
			L223.701,118.556z M230.519,123.716c-1.072-1.691-2.451-2.002-4.367-3.159c0.228,2.226-0.387,4.986,0.685,6.677
			C228.524,126.166,228.832,124.786,230.519,123.716L230.519,123.716z"/>
		<path fill="#606060" d="M234.896,113.832c1.151-1.915,2.303-3.83,1.231-5.521L234.748,108c-1.688,1.069-1.459,3.295-1.767,4.675
			c-0.843,0.535-1.379-0.311-2.223,0.224c0.08-3.606,1.846-8.281,5.449-8.194c1.379,0.311,2.143,3.382,2.372,5.608
			c-3.91,1.292,0.456,4.451-1.231,5.521C237.347,115.833,235.432,114.677,234.896,113.832L234.896,113.832z M237.575,118.059
			c0.844-0.534,1.151-1.915,1.995-2.449c0.536,0.846,4.139,0.933-0.388,4.986C238.647,119.75,238.111,118.905,237.575,118.059
			L237.575,118.059z"/>
	</g>
</g>
<g>
	<g>
		<path fill="#606060" d="M124,222c-3,2-7,3-10,1c-1-1-2-3-2-4c0-5,5-10,11-9c5,1,5,6,3,10l1,1c0,1-1,2-2,2L124,222L124,222z
			 M122,221c-1-1-3,0-1-4c1,1,2,2,3,2c3-2,0-6-2-7s-4,0-5,1c-1,2-3,4-2,7S120,223,122,221L122,221z"/>
		<path fill="#606060" d="M130,216c0-3-1-6,0-8h3c1,3-2,9,1,10c7,4,6-6,6-11c1,0,2,0,3,0c0,6,0,12-7,14C133,222,129,219,130,216
			L130,216z"/>
		<path fill="#606060" d="M146,207c4-1,7-1,11-1c0,1,0,2,0,2c-3,0-6-1-8,0c-1,1-1,3-1,4c3,0,5,0,8,0c0,1-1,2-1,2c-2,0-5-1-7,0
			c0,1,0,3,0,4c3-1,5-2,8-1c0,0,0,1,0,2c-4-1-7,2-11,1C146,216,146,211,146,207L146,207z"/>
		<path fill="#606060" d="M160,206c4-2,5,4,7,7c2-2,2-7,8-6c-1,4-1,9-3,13c0,0-1,0-2,0c1-3,1-7,2-10c-2,2-4,4-6,6c-1-2-3-4-4-6
			c0,3,0,6-1,9h-2C158,215,161,210,160,206L160,206z"/>
		<path fill="#606060" d="M181,219c1,0,1-1,2-1c2,0,6,4,6,1c1-4-6-3-6-7c0-1,1-1,1-2c3-2,7-1,10,1c-2,4-4-1-7,0l-1,1c0,4,7,2,6,7
			c0,1-1,3-3,3C186,222,183,221,181,219L181,219z"/>
		<path fill="#606060" d="M202,212c1,0,2,0,2,0c1,5,4,10,3,15c-1,0-3-1-3-4c-3,3-2-8-8,1c0,0-2-1-3-1C195,219,200,216,202,212
			L202,212z M200,210c0-1,1-2,1-2c1-1,3,0,4,1l1-1c1,0,1,1,2,1c0,1-1,2-1,2C205,212,202,210,200,210L200,210z M204,221c-1-2-1-4-1-6
			c-1,1-3,3-4,4C201,220,202,220,204,221L204,221z"/>
		<path fill="#606060" d="M210,221c2-3,5-7,9-6c5,2,6,8,4,12c-1,2-4,4-7,3S209,225,210,221L210,221z M222,224c0-2,1-4-1-5s-5-2-7,0
			s-2,5,0,7S221,228,222,224L222,224z"/>
		<path fill="#606060" d="M231,230c1-1,1-1,2-2c0,2,2,3,4,3c1,0,3-2,2-3c-2-2-7-2-6-6c0-1,1-1,1-2c3-2,8-3,8,0c1,3-3,0-6,1l-1,1
			c2,3,5,3,7,5c2,3-3,6-6,6C234,233,232,232,231,230L231,230z"/>
		<path fill="#606060" d="M246,219c3,0,7,0,10,0v2c-3,0-6-1-8,0c0,1,0,3,0,4c2,1,4,0,6,0v2c-2,0-5-1-7,0c0,1,0,3,0,4c2,1,5,0,7,0v2
			c-3,0-7,0-10,0C246,228,244,224,246,219L246,219z"/>
		<path fill="#606060" d="M258,227c0-3-1-6,0-8c0,0,2,0,3,0c-1,3-2,7-1,10c1,1,2,4,6,0c2-3,0-8,1-11c0,0,2,0,3,0c0,6,0,14-7,15
			c-1,0-2,0-3,0C258,232,258,230,258,227L258,227z"/>
		<path fill="#606060" d="M271,230c1-1,2-2,2-2c2,1,6,1,7-1c0-2-3-2-6-2c-2-1-3-4-1-6c3-2,6-2,9-2c0,1,0,2-1,3c-1,0-3-1-4-1
			c-2,0-3,2-2,3c2,2,5,0,7,2c1,2-1,5-3,6C277,232,274,231,271,230L271,230z"/>
		<path fill="#606060" d="M112,243c1-5,6-13,12-9c0,1-1,2-1,3c-1-1-2-1-4-1c-4,1-5,5-4,8c1,4,6,2,8-1l1,1c-1,4-5,4-8,4
			S113,245,112,243L112,243z"/>
		<path fill="#606060" d="M126,239c1-6,8-11,13-7c4,4-1,11-6,13C129,246,127,242,126,239L126,239z M138,237c-2-1,1-5-5-4
			c-4,1-5,5-4,8c1,1,2,3,4,2C136,242,137,240,138,237L138,237z"/>
		<path fill="#606060" d="M144,230c1,0,1-1,2-1c1,4,4,7,6,10c1-3,1-7,1-10c1,0,2,0,3,0c-1,5-2,9-2,14c-1,0-2,0-2,0c-2-3-4-6-6-9
			c-1,3-1,7-1,10c-1,0-2,0-3,0C144,239,142,234,144,230L144,230z"/>
		<path fill="#606060" d="M157,236c0-5,4-6,8-7c2,0,4,1,5,3l-1,1c-1,0-3-2-4-2c-4,1-8,6-4,10c2,1,5,1,7-1c0,1,1,2,1,2
			C164,246,158,242,157,236L157,236z"/>
		<path fill="#606060" d="M171,237c0-4,5-6,9-6c3,0,4,3,5,5c1,4-1,8-5,9C175,246,170,243,171,237L171,237z M183,239c0-1,0-2,0-3
			c-1-2-3-4-6-3s-5,6-2,9S182,243,183,239L183,239z"/>
		<path fill="#606060" d="M190,233c3,0,6,2,9,3c-1,2,2,4-4,8c0,0,2,3,3,5c-4,0-4-4-5-6c-1-1-2-1-3-1c-1,1,5,5-3,5
			C187,242,187,237,190,233L190,233z M194,241c1,0,2,0,2,0c4-4-2-6-5-6C192,237,170,234,194,241L194,241z"/>
		<path fill="#606060" d="M203,236c3,1,7,2,10,4c1,2,0,4-1,6c-1,0-2,0-3,0c0,2,2,4,3,6c-4,2-3-4-5-6c-1-1-2-3-4,4c0,0-2,0-3,0
			C201,245,202,241,203,236L203,236z M207,244c1,0,3,1,4-1c0-1-1-1-1-2c-1-1-3-2-5-2C206,241,189,238,207,244L207,244z"/>
		<path fill="#606060" d="M217,240c3-1,7,2,10,1c0,1,0,2,0,2c-3,1-5,0-8-1c0,1-1,3-1,4c2,0,5,0,7,1c0,0,0,1,0,2c-2-1-5-2-7-1
			c-1,1-1,2-1,3c3,2,6,1,9,1c0,1-1,2-1,2c-3,1-7-2-10-1C214,248,216,244,217,240L217,240z"/>
		<path fill="#606060" d="M230,242c5-1,6,7,9,10c1-3,1-6,1-9c1,0,2,0,3,0c-1,4-3,8-2,13c-1,0-2,0-2,0c-3-3-5-7-7-10c-1,3-1,6-1,9
			c-1,0-2,0-3,0C228,251,231,247,230,242L230,242z"/>
		<path fill="#606060" d="M250,245c-2,0-3,0-5,0v-2c4,0,8,0,12,0c0,0,0,1,0,2c-7-3-5,7-6,11c0,0-2,0-3,0C250,253,248,248,250,245
			L250,245z"/>
		<path fill="#606060" d="M260,242c3,0,7,0,10,0v2c-3,0-6-1-8,0c0,1,0,3,0,4c2,1,5,0,7-1c0,1,0,2,0,2c-2,1-5,1-8,1c0,1,0,3,0,3
			c2,1,5,0,8,0v2c-4,1-7,0-11,1C260,251,258,247,260,242L260,242z"/>
		<path fill="#606060" d="M272,253c0-1,1-1,1-2c2,1,5,2,7,0c0-1,0-2,0-3c-2-1-6,1-7-1c0-2-1-4,2-6c2-1,6-3,8,0c0,1-1,2-5,1
			c-1,0-3,1-3,2c1,3,6,1,8,3c1,2-1,5-3,6C278,255,275,255,272,253L272,253z"/>
		<path fill="#606060" d="M288,244c2,0,3,0,4-3l-1-1c-2,0-3,1-5,2l-1-1c2-3,7-4,9-2c1,1,0,4-4,6v2h-2C288,246,288,245,288,244
			L288,244z M288,249c1,0,2-1,3-1c0,1,0,2,0,3c-1,0-2,0-3,0C288,251,288,250,288,249L288,249z"/>
	</g>
</g>
<g>
	<g>
		<path fill="#606060" d="M81.285,116.95c-3.519,0.713-4.774,3.196-8.261,3.067c-3.456-0.971-8.074-1.985-7.95-5.353
			c0.156-4.211,6.092-7.364,13.035-6.265c4.618,1.014,5.656,4.425,4.4,6.909c1.162,0.043,1.162,0.043,2.325,0.086
			C84.803,116.236,84.772,117.079,81.285,116.95L81.285,116.95z M78.991,116.021c-1.131-0.885-3.549,1.555-3.394-2.655
			c1.163,0.043,3.456,0.971,4.618,1.014c0.031-0.842-1.069-2.569-2.2-3.455c-3.425-1.813-8.105-1.143-9.392,2.183
			c-1.225,1.642-0.125,3.369,2.169,4.297C73.118,117.491,76.573,118.462,78.991,116.021L78.991,116.021z"/>
		<path fill="#606060" d="M86.152,111.227c-2.263-1.77-3.363-3.497-3.27-6.023c0,0,1.194-0.799,2.356-0.756
			c2.2,3.454,5.407,11.162,10.212,7.124c2.418-2.44,1.38-5.852-2.014-8.507c1.162,0.043,2.356-0.756,3.518-0.713
			c1.038,3.411,6.694,7.836,1.92,11.033C95.327,114.938,88.29,116.365,86.152,111.227L86.152,111.227z"/>
		<path fill="#606060" d="M105.186,100.125c8.167-0.542,10.212,7.124,15.93,9.864c-1.162-0.043-2.355,0.756-3.518,0.713
			c-0.976-5.096-6.943-1.1-10.43-1.229c-0.031,0.842,2.231,2.612-2.449,3.282C104.874,108.545,105.03,104.335,105.186,100.125
			L105.186,100.125z M113.104,106.32c-1.131-0.885-3.394-2.655-4.525-3.541c-0.063,1.685-0.093,2.526-0.156,4.211
			C109.586,107.033,111.941,106.277,113.104,106.32L113.104,106.32z"/>
		<path fill="#606060" d="M116.902,98.027c1.162,0.043,2.355-0.756,3.518-0.713c-0.125,3.368,4.4,6.909,4.276,10.277
			c3.487,0.129,5.843-0.627,8.229-2.226c-0.031,0.842,1.1,1.727,1.069,2.569c-3.487-0.129-7.005,0.584-10.555,2.14
			C121.271,105.778,119.071,102.324,116.902,98.027L116.902,98.027z"/>
		<path fill="#606060" d="M140.398,92.15c1.163,0.043,2.356-0.756,2.356-0.756c4.556,2.698,7.918,6.195,12.443,9.736
			c-1.163-0.043-1.193,0.799-2.356,0.756c-1.131-0.885-2.262-1.771-3.394-2.655c-1.225,1.641-3.549,1.555-5.905,2.312
			c-0.031,0.842-0.093,2.526-0.125,3.368c0,0-1.193,0.799-2.355,0.756C142.38,101.499,140.242,96.36,140.398,92.15L140.398,92.15z
			 M148.316,98.345c-2.262-1.77-3.394-2.655-5.656-4.425c1.1,1.727,1.006,4.253,0.944,5.938
			C144.798,99.059,147.123,99.145,148.316,98.345L148.316,98.345z"/>
		<path fill="#606060" d="M25.099,157.036c1.318-4.167,6.974,0.258,9.361-1.341c2.387-1.598-3.3-5.181,2.636-8.335
			c2.2,3.454,4.4,6.909,6.601,10.363c-0.031,0.842-1.193,0.799-1.225,1.642c-2.231-2.612-4.494-4.383-5.532-7.794
			c-0.093,2.526-0.218,5.895-0.311,8.421c-2.293-0.928-4.618-1.014-6.912-1.942c1.069,2.569,3.332,4.34,5.563,6.952
			c0,0-1.193,0.799-2.387,1.599C30.692,163.146,29.655,159.734,25.099,157.036L25.099,157.036z"/>
		<path fill="#606060" d="M39.482,145.762c3.549-1.555,4.867-5.723,9.548-6.393l1.1,1.727c-2.387,1.598-5.936,3.154-7.161,4.795
			c-0.031,0.842,1.1,1.727,2.231,2.612c1.224-1.641,2.449-3.283,5.967-3.996l1.1,1.728c-2.387,1.598-8.23,2.226-4.898,6.565
			c2.387-1.599,4.774-3.196,7.161-4.795c3.394,2.655-1.318,4.168-4.867,5.723c-1.193,0.8-1.225,1.642-2.418,2.44
			C45.045,152.714,42.845,149.26,39.482,145.762L39.482,145.762z"/>
		<path fill="#606060" d="M52.58,137.813c1.162,0.043,1.193-0.799,2.356-0.756c1.038,3.411,4.462,5.224,4.338,8.593
			c2.356-0.756,4.743-2.354,7.099-3.111c-0.031,0.842,1.1,1.727,1.1,1.727c-2.387,1.599-5.936,3.154-9.485,4.709
			C55.787,145.521,55.942,141.311,52.58,137.813L52.58,137.813z"/>
		<path fill="#606060" d="M64.421,132.348c1.193-0.799,1.193-0.799,2.387-1.598c1.1,1.727,1.038,3.412,2.138,5.139
			c4.711-1.512,9.454-3.867,4.929-7.407c1.163,0.043,2.356-0.756,2.356-0.756c3.363,3.498,3.207,7.708,5.407,11.163
			c-1.163-0.043-1.193,0.799-2.356,0.756c-1.1-1.727-1.038-3.411-2.138-5.139c-4.712,1.513-9.423,3.025-4.93,7.407
			c-1.162-0.043-2.356,0.756-2.356,0.756C66.465,140.013,67.783,135.846,64.421,132.348L64.421,132.348z"/>
		<path fill="#606060" d="M81.887,132.15c0.125-3.368,0.249-6.737,6.123-8.206c4.68-0.67,8.105,1.143,10.336,3.755
			c1.038,3.412-2.574,6.651-6.123,8.207C87.512,137.418,84.119,134.763,81.887,132.15L81.887,132.15z M94.829,128.413
			c0.031-0.842-1.131-0.885-1.1-1.727c-1.131-0.885-3.425-1.813-5.781-1.057c-4.711,1.512-3.674,4.924-1.442,7.536
			c1.131,0.885,3.425,1.813,4.618,1.014C93.479,133.422,95.866,131.824,94.829,128.413L94.829,128.413z"/>
		<path fill="#606060" d="M99.727,121.848c4.711-1.513,11.748-2.939,13.917,1.357c-0.063,1.684-1.287,3.326-3.643,4.082
			c2.294,0.928,5.719,2.741,4.525,3.541c-1.255,2.483-4.587-1.856-6.88-2.784c-1.163-0.043-5.625-5.268-2.512,4.967
			c-1.162-0.043-2.325-0.086-2.325-0.086C100.609,129.469,100.765,125.259,99.727,121.848L99.727,121.848z M107.708,126.359
			c1.163,0.043,2.356-0.756,2.356-0.756c1.193-0.799,0.093-2.526-1.038-3.412c-2.293-0.928-4.649-0.172-5.843,0.627
			c-0.031,0.842,1.069,2.569,1.007,4.253C105.352,127.115,106.545,126.316,107.708,126.359L107.708,126.359z"/>
		<path fill="#606060" d="M122.912,124.391c-1.069-2.569,1.349-5.01,3.736-6.608c3.549-1.555,9.361-1.34,11.592,1.272
			c2.231,2.612,3.269,6.023-1.505,9.22C132.023,129.787,125.018,130.372,122.912,124.391L122.912,124.391z M136.953,122.38
			c-1.1-1.727-1.007-4.253-6.85-3.626c-3.519,0.713-4.836,4.881-2.605,7.493c1.131,0.885,3.425,1.813,5.781,1.057
			C135.635,126.547,136.859,124.906,136.953,122.38L136.953,122.38z"/>
		<path fill="#606060" d="M140.72,114.93c2.355-0.756,5.874-1.469,9.392-2.183c1.162,0.043,1.131,0.885,2.293,0.928
			c2.262,1.77,2.2,3.454-0.218,5.895c-1.193,0.799-4.712,1.513-5.905,2.312c-0.031,0.842,1.069,2.569,1.038,3.412
			c0,0-1.194,0.799-2.356,0.756C145.121,121.838,140.564,119.14,140.72,114.93L140.72,114.93z M148.701,119.441
			c2.356-0.756,3.612-3.239,1.318-4.167c-2.293-0.928-4.649-0.172-5.843,0.627c-0.031,0.842,1.069,2.569,1.007,4.253
			C146.345,120.197,147.539,119.398,148.701,119.441L148.701,119.441z"/>
		<path fill="#606060" d="M163.718,122.526c0.031-0.842,1.225-1.641,1.256-2.483c-7.005,0.584-11.499-3.798-9.019-7.923
			c1.287-3.325,6.029-5.68,10.648-4.666c0,0-0.063,1.684-0.094,2.526c-3.456-0.971-8.167,0.542-8.292,3.91
			c-0.031,0.842,1.069,2.569,2.2,3.454c2.263,1.77,4.649,0.172,7.005-0.584c1.193-0.799,0.062-1.684,3.549-1.555
			c-0.063,1.684-1.256,2.483-3.643,4.082c-1.194,0.799-0.094,2.526-1.287,3.326C166.042,122.612,164.88,122.569,163.718,122.526
			L163.718,122.526z"/>
		<path fill="#606060" d="M170.276,102.53c-1.038-3.411,3.643-4.082,6.03-5.68C177.375,99.419,172.664,100.932,170.276,102.53
			L170.276,102.53z M173.764,102.659c0.031-0.842,1.193-0.799,1.225-1.641c3.394,2.655,7.95,5.354,12.505,8.051
			c-1.193,0.799-1.225,1.642-2.387,1.599c-1.163-0.043-1.131-0.885-2.263-1.771c-2.418,2.44-8.167,0.542-7.223,6.479
			c0,0-1.194,0.799-2.356,0.756C173.421,111.922,173.608,106.869,173.764,102.659L173.764,102.659z M180.582,107.127
			c-2.293-0.928-3.425-1.813-4.556-2.698c-0.062,1.685-0.125,3.369-0.187,5.053C177.033,108.683,179.389,107.926,180.582,107.127
			L180.582,107.127z"/>
		<path fill="#606060" d="M185.418,102.246c0.125-3.368,0.249-6.737,2.667-9.177c2.418-2.44,5.874-1.469,8.199-1.383
			c2.293,0.928,3.394,2.655,3.332,4.339c1.007,4.253-1.442,7.536-6.123,8.206C191.137,104.987,187.587,106.542,185.418,102.246
			L185.418,102.246z M196.128,95.896c0.093-2.526-5.75-1.899-6.943-1.1c-2.387,1.599-1.349,5.01-1.411,6.694
			c1.131,0.885,3.425,1.813,4.587,1.856C195.879,102.633,199.491,99.393,196.128,95.896L196.128,95.896z"/>
		<path fill="#606060" d="M202.158,90.216c1.225-1.641,2.449-3.283,1.318-4.167c-4.587-1.856-2.387,1.598-4.774,3.197
			c-1.162-0.043-1.162-0.043-2.325-0.086c1.256-2.483,1.38-5.852,6.03-5.68c2.325,0.086,4.556,2.698,2.107,5.98
			c-0.031,0.842,1.131,0.885,1.1,1.728l-1.193,0.799C203.258,91.943,203.289,91.101,202.158,90.216L202.158,90.216z M204.358,93.67
			c1.193-0.799,1.225-1.642,2.387-1.599c1.162,0.043,2.262,1.771-0.125,3.369C205.489,94.555,205.489,94.555,204.358,93.67
			L204.358,93.67z"/>
	</g>
</g>
<g>
	<g>
		<path fill="#606060" d="M224,170c2-4,7-8,12-5c0,0,1,1,1,2l-2,1c-1-1-2-2-3-2c-4,0-8,4-5,8c1,0,1,1,2,1c2,0,3,0,4-3c-1,0-2,0-3,0
			c0-1,1-2,1-2c2-1,4,0,5,1c0,5-6,9-11,5C224,175,222,173,224,170L224,170z"/>
		<path fill="#606060" d="M238,172c2-4,6-6,10-5c3,1,5,3,5,5c-1,5-6,8-11,7C239,178,237,175,238,172L238,172z M250,174c0-2,0-4-3-5
			c-2,0-4,0-5,1c-1,2-4,3-1,6S248,177,250,174L250,174z"/>
		<path fill="#606060" d="M254,175c2-4,6-5,10-4s5,5,3,8s-6,5-9,4S251,179,254,175L254,175z M265,178c0-1,0-3,0-4c-3-3-7-1-9,1
			c-1,1,0,4,1,5C260,182,263,181,265,178L265,178z"/>
		<path fill="#606060" d="M269,179c4-3,11-5,14,0c-1,0-2,1-3,1c-2-3-6-3-9,0c0,1,0,3,0,4c1,2,3,3,6,2c0,0,1-1,1-2c-1,0-2-1-3-1
			c0-1,1-1,1-2c2,1,4,1,4,2c1,4-4,7-8,5C270,186,267,184,269,179L269,179z"/>
		<path fill="#606060" d="M286,180c1,0,2,0,3,0c-1,4-4,7-6,10c2,0,4,2,6,3l-1,1c-3-1-5-3-8-3C282,187,283,183,286,180L286,180z"/>
		<path fill="#606060" d="M297,185c3,1,5,3,8,4c0,1-1,1-1,2c-2-1-4-3-6-4c-1,1-2,2-2,3c1,2,4,3,6,3c0,1-1,1-1,2c-2-1-4-3-6-3
			c-1,0-2,2-2,3c1,2,4,3,6,3c0,1-1,2-1,2c-3-1-7-3-7-5C291,192,295,188,297,185L297,185z"/>
		<path fill="#606060" d="M316,196c4,4-1,10-1,15c-1,0-2-1-2-1c0-1,1-2,1-3c-1-1-3-3-5-4c-1,0-2,2-3,2s-1-1-2-1
			C307,201,313,199,316,196L316,196z M314,205c1-2,1-4,2-6c-2,1-3,2-5,3C312,203,313,204,314,205L314,205z"/>
		<path fill="#606060" d="M324,202c3,2,8,5,7,10c-1,3-5,6-8,5c-2-1-5-3-5-4c-1-2,2-5,4-7C323,205,323,203,324,202L324,202z M322,214
			c2,2,4,0,6-1c0,0,1-1,1-2c-1-2-2-6-4-5c-2,0-4,3-5,6C320,213,321,213,322,214L322,214z"/>
		<path fill="#606060" d="M335,210c1,0,2,1,2,1c0,3-1,6-3,9c3-2,5-4,8-6l2,1c0,3-3,6-2,9c3-2,5-4,8-6c0,0,1,1,2,1c-4,3-7,6-11,9
			l-2-1c0-3,1-6,2-9c-3,2-5,4-8,6l-1-1C332,219,334,214,335,210L335,210z"/>
		<path fill="#606060" d="M350,225c3-4,9-5,12-1s0,8-4,10c-3,1-5-1-8-2C348,231,348,228,350,225L350,225z M360,230c0-2,2-3,0-5
			c-3-3-9-1-9,3C351,233,357,233,360,230L360,230z"/>
		<path fill="#606060" d="M368,226c4,1,10,2,8,7c-1,2-2,3-5,2c1,2,2,3,1,5h-2c-1-1-1-3-1-5c-1,0,0-7-5,3c-1,0-1-1-2-1
			C364,233,365,229,368,226L368,226z M370,233c1,0,3,0,4-1c0-1,0-2,0-2c-1-1-3-2-5-2c-1,1-1,3-2,4C368,232,369,233,370,233L370,233z
			"/>
		<path fill="#606060" d="M380,230c4,0,10,1,10,6c-1,7-9,8-15,5C377,237,379,234,380,230L380,230z M380,241c3,1,6-1,7-3c1-3-3-6-5-5
			s-3,4-4,7C378,240,379,241,380,241L380,241z"/>
		<path fill="#606060" d="M389,243c1,0,1-1,2-1c2,0,3,3,7,1c-2-1-3-3-5-4c-1-2,0-4,2-5c3-2,6-1,8,2c-1,0-2,1-2,1c-2-1-3-3-6-1v2
			c3,1,8,3,4,7C396,247,392,246,389,243L389,243z"/>
		<path fill="#606060" d="M404,245c1,0,2,0,3,0c0,1,0,3-4,2C403,246,404,246,404,245L404,245z M406,240c1,0,3,1,4-1c0-1-1-2-1-2
			c-1,0-3,1-4,1c0,0-1-1-1-2c2-1,3-1,5-1c1,0,4-2,3,4c-1,2-4,3-7,4C405,242,406,241,406,240L406,240z"/>
	</g>
</g>
<g>
	<g>
		<path fill="#606060" d="M288,87c4,1,7,2,11,3c0,1-1,2-1,2c-3,0-5-2-8-2c0,0-1,2-1,3c2,1,5,1,7,2l-1,1c-2,0-5,0-7-1c0,1-1,2-1,3
			c3,1,5,1,8,2c0,1-1,2-1,2c-4,0-7-2-11-3C285,95,287,91,288,87L288,87z"/>
		<path fill="#606060" d="M314,107c-5,2-9-2-10-6c0-2,1-4,3-5c4-3,7-2,11,0c4,3,1,9-2,11l1,1c-1,0-1,1-2,1C315,109,314,108,314,107
			L314,107z M313,105c-1-1-1-1-2-2c1,0,2-1,3-1c0,0,1,1,1,2c1,0,2-1,2-1c1-2,0-4-1-5c-2-1-4-4-7-1c-1,2-4,3-1,7
			C309,105,311,105,313,105L313,105z"/>
		<path fill="#606060" d="M322,106c0-3,1-5,3-7l2,1c0,3-3,6-4,9c0,2,3,3,5,3c3-2,3-7,6-9l2,1c0,4-3,9-7,10c-3,1-5-1-7-2
			C321,111,320,108,322,106L322,106z"/>
		<path fill="#606060" d="M344,108c1,0,2,1,2,1c1,5-1,10-1,15c-1,0-2,0-3-1c0-1,1-3,1-4c-4,1-3-6-9-1c0,0-1-1-2-1
			C337,115,340,111,344,108L344,108z M343,117c0-2,0-4,1-6c-2,1-4,2-5,4C340,116,342,116,343,117L343,117z"/>
		<path fill="#606060" d="M354,114c3,4,3,9,3,14c1-3,3-6,5-9c5,4-4,9-5,13c-1,0-2-1-2-1c0-4-2-8-1-12c-2,2-4,5-5,8c-1,0-1-1-2-1
			C349,122,351,117,354,114L354,114z"/>
		<path fill="#606060" d="M368,126c-1-1-2-1-3-2c0,0,1-1,1-2c3,2,6,4,9,6c0,0-1,1-1,2c-6-6-7,5-10,8C359,135,368,130,368,126
			L368,126z"/>
		<path fill="#606060" d="M373,135c2-3,6-6,10-3c4,2,4,7,2,10c-2,2-4,4-7,4c-2,0-4-1-5-3S372,138,373,135L373,135z M383,141
			c0-1,1-2,1-3c-1-2-1-5-5-5c-3,0-5,3-5,6c0,2,2,3,3,4C379,143,381,144,383,141L383,141z"/>
		<path fill="#606060" d="M401,140c1,0,2,1,2,1c-2,5,0,10-2,15c-1,0-2-1-2-1c0-1,0-2,0-3c-3,0-3-4-8,0c-1,0-2-1-3-1c2-2,4-4,7-5
			C397,144,399,142,401,140L401,140z M400,150c0-2,0-4,0-6c-1,2-3,3-5,4C397,149,398,149,400,150L400,150z"/>
		<path fill="#606060" d="M406,150c3-3,6-6,10-5c4,2,6,9,2,12c-3,2-8,4-11,1C405,156,404,154,406,150L406,150z M417,154c1-2,2-5-2-6
			s-7,2-7,6s5,4,8,2C416,155,417,155,417,154L417,154z"/>
		<path fill="#606060" d="M419,159c3-2,4,0,6,1c1,0,4,0,3-2c-2-2-6-2-5-6c1-3,6-4,9-3c1,0,2,1-1,4c0-1-1-2-1-2c-1-1-4,0-4,1
			c0,3,7,5,3,9C426,163,422,162,419,159L419,159z"/>
		<path fill="#606060" d="M276,114c3-3,6-6,10-5c2,1,4,2,4,4c0,0-1,1-2,1c0,0-1-1-1-2c-4-3-7,0-9,3c-2,5,5,4,8,6c-3,1-6,2-9,0
			C276,119,274,118,276,114L276,114z"/>
		<path fill="#606060" d="M294,112c1,0,1,0,2,0c-2,3-3,8-5,11c2,1,5,1,7,2c0,1-1,2-1,2c-3-1-6-2-9-3C290,120,292,116,294,112
			L294,112z"/>
		<path fill="#606060" d="M306,116c1,0,1,0,2,0c-2,4-4,9-7,13l-2-1C300,123,305,121,306,116L306,116z"/>
		<path fill="#606060" d="M312,118c3,0,6,4,9,4c0,1-1,1-1,2c-2-1-5-3-7-3c-1,0-1,2-2,3c2,1,4,1,6,2c0,1-1,1-1,2c-3,3-3-8-8,1
			c2,1,5,1,7,3l-1,2c-3,0-6-4-9-4C307,126,309,121,312,118L312,118z"/>
		<path fill="#606060" d="M324,123c1,0,2,1,2,1c0,4,2,8,1,12c2-2,4-5,5-8c1,0,2,1,2,1c-1,5-6,7-7,12c-1,0-2-1-2-1c0-4-2-8-1-12
			c-2,3-4,6-6,8c0,0-1-1-2-1C319,132,321,126,324,123L324,123z"/>
		<path fill="#606060" d="M339,135c-1-1-4-2-3-3c1-5,6,4,10,5c0,1-1,1-1,2c-1-1-3-2-4-3c-2,4-6,6-7,10C329,142,338,139,339,135
			L339,135z"/>
		<path fill="#606060" d="M348,138c3,1,5,5,8,6c0,1-1,1-1,2c-2-1-4-3-6-5c-1,1-2,2-3,3c2,1,4,2,6,4c0,0-1,1-1,2c-2-1-4-3-6-4
			c-1,1-1,2-2,3c2,2,5,3,7,5c-1,0-1,1-2,1c-3-1-5-5-8-6C342,145,345,142,348,138L348,138z"/>
		<path fill="#606060" d="M351,155c1,0,1-1,2-1c0,3,3,4,5,5l1-1c-1-4-7-8-1-11c3-1,6,3,8,5c-1,0-2,1-3,1c-1-1-1-4-5-3c1,4,7,8,2,10
			C357,162,352,160,351,155L351,155z"/>
		<path fill="#606060" d="M374,155c3,3,8,2,9,7c1,3-1,7-5,8s-7-1-11-3C368,162,373,160,374,155L374,155z M373,167c3,2,5,1,7-1
			c2-4-1-6-5-8c-1,3-3,6-5,8C371,166,372,167,373,167L373,167z"/>
		<path fill="#606060" d="M384,168c2-5,7-5,11-4c3,1,6,5,3,9c-3,5-9,5-13,2C384,173,382,171,384,168L384,168z M396,172c0-2,0-4-1-5
			c-2-2-5-1-7,0c-1,1-2,3-2,4c0,3,4,4,6,4S395,173,396,172L396,172z"/>
		<path fill="#606060" d="M270,130c1,0,1,1,2,1c1,2,1,5,1,7c2-2,4-5,7-6c1,0,2,1,2,1c-1,5-4,9-6,14c-1,0-2-1-2-1c1-4,3-7,4-10
			c-2,2-4,5-6,5c-4,1,1-4-2-6c-2,3-2,6-4,9c0,0-1,0-2,0C266,139,268,135,270,130L270,130z"/>
		<path fill="#606060" d="M285,134c3,1,7,2,10,3c0,1-1,2-1,2c-2,0-5-2-7-2c-1,0-1,2-2,3c2,1,4,1,6,2c0,1-1,2-1,2c-2,0-5-2-6-2
			c-5,4,2,5,5,6c0,1-1,2-1,2c-3,0-6-3-9-2C281,143,283,138,285,134L285,134z"/>
		<path fill="#606060" d="M293,146c1-3,3-5,4-8c1,0,1,1,2,1c-3,3-3,6-4,10c0,1,1,2,2,2c6,1,5-7,8-10c1,0,2,1,3,1c-2,5-4,11-10,12
			C294,154,292,150,293,146L293,146z"/>
		<path fill="#606060" d="M311,152c1-3,4-3,7-4c3,0,5,2,6,6c-1,0-2,0-2,0c-1-2-4-6-7-3s-3,9,2,10c1,0,1-1,2-1l1,2c-2,2-6,1-8-2
			C311,158,309,156,311,152L311,152z"/>
		<path fill="#606060" d="M327,153c1,0,1,1,2,1c-2,3-4,8-4,11c0,1,3,2,5,4c0,0-1,1-1,2c-2-2-5-4-8-5C323,162,325,157,327,153
			L327,153z"/>
		<path fill="#606060" d="M338,160c1,0,1,1,2,1c-3,3-4,8-7,12c0,0-1-1-2-1C333,168,335,163,338,160L338,160z"/>
		<path fill="#606060" d="M343,163c4,3,2,10,4,14c1-3,3-5,4-8c1,0,2,1,2,1c-2,4-4,8-6,12c-4-3-4-9-4-14c-1,3-3,6-5,9
			C334,173,341,167,343,163L343,163z"/>
		<path fill="#606060" d="M358,175c-1-1-3-1-4-2c0-1,1-2,1-2c4,1,7,4,11,6c0,1-1,1-1,2c-1-1-3-2-4-3c-1,4-4,6-5,10c-1,0-2-1-2-1
			C354,181,357,179,358,175L358,175z"/>
		<path fill="#606060" d="M368,178c4,1,6,3,10,4c0,1-1,2-1,2c-2,0-5-1-7-3c-1,1-1,2-2,3c2,1,5,1,7,3c0,0-1,1-1,2c-2-2-4-3-7-3
			c0,0-1,2-1,3c3,0,6,1,8,3c0,0-1,1-1,2c-3-2-8-3-11-5C365,186,366,182,368,178L368,178z"/>
		<path fill="#606060" d="M378,193c1,0,2,1,3,1c0,1-1,2-1,3c-1,0-2-1-3-1C377,195,378,194,378,193L378,193z M380,189c1,0,3,1,4,1
			l1-1c-3,0,10-5-5-2l-1-2c2-2,6-1,8,1c1,1,1,3,1,4c-1,4-5,1-7,3C380,193,380,190,380,189L380,189z"/>
	</g>
</g>
</svg>
