<?xml version="1.0" encoding="utf-8"?>
<!-- Generator: Adobe Illustrator 16.0.0, SVG Export Plug-In . SVG Version: 6.00 Build 0)  -->
<!DOCTYPE svg PUBLIC "-//W3C//DTD SVG 1.1//EN" "http://www.w3.org/Graphics/SVG/1.1/DTD/svg11.dtd">
<svg version="1.1" id="Layer_1" xmlns="http://www.w3.org/2000/svg" xmlns:xlink="http://www.w3.org/1999/xlink" x="0px" y="0px"
	 width="1754px" height="759px" viewBox="0 0 1754 759" enable-background="new 0 0 1754 759" xml:space="preserve">
<g>
	<path fill="#FFFFFF" d="M0,0.5h1754v297.19c0,0.05-0.01,0.13-0.01,0.18l0.01-0.08v10.8c-6.31-2.64-12.15-6.31-17.6-10.4
		c-4.27-3.31-3.38-9.24-4.48-13.95c-3.38-2.41-4.7-6.76-4.3-10.76c0.5-4.45-0.87-8.78-1.5-13.14c-6.28-3.51-11.08-8.99-14.62-15.17
		c-6.7-2.51-12.32-7.1-18.07-11.21c-3.5-2.48-7.729-3.49-11.51-5.39c0.12-2.68,0.31-5.36,0.55-8.03c-1.92-4.35-6.86-8.42-4.97-13.53
		c-2.75-5.89-6.62-11.2-11.27-15.71c-5.63-5.74-9.87-12.71-16.18-17.8c-1.07,6.28-2.04,12.63-1.81,19.02
		c0.21,6.04-0.36,12.11-1.89,17.97c-0.1,1.61-1.24,2.65-2.53,3.41c-0.79,1.89-1.53,3.8-2.27,5.71c-1.11-0.44-2.13-0.99-3.02-1.73
		c1.42-4.26,3.62-8.73,2.6-13.32c-1.35-6.35-2.08-12.81-3.34-19.18c-1.64-8.5-5.42-16.36-8.89-24.24
		c-2.51,7.04-5.71,13.78-8.65,20.63c-4.73,11.98-6.36,24.93-6.69,37.73c0,6.87-2.34,13.43-3.07,20.22
		c-0.53,5.5-3.6,10.29-4.65,15.65c-1.72,7.93-1.47,16.09-1.84,24.15c-0.27,6.14,0.9,12.2,2.17,18.18c-0.81,0.55-1.59,1.1-2.36,1.66
		c-0.09,2.01-0.17,4.02-0.29,6.03c-0.86-0.31-1.7-0.65-2.49-1.02c-0.68-4.41,0.2-9.05-1.41-13.3c-1.47-3.87-3.32-7.61-4.26-11.65
		c-1.03-4.27-0.02-8.68-0.53-13c-1.3-8.69-2.4-17.44-4.81-25.91c-3.08-15.229-6.91-30.28-10.36-45.43
		c-1.91-7.74-2.41-15.96-6.21-23.12c-2.97-5.44-5.88-11.13-10.58-15.3c-3.14-2.86-6.53-5.63-8.53-9.45
		c-3.08-6.23-6.66-12.73-5.92-19.94c-1.61-3.13-4.28-5.74-6.17-8.76c-6.09-0.21-12.22-0.09-18.15-1.65
		c-6.89-1.66-15.11,0.5-20.82-4.61c-4.78-3.51-4.49-9.98-6.94-14.86c-1.99-3.68-4.65-6.93-6.87-10.46
		c-4.11-1.1-8.18-2.34-12.19-3.72c-2.16,1.19-4.52,3.33-7.14,2.25c-2.91-0.89-4.63-3.58-6.47-5.78c-3.54-0.97-7.36-1.38-10.48-3.44
		c-2.23-1.42-4.44-2.85-6.62-4.31c-2.86-0.33-5.57-1.27-7.97-2.82c-0.68,0.07-2.03,0.21-2.71,0.28c-7.14,21.59-10.04,44.35-11,67
		c-0.51,0.32-1.51,0.97-2.01,1.29c0.05,3.2-0.6,6.36-2.13,9.19c-2.59-8.18-1.9-16.87-3.5-25.22c-1.52-7.64-2.11-15.44-3.96-23.02
		c-1.14-4.76-3.04-9.28-4.45-13.95c-0.8,13.64-6.39,26.38-7.99,39.89c-0.31,0.13-0.92,0.4-1.23,0.53
		c-0.28-3.54-0.26-7.22-1.96-10.44c-3.21-6.62-2.65-14.12-3.1-21.24c-2.01-9.78-7.43-18.48-9.71-28.16
		c-3.83-0.97-7.78-1.92-10.95-4.41c-2.41,4.31-4.44,8.84-5.41,13.71c1.34,8.44-1.26,16.82-2.41,25.13
		c-1.69,8.25-1.37,16.71-2.61,25.01c0.6,0.28,1.79,0.83,2.39,1.11c-2.78,9.97-2.03,20.36-2.84,30.58c-0.73,3.91,2.3,7.6,0.56,11.4
		c0.01,0.57,0.05,1.71,0.06,2.28c-0.95,1.26-1.91,2.55-2.75,3.86c-2-7.73-6.52-14.52-8.3-22.32c-1.74-6.91-2.55-14.02-3.08-21.11
		c-0.34-5.36-1.89-10.56-2.19-15.92c-0.35-5.79-1.68-11.45-2.51-17.17c-0.88-8.18-4.6-15.66-7.16-23.38
		c-3.19-8.67-5.75-17.55-8.22-26.44c-0.689-2.44-2.7-4.89-5.39-5c-9.98-0.97-19.25,3.5-28.54,6.38
		c-1.87,10.29-8.55,19.05-9.66,29.48c-0.44,16.3-1.3,32.59-2.57,48.85c-0.39-0.12-1.17-0.35-1.56-0.47c0.22,1.89,0.53,3.8,0.58,5.72
		l-1.37-0.19c-2.3-6.39-3.12-13.22-4.88-19.77c-1.52-5.88-1.44-12.25-4.51-17.65c-4.11-7.7-6.21-16.41-5.95-25.15
		c-2.74-4.03-6.25-7.42-9.71-10.81c-5.27,1.05-10.57,1.97-15.81,3.15c-2.6,0.45-4.3,2.59-6.19,4.21c-2.95,2.78-6.39,4.99-9.17,7.96
		c-1.38,1.81-3.82,0.52-5.61,0.2c-8.42-2.49-17.13-5.37-26.03-4.01c-5.64,1.03-11.31,1.86-17.01,2.34
		c-2.25,5.32-4.6,10.72-4.86,16.58c-0.87,12.58-0.58,25.45-4.03,37.68c-0.29-0.41-0.86-1.23-1.15-1.64
		c-1.11-15.27-7.01-29.55-10.51-44.33c-5.17,10.09-7.59,21.28-12.41,31.52c-2.33,5.31-5.12,10.45-6.78,16.03
		c-1.1,5.6-2.96,11.06-3.24,16.81c-1.03,7.01-0.75,14.29-2.96,21.09c-0.1,1.44-1.62,1.58-2.6,2.13
		c-1.28-20.19-5.01-40.11-6.729-60.25c-1.73-6.43-4.7-12.49-6.19-19.01c-1.25-5.77-3.22-11.34-5.47-16.79
		c-5.24-2.77-11.02-4.22-16.94-4.33c-2.63,3.02-5.03,6.26-8.11,8.84c-2.06,7.89-3.93,15.85-5.29,23.9c-0.89,3.8-2.4,7.45-2.71,11.37
		c-0.83-0.01-2.48-0.02-3.31-0.03c-0.479-13.64-6.229-26.49-6.6-40.18c-2.59-3.1-5.05-6.81-9.07-8.12
		c-11.51-3.06-23.02-6.44-34.96-7.31c-1.5-1.2-2.82-3.56-5.06-2.76c-4.98,1.32-9.21,4.55-14.17,5.94
		c-6.76,1.86-13.45,4.24-19.47,7.85c-2.87,1.61-3.95,4.85-4.98,7.75c-2.27,0.6-5.71-0.27-6.73,2.46
		c-2.61,4.95-4.45,10.27-6.07,15.61c-1.51,4.79-1.19,9.88-1.63,14.83c-0.46,7.71-2.08,15.32-2.15,23.06
		c-1.01,4.97-2.76,9.85-3.01,14.97c-0.06,2.77,0.09,5.54,0.07,8.32c-1.32-0.15-2.58-0.43-3.8-0.89
		c-0.29-13.26-2.57-26.32-3.46-39.53c-0.45-8.54-2.44-17.05-6.2-24.74c-2.85-4.82-6.06-9.47-8.17-14.68
		c-9.3-2.06-18.68-4.09-28.24-4.17c-2.1,0.08-4.41,0.07-6.13,1.42c-5.76,4.37-11.58,8.72-17.87,12.31
		c-8.04,4.22-15.32,9.76-23.64,13.46c-2.56,0.97-4.31,3.09-5.52,5.46c-2.45,4.57-6.28,8.54-7.16,13.81
		c-0.56,2.52,0.24,5.14-0.47,7.64c-1.14,4.5-0.76,9.29-2.42,13.67c-2.6,6.64-1.25,13.94-2.08,20.87c-0.34,1.37-1.89,1.97-2.74,2.94
		c0.63,2.58,2.05,5.07,1.82,7.78c-0.82,0.76-1.74,1.37-2.75,1.85c-0.42,1.94-1.54,3.54-3.01,4.84c-0.31,3.95-0.25,7.92-0.8,11.85
		c-1.22-1.24-2.4-2.48-3.58-3.73c0.76-9.9-1.41-19.64-1.68-29.51c-0.32-6.66-1.36-13.27-1.69-19.93c-0.16-3.18-0.51-6.36-1.36-9.43
		c-3.74-2.53-5.76-6.74-9.1-9.7c-9.15,4.74-18.63,8.78-28.01,13.04c-2.16,0.89-4.37,2.17-6.78,1.71c-5.19-0.59-10.42-1-15.6-0.14
		c-1.23,7.82-4.64,15.42-3.7,23.47c0.28,3-0.83,5.85-1.44,8.73c-0.4-0.1-1.2-0.3-1.59-0.4c-2.79-7.96-3.95-16.93-10.35-23.04
		c-2.97,2.72-5.69,5.68-8.31,8.73c-1.97,2.64-6.42,2.21-7.55,5.6c-2.44,5.19-4.88,10.38-7.49,15.49c-1.98,3.73-2.44,7.96-3.24,12.04
		c-0.76,4.21-3.63,7.69-4.32,11.93c-1.04,5.9-0.88,11.99-2.61,17.77c-2.5,9.09-2.53,18.63-4.71,27.77c-0.28,0.14-0.82,0.43-1.1,0.57
		c-8.49-14.6-6.97-32.44-13.77-47.67c-3.57-7.9-6.49-16.12-8.14-24.64c-3.05-1.24-5.82-3.27-9.06-3.93
		c-6.34-0.05-12.66,1.85-18.98,0.67c-7.5-1.36-14.98-2.78-22.47-4.13c-1.02,3.62-1.62,7.44-3.75,10.63
		c-0.59-2.4-0.92-4.85-1.07-7.32c-0.5-0.76-0.99-1.51-1.48-2.26c-2.53,5.75-3.54,12.05-3.8,18.3c-0.32,0.31-0.95,0.95-1.27,1.27
		c-0.75,2.11-1.52,4.26-2.94,6.04c-1.09-5.81-0.06-11.95-1.86-17.59c-2.68-3.1-4.1-6.92-5.01-10.86c-3.75,0.83-7.84,1.41-10.85,4.01
		c-1.57,1.91-2.02,4.45-2.98,6.67c-2.45,6.88-6.33,13.33-7.32,20.66c-0.84,5.27-1.91,10.51-2.2,15.85
		c-0.34,5.74-1.5,11.46-1.06,17.23c0.19,2.64,1.51,5.07,1.61,7.73c-0.68,0.96-1.59,1.73-2.41,2.55c-0.63,1.15-1.24,2.29-1.85,3.44
		c-3.02-2.91-2.09-7.49-4.29-10.83c-2.85-4.8-6.68-9.06-8.66-14.35c-2.56-7.02-2.03-14.68-4.1-21.82
		c-2.53-8.92-7.83-16.72-10.64-25.53c-1.94-5.95-4.4-11.7-6.73-17.5c-2-0.53-4.02-0.99-6.04-1.43c-4.23,4.42-3.58,10.84-4.65,16.42
		c-1.4,7.86-3.34,15.75-6.65,23.03c-0.66,0.24-1.99,0.71-2.65,0.94c0.35-7.68-1.27-15.25-1.88-22.89
		c-0.85-6.81-0.54-13.86-2.89-20.41c-3.51,3.74-2.84,9.08-4.1,13.69c-0.49,0.16-1.46,0.48-1.95,0.65c-0.66,2.39,0.68,6.25-2.37,7.19
		c-1.68-7.11,1.19-15.52-3.9-21.64c-5.34-0.2-10.99-2.94-16.14-0.52c-5.46,3.72-7.56,10.38-11.62,15.34
		c-9.98,12.58-15.61,27.92-25.27,40.69c-0.95,1.19-1.05,2.74-1.18,4.19c-0.47,7-1.74,13.94-1.77,20.98
		c-0.38,11.46-9.31,20.58-9.37,32.09c-0.22,7.45-3.8,14.43-3.26,21.94c0.33,6.16,1.05,13.49-4.14,17.97
		c-0.29,2.33-0.55,4.68-0.81,7.02c-1.27,1.27-2.52,2.56-3.73,3.88c0.18,0.96,0.56,2.88,0.74,3.84c-2.87-0.2-3.68-3.2-5.04-5.2
		c-3.44-6.36-2.26-13.83-3.74-20.68c-1.69-8.27-4.38-16.34-5.31-24.76c-1.12-7.02-1.46-14.15-2.61-21.16
		c-2.5-4.04-5.01-8.08-7.47-12.14c-3.4,1.34-6.97,2.25-10.27,3.84c-2.47,4.02-4.07,8.57-6.4,12.7c-2.04,3.95-2.29,8.42-2.55,12.77
		c0.59,2.37,0.67,4.68-2.03,5.65c-3.35-7.42-2.36-15.82-4.01-23.66c-2.72,5.2-5.57,10.4-7.31,16.02
		c-1.02,5.71-1.69,11.51-3.36,17.09c-1.72,5.94-2.16,12.92-7.3,17.14c-0.19,2.45-0.89,4.8-1.68,7.11l-1.13,0.13
		c-0.85-11.39-3.77-22.47-5.37-33.75c-0.78-6.26-4.67-11.47-6.71-17.32c-1.63,0.88-3.28,1.72-4.84,2.71
		c-2.93,1.4-2.55,5.25-4.62,7.4c-4.95,5.49-9.56,11.43-12.71,18.15c-2.22,7.35-1.55,15.16-2.45,22.7c-0.47,0.06-1.42,0.17-1.9,0.23
		c-2.64-5.82-3.67-12.13-4.56-18.4c-1.2-1.18-2.39-2.35-3.56-3.53c-9.96,3.65-19.85,7.51-29.4,12.15
		c-14.97,6.97-31.05,13.28-42.47,25.7c0.33,5.16-1.19,10.19-1.31,15.32c-0.04,6.7,2.54,12.99,3.87,19.47
		c0.97,5.57,1.46,11.23,2.71,16.76c0.97,4.49,5.42,7.77,5.01,12.64c-0.58,11.94-5.28,23.13-9.7,34.07
		c-1.05,2.82-1.02,5.99-2.43,8.68c-5.44,6.2-15.57,4.89-20.75,11.44c-6.56,7.4-13.71,14.24-20.65,21.27
		c-3.16,2.99-4.2,7.3-5.81,11.17c-3.35,4.9-7.91,8.86-11.27,13.78c-1.53,2.19-1.99,5.14-1.13,7.69c1.72,3.51,5.79,5.32,7.05,9.13
		c1.21,3.17,2.54,6.4,5.05,8.79c3.27,2.98,5.79,7.38,5.48,11.88c-3.1,11.11-3.19,22.73-4.9,34.07c-3.09,5.34-7.88,9.47-11.27,14.6
		c-1.35,2.17-1.62,5.08-0.28,7.34c1.42,2.6,4.45,3.48,6.66,5.22c0.24,7.64-5.4,13.64-6.98,20.88c-1.93,4.64-0.72,10.64-4.81,14.22
		c-6.19,6.8-12.53,13.48-19.29,19.75c-9.65,9.65-19.42,19.22-29.33,28.59c-6.81,0.54-13.58,2-20.41,1.42
		c-7.82,3.43-14.63,8.83-21.64,13.66c-8.29,6.18-16.57,12.5-23.97,19.73c-0.48,4.65,1.95,10.47-1.89,14.22
		c-3.05,2.32-5.92,4.9-9.05,7.12c-4.94,2.92-10.19,5.35-15.66,7.1c-2.19,4.59-4.13,9.29-6.29,13.91c-0.82,2.1-2.94,3.12-4.66,4.38
		c-1.91-0.6-3.88-1.42-5.92-0.93c-10.87,1.64-21.48,5.21-31,10.73V0.5z"/>
	<path fill="#FFFFFF" d="M1603.32,671.56c1.37-0.46,1.93,0.01,1.69,1.41C1603.62,673.4,1603.05,672.93,1603.32,671.56z"/>
</g>
</svg>
